G75*
%MOIN*%
%OFA0B0*%
%FSLAX25Y25*%
%IPPOS*%
%LPD*%
%AMOC8*
5,1,8,0,0,1.08239X$1,22.5*
%
%ADD10C,0.04737*%
%ADD11C,0.11600*%
%ADD12OC8,0.06800*%
%ADD13C,0.09400*%
%ADD14C,0.07850*%
%ADD15R,0.05052X0.04934*%
%ADD16C,0.08600*%
%ADD17C,0.11800*%
%ADD18R,0.07887X0.10249*%
%ADD19C,0.06800*%
%ADD20R,0.04934X0.05052*%
%ADD21R,0.12611X0.06312*%
%ADD22R,0.06312X0.12611*%
%ADD23R,0.03162X0.07887*%
%ADD24R,0.13398X0.10682*%
%ADD25C,0.05950*%
%ADD26C,0.07400*%
%ADD27C,0.07400*%
%ADD28C,0.09650*%
%ADD29OC8,0.06000*%
%ADD30C,0.10800*%
%ADD31OC8,0.10800*%
%ADD32OC8,0.07100*%
%ADD33C,0.07100*%
%ADD34C,0.17398*%
%ADD35C,0.04762*%
%ADD36C,0.15824*%
%ADD37C,0.06706*%
%ADD38C,0.12611*%
%ADD39C,0.07887*%
D10*
X0008737Y0140754D03*
X0201650Y0404534D03*
X0394564Y0140754D03*
D11*
X0323229Y0113378D03*
X0296662Y0103378D03*
X0296662Y0123378D03*
X0296662Y0173378D03*
X0296662Y0193378D03*
X0323229Y0183378D03*
X0108630Y0193299D03*
X0108630Y0173299D03*
X0082063Y0183299D03*
X0108630Y0123299D03*
X0108630Y0103299D03*
X0082063Y0113299D03*
D12*
X0024800Y0278770D03*
X0024800Y0288770D03*
X0024800Y0298770D03*
X0024800Y0308770D03*
X0024800Y0318770D03*
X0024800Y0328770D03*
X0024800Y0338770D03*
X0024800Y0348770D03*
X0024800Y0358770D03*
X0024800Y0368770D03*
X0024800Y0378770D03*
X0024800Y0388770D03*
X0024800Y0398770D03*
X0014800Y0398770D03*
X0014800Y0388770D03*
X0014800Y0378770D03*
X0014800Y0368770D03*
X0014800Y0358770D03*
X0014800Y0348770D03*
X0014800Y0338770D03*
X0014800Y0328770D03*
X0014800Y0318770D03*
X0014800Y0308770D03*
X0014800Y0298770D03*
X0014800Y0288770D03*
X0014800Y0278770D03*
X0377753Y0277171D03*
X0377753Y0267171D03*
X0377753Y0257171D03*
X0377753Y0247171D03*
X0377753Y0237171D03*
X0377753Y0227171D03*
X0377753Y0217171D03*
X0377753Y0207171D03*
X0387753Y0207171D03*
X0387753Y0217171D03*
X0387753Y0227171D03*
X0387753Y0237171D03*
X0387753Y0247171D03*
X0387753Y0257171D03*
X0387753Y0267171D03*
X0387753Y0277171D03*
X0387753Y0287171D03*
X0377753Y0287171D03*
X0377753Y0297171D03*
X0377753Y0307171D03*
X0387753Y0307171D03*
X0387753Y0297171D03*
X0387753Y0317171D03*
X0387753Y0327171D03*
X0387753Y0337171D03*
X0377753Y0337171D03*
X0377753Y0327171D03*
X0377753Y0317171D03*
X0377753Y0347171D03*
X0377753Y0357171D03*
X0387753Y0357171D03*
X0387753Y0347171D03*
X0387753Y0367171D03*
X0387753Y0377171D03*
X0387753Y0387171D03*
X0377753Y0387171D03*
X0377753Y0377171D03*
X0377753Y0367171D03*
X0377753Y0397171D03*
X0387753Y0397171D03*
D13*
X0256769Y0393086D02*
X0256769Y0384486D01*
X0249257Y0369888D02*
X0240657Y0369888D01*
X0233146Y0384486D02*
X0233146Y0393086D01*
X0165454Y0381554D02*
X0165454Y0372954D01*
X0141831Y0372954D02*
X0141831Y0381554D01*
X0149343Y0396152D02*
X0157943Y0396152D01*
X0063443Y0262152D02*
X0054843Y0262152D01*
X0047331Y0247554D02*
X0047331Y0238954D01*
X0032443Y0224652D02*
X0023843Y0224652D01*
X0016331Y0210054D02*
X0016331Y0201454D01*
X0039954Y0201454D02*
X0039954Y0210054D01*
X0070954Y0238954D02*
X0070954Y0247554D01*
X0131572Y0250566D02*
X0131572Y0241966D01*
X0139083Y0227368D02*
X0147683Y0227368D01*
X0155194Y0241966D02*
X0155194Y0250566D01*
D14*
X0295321Y0305344D02*
X0301096Y0309388D01*
X0312387Y0293263D02*
X0306612Y0289219D01*
X0322880Y0265974D02*
X0328655Y0270018D01*
X0339946Y0253893D02*
X0334171Y0249849D01*
X0237566Y0030614D02*
X0237566Y0023564D01*
X0217881Y0023564D02*
X0217881Y0030614D01*
X0187566Y0030614D02*
X0187566Y0023564D01*
X0167881Y0023564D02*
X0167881Y0030614D01*
D15*
X0192800Y0041825D03*
X0192800Y0048715D03*
X0199300Y0048715D03*
X0199300Y0041825D03*
X0379300Y0187325D03*
X0379300Y0194215D03*
X0302300Y0365825D03*
X0302300Y0372715D03*
X0308800Y0371325D03*
X0308800Y0378215D03*
X0316800Y0376965D03*
X0316800Y0370075D03*
X0302300Y0385825D03*
X0302300Y0392715D03*
D16*
X0291800Y0391870D02*
X0291800Y0399670D01*
X0311800Y0399670D02*
X0311800Y0391870D01*
X0331800Y0391870D02*
X0331800Y0399670D01*
X0331800Y0359670D02*
X0331800Y0351870D01*
X0311800Y0351870D02*
X0311800Y0359670D01*
X0291800Y0359670D02*
X0291800Y0351870D01*
X0112200Y0349270D02*
X0104400Y0349270D01*
X0064200Y0349270D02*
X0056400Y0349270D01*
X0056200Y0325770D02*
X0048400Y0325770D01*
X0056400Y0302270D02*
X0064200Y0302270D01*
X0104400Y0302270D02*
X0112200Y0302270D01*
D17*
X0331800Y0375770D03*
D18*
X0346828Y0375270D03*
X0362772Y0375270D03*
D19*
X0302300Y0338270D02*
X0302300Y0332270D01*
X0292300Y0332270D02*
X0292300Y0338270D01*
X0282300Y0338270D02*
X0282300Y0332270D01*
X0230300Y0329770D02*
X0224300Y0329770D01*
X0224300Y0319770D02*
X0230300Y0319770D01*
X0230300Y0309770D02*
X0224300Y0309770D01*
X0224170Y0194030D02*
X0224170Y0188030D01*
X0214170Y0188030D02*
X0214170Y0194030D01*
X0204170Y0194030D02*
X0204170Y0188030D01*
X0194170Y0188030D02*
X0194170Y0194030D01*
X0184170Y0194030D02*
X0184170Y0188030D01*
X0174170Y0188030D02*
X0174170Y0194030D01*
X0164170Y0194030D02*
X0164170Y0188030D01*
X0154170Y0188030D02*
X0154170Y0194030D01*
X0154170Y0124030D02*
X0154170Y0118030D01*
X0164170Y0118030D02*
X0164170Y0124030D01*
X0174170Y0124030D02*
X0174170Y0118030D01*
X0184170Y0118030D02*
X0184170Y0124030D01*
X0194170Y0124030D02*
X0194170Y0118030D01*
X0204170Y0118030D02*
X0204170Y0124030D01*
X0214170Y0124030D02*
X0214170Y0118030D01*
X0224170Y0118030D02*
X0224170Y0124030D01*
X0234170Y0124030D02*
X0234170Y0118030D01*
X0244170Y0118030D02*
X0244170Y0124030D01*
X0254170Y0124030D02*
X0254170Y0118030D01*
X0264170Y0118030D02*
X0264170Y0124030D01*
X0264170Y0188030D02*
X0264170Y0194030D01*
X0254170Y0194030D02*
X0254170Y0188030D01*
X0244170Y0188030D02*
X0244170Y0194030D01*
X0234170Y0194030D02*
X0234170Y0188030D01*
X0342300Y0229270D02*
X0342300Y0235270D01*
X0352300Y0235270D02*
X0352300Y0229270D01*
X0362300Y0229270D02*
X0362300Y0235270D01*
D20*
X0350745Y0264270D03*
X0343855Y0264270D03*
X0363355Y0284270D03*
X0363355Y0289770D03*
X0370245Y0289770D03*
X0370245Y0284270D03*
X0325245Y0312770D03*
X0318355Y0312770D03*
X0347355Y0364770D03*
X0354245Y0364770D03*
G36*
X0352394Y0389293D02*
X0348905Y0385804D01*
X0345334Y0389375D01*
X0348823Y0392864D01*
X0352394Y0389293D01*
G37*
G36*
X0357266Y0394165D02*
X0353777Y0390676D01*
X0350206Y0394247D01*
X0353695Y0397736D01*
X0357266Y0394165D01*
G37*
X0248245Y0391270D03*
X0241355Y0391270D03*
X0155245Y0296770D03*
X0148355Y0296770D03*
X0205355Y0252770D03*
X0212245Y0252770D03*
X0214745Y0070270D03*
X0207855Y0070270D03*
X0164745Y0070270D03*
X0157855Y0070270D03*
D21*
X0255851Y0212270D03*
X0274749Y0212270D03*
X0274749Y0239270D03*
X0255851Y0239270D03*
X0326351Y0279270D03*
X0345249Y0279270D03*
X0337749Y0329270D03*
X0318851Y0329270D03*
D22*
X0354300Y0330321D03*
X0354300Y0349219D03*
X0216800Y0285719D03*
X0216800Y0266821D03*
X0261300Y0054219D03*
X0261300Y0035321D03*
X0144300Y0036321D03*
X0144300Y0055219D03*
D23*
X0170843Y0049061D03*
X0175843Y0049061D03*
X0180843Y0049061D03*
X0185843Y0049061D03*
X0185843Y0069534D03*
X0180843Y0069534D03*
X0175843Y0069534D03*
X0170843Y0069534D03*
X0220843Y0069534D03*
X0225843Y0069534D03*
X0230843Y0069534D03*
X0235843Y0069534D03*
X0235843Y0049061D03*
X0230843Y0049061D03*
X0225843Y0049061D03*
X0220843Y0049061D03*
D24*
X0228343Y0059297D03*
X0178343Y0059297D03*
D25*
X0191650Y0225778D02*
X0191650Y0230927D01*
X0186650Y0241132D02*
X0186650Y0246282D01*
X0196650Y0246282D02*
X0196650Y0241132D01*
X0201650Y0230927D02*
X0201650Y0225778D01*
X0211650Y0225778D02*
X0211650Y0230927D01*
X0206650Y0241132D02*
X0206650Y0246282D01*
X0216650Y0246282D02*
X0216650Y0241132D01*
D26*
X0210650Y0332741D02*
X0210650Y0339341D01*
X0201650Y0339341D02*
X0201650Y0332741D01*
X0192650Y0332741D02*
X0192650Y0339341D01*
X0124828Y0373120D02*
X0118228Y0373120D01*
X0118228Y0382120D02*
X0124828Y0382120D01*
X0124828Y0391120D02*
X0118228Y0391120D01*
D27*
X0160300Y0312770D03*
X0200300Y0312770D03*
D28*
X0225375Y0231270D02*
X0234225Y0231270D01*
X0285375Y0231270D02*
X0294225Y0231270D01*
D29*
X0100800Y0392770D03*
X0095800Y0400270D03*
X0090800Y0392770D03*
X0021800Y0247770D03*
X0016800Y0240270D03*
X0026800Y0240270D03*
D30*
X0091800Y0057770D03*
X0322300Y0058270D03*
D31*
X0322300Y0038270D03*
X0091800Y0037770D03*
D32*
X0016611Y0167250D03*
X0292489Y0254790D03*
D33*
X0292489Y0244790D03*
X0016611Y0177250D03*
D34*
X0020548Y0030518D03*
X0020548Y0125006D03*
X0201650Y0376975D03*
X0382753Y0125006D03*
X0382753Y0030518D03*
D35*
X0281300Y0038270D03*
X0280800Y0055770D03*
X0252300Y0049270D03*
X0246800Y0049270D03*
X0246800Y0041270D03*
X0252300Y0041270D03*
X0250300Y0021770D03*
X0230800Y0037770D03*
X0230800Y0042770D03*
X0205800Y0022770D03*
X0199300Y0022770D03*
X0202800Y0030770D03*
X0202800Y0035270D03*
X0180800Y0037770D03*
X0180800Y0042770D03*
X0162300Y0039270D03*
X0156300Y0039270D03*
X0155300Y0021770D03*
X0126800Y0037770D03*
X0126300Y0058270D03*
X0175800Y0076270D03*
X0181300Y0076270D03*
X0195800Y0083770D03*
X0195300Y0098270D03*
X0225800Y0076770D03*
X0230800Y0076770D03*
X0200300Y0063770D03*
X0143800Y0157770D03*
X0122300Y0157770D03*
X0164300Y0180770D03*
X0212800Y0173770D03*
X0235800Y0214270D03*
X0181800Y0269770D03*
X0262800Y0371270D03*
X0314300Y0322270D03*
X0314300Y0317270D03*
X0314300Y0312270D03*
X0326800Y0303770D03*
X0328800Y0307770D03*
X0333300Y0295770D03*
X0335800Y0291770D03*
X0338800Y0288270D03*
X0353800Y0277770D03*
X0351300Y0273770D03*
X0362300Y0315270D03*
X0362300Y0320270D03*
X0356300Y0338770D03*
X0351800Y0338770D03*
X0344300Y0339270D03*
X0338800Y0362270D03*
X0340800Y0376770D03*
X0340800Y0381270D03*
X0362300Y0363270D03*
X0368300Y0374770D03*
X0316800Y0381770D03*
X0316800Y0365770D03*
X0390300Y0159270D03*
X0300300Y0148770D03*
X0042800Y0397270D03*
D36*
X0141800Y0377270D03*
X0153800Y0396270D03*
X0165300Y0377270D03*
X0233300Y0388770D03*
X0244800Y0369770D03*
X0256800Y0388770D03*
X0155300Y0246770D03*
X0143300Y0227270D03*
X0131800Y0246270D03*
X0070800Y0243270D03*
X0059300Y0262270D03*
X0047300Y0243270D03*
X0028300Y0224770D03*
X0039800Y0205770D03*
X0016300Y0205770D03*
D37*
X0157300Y0049270D03*
X0165300Y0049270D03*
X0207300Y0049270D03*
X0215300Y0049270D03*
X0366060Y0196975D03*
X0391611Y0196896D03*
X0391650Y0179101D03*
X0367300Y0266770D03*
X0367300Y0276770D03*
X0367300Y0296770D03*
X0367300Y0306770D03*
X0361300Y0363770D03*
X0361300Y0401270D03*
X0302300Y0379270D03*
X0251300Y0299770D03*
X0251300Y0262270D03*
D38*
X0206375Y0158077D03*
X0206375Y0137604D03*
X0167005Y0137604D03*
X0167005Y0158077D03*
X0248894Y0148628D03*
D39*
X0170942Y0275793D03*
X0170942Y0286030D03*
X0155194Y0286030D03*
X0155194Y0275793D03*
X0139446Y0275793D03*
X0139446Y0286030D03*
M02*
