G75*
%MOIN*%
%OFA0B0*%
%FSLAX25Y25*%
%IPPOS*%
%LPD*%
%AMOC8*
5,1,8,0,0,1.08239X$1,22.5*
%
%ADD10C,0.07600*%
%ADD11C,0.02400*%
%ADD12C,0.00600*%
%ADD13C,0.00000*%
%ADD14C,0.00300*%
%ADD15C,0.04000*%
%ADD16C,0.00500*%
%ADD17C,0.02000*%
%ADD18C,0.01000*%
%ADD19C,0.03200*%
%ADD20C,0.01600*%
%ADD21C,0.01200*%
%ADD22C,0.00100*%
%ADD23C,0.00800*%
%ADD24C,0.00400*%
%ADD25R,0.10000X0.02500*%
%ADD26R,0.02362X0.07185*%
%ADD27R,0.03150X0.03642*%
D10*
X0004800Y0005481D02*
X0004800Y0123591D01*
X0024485Y0151150D01*
X0004800Y0123591D02*
X0201650Y0399181D01*
X0229209Y0359811D01*
X0201650Y0399181D02*
X0174091Y0359811D01*
X0201650Y0399181D02*
X0398501Y0123591D01*
X0378816Y0151150D01*
X0398501Y0123591D02*
X0398501Y0005481D01*
X0004800Y0005481D01*
X0004800Y0123591D02*
X0004800Y0399181D01*
X0201650Y0399181D01*
X0398501Y0399181D01*
X0398501Y0123591D01*
D11*
X0357593Y0288981D02*
X0357595Y0289034D01*
X0357601Y0289086D01*
X0357611Y0289138D01*
X0357624Y0289189D01*
X0357642Y0289239D01*
X0357663Y0289288D01*
X0357688Y0289335D01*
X0357716Y0289379D01*
X0357747Y0289422D01*
X0357782Y0289462D01*
X0357819Y0289499D01*
X0357859Y0289534D01*
X0357902Y0289565D01*
X0357947Y0289593D01*
X0357993Y0289618D01*
X0358042Y0289639D01*
X0358092Y0289657D01*
X0358143Y0289670D01*
X0358195Y0289680D01*
X0358247Y0289686D01*
X0358300Y0289688D01*
X0358353Y0289686D01*
X0358405Y0289680D01*
X0358457Y0289670D01*
X0358508Y0289657D01*
X0358558Y0289639D01*
X0358607Y0289618D01*
X0358654Y0289593D01*
X0358698Y0289565D01*
X0358741Y0289534D01*
X0358781Y0289499D01*
X0358818Y0289462D01*
X0358853Y0289422D01*
X0358884Y0289379D01*
X0358912Y0289334D01*
X0358937Y0289288D01*
X0358958Y0289239D01*
X0358976Y0289189D01*
X0358989Y0289138D01*
X0358999Y0289086D01*
X0359005Y0289034D01*
X0359007Y0288981D01*
X0359005Y0288928D01*
X0358999Y0288876D01*
X0358989Y0288824D01*
X0358976Y0288773D01*
X0358958Y0288723D01*
X0358937Y0288674D01*
X0358912Y0288627D01*
X0358884Y0288583D01*
X0358853Y0288540D01*
X0358818Y0288500D01*
X0358781Y0288463D01*
X0358741Y0288428D01*
X0358698Y0288397D01*
X0358653Y0288369D01*
X0358607Y0288344D01*
X0358558Y0288323D01*
X0358508Y0288305D01*
X0358457Y0288292D01*
X0358405Y0288282D01*
X0358353Y0288276D01*
X0358300Y0288274D01*
X0358247Y0288276D01*
X0358195Y0288282D01*
X0358143Y0288292D01*
X0358092Y0288305D01*
X0358042Y0288323D01*
X0357993Y0288344D01*
X0357946Y0288369D01*
X0357902Y0288397D01*
X0357859Y0288428D01*
X0357819Y0288463D01*
X0357782Y0288500D01*
X0357747Y0288540D01*
X0357716Y0288583D01*
X0357688Y0288628D01*
X0357663Y0288674D01*
X0357642Y0288723D01*
X0357624Y0288773D01*
X0357611Y0288824D01*
X0357601Y0288876D01*
X0357595Y0288928D01*
X0357593Y0288981D01*
X0332800Y0317981D02*
X0332802Y0318025D01*
X0332808Y0318069D01*
X0332818Y0318112D01*
X0332831Y0318154D01*
X0332848Y0318195D01*
X0332869Y0318234D01*
X0332893Y0318271D01*
X0332920Y0318306D01*
X0332950Y0318338D01*
X0332983Y0318368D01*
X0333019Y0318394D01*
X0333056Y0318418D01*
X0333096Y0318437D01*
X0333137Y0318454D01*
X0333180Y0318466D01*
X0333223Y0318475D01*
X0333267Y0318480D01*
X0333311Y0318481D01*
X0333355Y0318478D01*
X0333399Y0318471D01*
X0333442Y0318460D01*
X0333484Y0318446D01*
X0333524Y0318428D01*
X0333563Y0318406D01*
X0333599Y0318382D01*
X0333633Y0318354D01*
X0333665Y0318323D01*
X0333694Y0318289D01*
X0333720Y0318253D01*
X0333742Y0318215D01*
X0333761Y0318175D01*
X0333776Y0318133D01*
X0333788Y0318091D01*
X0333796Y0318047D01*
X0333800Y0318003D01*
X0333800Y0317959D01*
X0333796Y0317915D01*
X0333788Y0317871D01*
X0333776Y0317829D01*
X0333761Y0317787D01*
X0333742Y0317747D01*
X0333720Y0317709D01*
X0333694Y0317673D01*
X0333665Y0317639D01*
X0333633Y0317608D01*
X0333599Y0317580D01*
X0333563Y0317556D01*
X0333524Y0317534D01*
X0333484Y0317516D01*
X0333442Y0317502D01*
X0333399Y0317491D01*
X0333355Y0317484D01*
X0333311Y0317481D01*
X0333267Y0317482D01*
X0333223Y0317487D01*
X0333180Y0317496D01*
X0333137Y0317508D01*
X0333096Y0317525D01*
X0333056Y0317544D01*
X0333019Y0317568D01*
X0332983Y0317594D01*
X0332950Y0317624D01*
X0332920Y0317656D01*
X0332893Y0317691D01*
X0332869Y0317728D01*
X0332848Y0317767D01*
X0332831Y0317808D01*
X0332818Y0317850D01*
X0332808Y0317893D01*
X0332802Y0317937D01*
X0332800Y0317981D01*
X0350300Y0348481D02*
X0350302Y0348525D01*
X0350308Y0348569D01*
X0350318Y0348612D01*
X0350331Y0348654D01*
X0350348Y0348695D01*
X0350369Y0348734D01*
X0350393Y0348771D01*
X0350420Y0348806D01*
X0350450Y0348838D01*
X0350483Y0348868D01*
X0350519Y0348894D01*
X0350556Y0348918D01*
X0350596Y0348937D01*
X0350637Y0348954D01*
X0350680Y0348966D01*
X0350723Y0348975D01*
X0350767Y0348980D01*
X0350811Y0348981D01*
X0350855Y0348978D01*
X0350899Y0348971D01*
X0350942Y0348960D01*
X0350984Y0348946D01*
X0351024Y0348928D01*
X0351063Y0348906D01*
X0351099Y0348882D01*
X0351133Y0348854D01*
X0351165Y0348823D01*
X0351194Y0348789D01*
X0351220Y0348753D01*
X0351242Y0348715D01*
X0351261Y0348675D01*
X0351276Y0348633D01*
X0351288Y0348591D01*
X0351296Y0348547D01*
X0351300Y0348503D01*
X0351300Y0348459D01*
X0351296Y0348415D01*
X0351288Y0348371D01*
X0351276Y0348329D01*
X0351261Y0348287D01*
X0351242Y0348247D01*
X0351220Y0348209D01*
X0351194Y0348173D01*
X0351165Y0348139D01*
X0351133Y0348108D01*
X0351099Y0348080D01*
X0351063Y0348056D01*
X0351024Y0348034D01*
X0350984Y0348016D01*
X0350942Y0348002D01*
X0350899Y0347991D01*
X0350855Y0347984D01*
X0350811Y0347981D01*
X0350767Y0347982D01*
X0350723Y0347987D01*
X0350680Y0347996D01*
X0350637Y0348008D01*
X0350596Y0348025D01*
X0350556Y0348044D01*
X0350519Y0348068D01*
X0350483Y0348094D01*
X0350450Y0348124D01*
X0350420Y0348156D01*
X0350393Y0348191D01*
X0350369Y0348228D01*
X0350348Y0348267D01*
X0350331Y0348308D01*
X0350318Y0348350D01*
X0350308Y0348393D01*
X0350302Y0348437D01*
X0350300Y0348481D01*
D12*
X0354168Y0369281D02*
X0353100Y0370348D01*
X0354168Y0369281D02*
X0356303Y0369281D01*
X0357370Y0370348D01*
X0357370Y0371416D01*
X0356303Y0372483D01*
X0355235Y0372483D01*
X0356303Y0372483D02*
X0357370Y0373551D01*
X0357370Y0374619D01*
X0356303Y0375686D01*
X0354168Y0375686D01*
X0353100Y0374619D01*
X0359545Y0374619D02*
X0360613Y0375686D01*
X0362748Y0375686D01*
X0363816Y0374619D01*
X0363816Y0373551D01*
X0362748Y0372483D01*
X0363816Y0371416D01*
X0363816Y0370348D01*
X0362748Y0369281D01*
X0360613Y0369281D01*
X0359545Y0370348D01*
X0361681Y0372483D02*
X0362748Y0372483D01*
X0365991Y0373551D02*
X0365991Y0370348D01*
X0367059Y0369281D01*
X0370261Y0369281D01*
X0370261Y0373551D01*
X0372436Y0372483D02*
X0376707Y0372483D01*
X0375253Y0372882D02*
X0372753Y0375382D01*
X0372753Y0380382D01*
X0375253Y0382882D01*
X0372753Y0385382D01*
X0372753Y0390382D01*
X0375253Y0392882D01*
X0390253Y0392882D01*
X0392753Y0390382D01*
X0392753Y0385382D01*
X0390253Y0382882D01*
X0392753Y0380382D01*
X0392753Y0375382D01*
X0390253Y0372882D01*
X0392753Y0370382D01*
X0392753Y0365382D01*
X0390253Y0362882D01*
X0392753Y0360382D01*
X0392753Y0355382D01*
X0390253Y0352882D01*
X0392753Y0350382D01*
X0392753Y0345382D01*
X0390253Y0342882D01*
X0392753Y0340382D01*
X0392753Y0335382D01*
X0390253Y0332882D01*
X0392753Y0330382D01*
X0392753Y0325382D01*
X0390253Y0322882D01*
X0392753Y0320382D01*
X0392753Y0315382D01*
X0390253Y0312882D01*
X0392753Y0310382D01*
X0392753Y0305382D01*
X0390253Y0302882D01*
X0392753Y0300382D01*
X0392753Y0295382D01*
X0390253Y0292882D01*
X0392753Y0290382D01*
X0392753Y0285382D01*
X0390253Y0282882D01*
X0392753Y0280382D01*
X0392753Y0275382D01*
X0390253Y0272882D01*
X0392753Y0270382D01*
X0392753Y0265382D01*
X0390253Y0262882D01*
X0392753Y0260382D01*
X0392753Y0255382D01*
X0390253Y0252882D01*
X0392753Y0250382D01*
X0392753Y0245382D01*
X0390253Y0242882D01*
X0392753Y0240382D01*
X0392753Y0235382D01*
X0390253Y0232882D01*
X0392753Y0230382D01*
X0392753Y0225382D01*
X0390253Y0222882D01*
X0392753Y0220382D01*
X0392753Y0215382D01*
X0390253Y0212882D01*
X0392753Y0210382D01*
X0392753Y0205382D01*
X0390253Y0202882D01*
X0392753Y0200382D01*
X0392753Y0195382D01*
X0390253Y0192882D01*
X0375253Y0192882D01*
X0372753Y0195382D01*
X0372753Y0200382D01*
X0375253Y0202882D01*
X0372753Y0205382D01*
X0372753Y0210382D01*
X0375253Y0212882D01*
X0372753Y0215382D01*
X0372753Y0220382D01*
X0375253Y0222882D01*
X0372753Y0225382D01*
X0372753Y0230382D01*
X0375253Y0232882D01*
X0372753Y0235382D01*
X0372753Y0240382D01*
X0375253Y0242882D01*
X0372753Y0245382D01*
X0372753Y0250382D01*
X0375253Y0252882D01*
X0372753Y0255382D01*
X0372753Y0260382D01*
X0375253Y0262882D01*
X0372753Y0265382D01*
X0372753Y0270382D01*
X0375253Y0272882D01*
X0372753Y0275382D01*
X0372753Y0280382D01*
X0375253Y0282882D01*
X0372753Y0285382D01*
X0372753Y0290382D01*
X0375253Y0292882D01*
X0372753Y0295382D01*
X0372753Y0300382D01*
X0375253Y0302882D01*
X0372753Y0305382D01*
X0372753Y0310382D01*
X0375253Y0312882D01*
X0372753Y0315382D01*
X0372753Y0320382D01*
X0375253Y0322882D01*
X0372753Y0325382D01*
X0372753Y0330382D01*
X0375253Y0332882D01*
X0372753Y0335382D01*
X0372753Y0340382D01*
X0375253Y0342882D01*
X0372753Y0345382D01*
X0372753Y0350382D01*
X0375253Y0352882D01*
X0372753Y0355382D01*
X0372753Y0360382D01*
X0375253Y0362882D01*
X0372753Y0365382D01*
X0372753Y0370382D01*
X0375253Y0372882D01*
X0376707Y0375686D02*
X0376707Y0369281D01*
X0372436Y0369281D02*
X0372436Y0375686D01*
X0334717Y0386441D02*
X0333717Y0386441D01*
X0333717Y0385441D01*
X0333717Y0386441D02*
X0332717Y0386441D01*
X0333717Y0386441D02*
X0333717Y0387441D01*
X0318217Y0391441D02*
X0318220Y0391686D01*
X0318229Y0391932D01*
X0318244Y0392177D01*
X0318265Y0392421D01*
X0318292Y0392665D01*
X0318325Y0392908D01*
X0318364Y0393151D01*
X0318409Y0393392D01*
X0318460Y0393632D01*
X0318517Y0393871D01*
X0318579Y0394108D01*
X0318648Y0394344D01*
X0318722Y0394578D01*
X0318802Y0394810D01*
X0318887Y0395040D01*
X0318978Y0395268D01*
X0319075Y0395493D01*
X0319177Y0395717D01*
X0319285Y0395937D01*
X0319398Y0396155D01*
X0319516Y0396370D01*
X0319640Y0396582D01*
X0319768Y0396791D01*
X0319902Y0396997D01*
X0320041Y0397199D01*
X0320185Y0397398D01*
X0320334Y0397593D01*
X0320487Y0397785D01*
X0320645Y0397973D01*
X0320807Y0398157D01*
X0320975Y0398336D01*
X0321146Y0398512D01*
X0321322Y0398683D01*
X0321501Y0398851D01*
X0321685Y0399013D01*
X0321873Y0399171D01*
X0322065Y0399324D01*
X0322260Y0399473D01*
X0322459Y0399617D01*
X0322661Y0399756D01*
X0322867Y0399890D01*
X0323076Y0400018D01*
X0323288Y0400142D01*
X0323503Y0400260D01*
X0323721Y0400373D01*
X0323941Y0400481D01*
X0324165Y0400583D01*
X0324390Y0400680D01*
X0324618Y0400771D01*
X0324848Y0400856D01*
X0325080Y0400936D01*
X0325314Y0401010D01*
X0325550Y0401079D01*
X0325787Y0401141D01*
X0326026Y0401198D01*
X0326266Y0401249D01*
X0326507Y0401294D01*
X0326750Y0401333D01*
X0326993Y0401366D01*
X0327237Y0401393D01*
X0327481Y0401414D01*
X0327726Y0401429D01*
X0327972Y0401438D01*
X0328217Y0401441D01*
X0328462Y0401438D01*
X0328708Y0401429D01*
X0328953Y0401414D01*
X0329197Y0401393D01*
X0329441Y0401366D01*
X0329684Y0401333D01*
X0329927Y0401294D01*
X0330168Y0401249D01*
X0330408Y0401198D01*
X0330647Y0401141D01*
X0330884Y0401079D01*
X0331120Y0401010D01*
X0331354Y0400936D01*
X0331586Y0400856D01*
X0331816Y0400771D01*
X0332044Y0400680D01*
X0332269Y0400583D01*
X0332493Y0400481D01*
X0332713Y0400373D01*
X0332931Y0400260D01*
X0333146Y0400142D01*
X0333358Y0400018D01*
X0333567Y0399890D01*
X0333773Y0399756D01*
X0333975Y0399617D01*
X0334174Y0399473D01*
X0334369Y0399324D01*
X0334561Y0399171D01*
X0334749Y0399013D01*
X0334933Y0398851D01*
X0335112Y0398683D01*
X0335288Y0398512D01*
X0335459Y0398336D01*
X0335627Y0398157D01*
X0335789Y0397973D01*
X0335947Y0397785D01*
X0336100Y0397593D01*
X0336249Y0397398D01*
X0336393Y0397199D01*
X0336532Y0396997D01*
X0336666Y0396791D01*
X0336794Y0396582D01*
X0336918Y0396370D01*
X0337036Y0396155D01*
X0337149Y0395937D01*
X0337257Y0395717D01*
X0337359Y0395493D01*
X0337456Y0395268D01*
X0337547Y0395040D01*
X0337632Y0394810D01*
X0337712Y0394578D01*
X0337786Y0394344D01*
X0337855Y0394108D01*
X0337917Y0393871D01*
X0337974Y0393632D01*
X0338025Y0393392D01*
X0338070Y0393151D01*
X0338109Y0392908D01*
X0338142Y0392665D01*
X0338169Y0392421D01*
X0338190Y0392177D01*
X0338205Y0391932D01*
X0338214Y0391686D01*
X0338217Y0391441D01*
X0338214Y0391196D01*
X0338205Y0390950D01*
X0338190Y0390705D01*
X0338169Y0390461D01*
X0338142Y0390217D01*
X0338109Y0389974D01*
X0338070Y0389731D01*
X0338025Y0389490D01*
X0337974Y0389250D01*
X0337917Y0389011D01*
X0337855Y0388774D01*
X0337786Y0388538D01*
X0337712Y0388304D01*
X0337632Y0388072D01*
X0337547Y0387842D01*
X0337456Y0387614D01*
X0337359Y0387389D01*
X0337257Y0387165D01*
X0337149Y0386945D01*
X0337036Y0386727D01*
X0336918Y0386512D01*
X0336794Y0386300D01*
X0336666Y0386091D01*
X0336532Y0385885D01*
X0336393Y0385683D01*
X0336249Y0385484D01*
X0336100Y0385289D01*
X0335947Y0385097D01*
X0335789Y0384909D01*
X0335627Y0384725D01*
X0335459Y0384546D01*
X0335288Y0384370D01*
X0335112Y0384199D01*
X0334933Y0384031D01*
X0334749Y0383869D01*
X0334561Y0383711D01*
X0334369Y0383558D01*
X0334174Y0383409D01*
X0333975Y0383265D01*
X0333773Y0383126D01*
X0333567Y0382992D01*
X0333358Y0382864D01*
X0333146Y0382740D01*
X0332931Y0382622D01*
X0332713Y0382509D01*
X0332493Y0382401D01*
X0332269Y0382299D01*
X0332044Y0382202D01*
X0331816Y0382111D01*
X0331586Y0382026D01*
X0331354Y0381946D01*
X0331120Y0381872D01*
X0330884Y0381803D01*
X0330647Y0381741D01*
X0330408Y0381684D01*
X0330168Y0381633D01*
X0329927Y0381588D01*
X0329684Y0381549D01*
X0329441Y0381516D01*
X0329197Y0381489D01*
X0328953Y0381468D01*
X0328708Y0381453D01*
X0328462Y0381444D01*
X0328217Y0381441D01*
X0327972Y0381444D01*
X0327726Y0381453D01*
X0327481Y0381468D01*
X0327237Y0381489D01*
X0326993Y0381516D01*
X0326750Y0381549D01*
X0326507Y0381588D01*
X0326266Y0381633D01*
X0326026Y0381684D01*
X0325787Y0381741D01*
X0325550Y0381803D01*
X0325314Y0381872D01*
X0325080Y0381946D01*
X0324848Y0382026D01*
X0324618Y0382111D01*
X0324390Y0382202D01*
X0324165Y0382299D01*
X0323941Y0382401D01*
X0323721Y0382509D01*
X0323503Y0382622D01*
X0323288Y0382740D01*
X0323076Y0382864D01*
X0322867Y0382992D01*
X0322661Y0383126D01*
X0322459Y0383265D01*
X0322260Y0383409D01*
X0322065Y0383558D01*
X0321873Y0383711D01*
X0321685Y0383869D01*
X0321501Y0384031D01*
X0321322Y0384199D01*
X0321146Y0384370D01*
X0320975Y0384546D01*
X0320807Y0384725D01*
X0320645Y0384909D01*
X0320487Y0385097D01*
X0320334Y0385289D01*
X0320185Y0385484D01*
X0320041Y0385683D01*
X0319902Y0385885D01*
X0319768Y0386091D01*
X0319640Y0386300D01*
X0319516Y0386512D01*
X0319398Y0386727D01*
X0319285Y0386945D01*
X0319177Y0387165D01*
X0319075Y0387389D01*
X0318978Y0387614D01*
X0318887Y0387842D01*
X0318802Y0388072D01*
X0318722Y0388304D01*
X0318648Y0388538D01*
X0318579Y0388774D01*
X0318517Y0389011D01*
X0318460Y0389250D01*
X0318409Y0389490D01*
X0318364Y0389731D01*
X0318325Y0389974D01*
X0318292Y0390217D01*
X0318265Y0390461D01*
X0318244Y0390705D01*
X0318229Y0390950D01*
X0318220Y0391196D01*
X0318217Y0391441D01*
X0280233Y0348000D02*
X0280236Y0348245D01*
X0280245Y0348491D01*
X0280260Y0348736D01*
X0280281Y0348980D01*
X0280308Y0349224D01*
X0280341Y0349467D01*
X0280380Y0349710D01*
X0280425Y0349951D01*
X0280476Y0350191D01*
X0280533Y0350430D01*
X0280595Y0350667D01*
X0280664Y0350903D01*
X0280738Y0351137D01*
X0280818Y0351369D01*
X0280903Y0351599D01*
X0280994Y0351827D01*
X0281091Y0352052D01*
X0281193Y0352276D01*
X0281301Y0352496D01*
X0281414Y0352714D01*
X0281532Y0352929D01*
X0281656Y0353141D01*
X0281784Y0353350D01*
X0281918Y0353556D01*
X0282057Y0353758D01*
X0282201Y0353957D01*
X0282350Y0354152D01*
X0282503Y0354344D01*
X0282661Y0354532D01*
X0282823Y0354716D01*
X0282991Y0354895D01*
X0283162Y0355071D01*
X0283338Y0355242D01*
X0283517Y0355410D01*
X0283701Y0355572D01*
X0283889Y0355730D01*
X0284081Y0355883D01*
X0284276Y0356032D01*
X0284475Y0356176D01*
X0284677Y0356315D01*
X0284883Y0356449D01*
X0285092Y0356577D01*
X0285304Y0356701D01*
X0285519Y0356819D01*
X0285737Y0356932D01*
X0285957Y0357040D01*
X0286181Y0357142D01*
X0286406Y0357239D01*
X0286634Y0357330D01*
X0286864Y0357415D01*
X0287096Y0357495D01*
X0287330Y0357569D01*
X0287566Y0357638D01*
X0287803Y0357700D01*
X0288042Y0357757D01*
X0288282Y0357808D01*
X0288523Y0357853D01*
X0288766Y0357892D01*
X0289009Y0357925D01*
X0289253Y0357952D01*
X0289497Y0357973D01*
X0289742Y0357988D01*
X0289988Y0357997D01*
X0290233Y0358000D01*
X0290478Y0357997D01*
X0290724Y0357988D01*
X0290969Y0357973D01*
X0291213Y0357952D01*
X0291457Y0357925D01*
X0291700Y0357892D01*
X0291943Y0357853D01*
X0292184Y0357808D01*
X0292424Y0357757D01*
X0292663Y0357700D01*
X0292900Y0357638D01*
X0293136Y0357569D01*
X0293370Y0357495D01*
X0293602Y0357415D01*
X0293832Y0357330D01*
X0294060Y0357239D01*
X0294285Y0357142D01*
X0294509Y0357040D01*
X0294729Y0356932D01*
X0294947Y0356819D01*
X0295162Y0356701D01*
X0295374Y0356577D01*
X0295583Y0356449D01*
X0295789Y0356315D01*
X0295991Y0356176D01*
X0296190Y0356032D01*
X0296385Y0355883D01*
X0296577Y0355730D01*
X0296765Y0355572D01*
X0296949Y0355410D01*
X0297128Y0355242D01*
X0297304Y0355071D01*
X0297475Y0354895D01*
X0297643Y0354716D01*
X0297805Y0354532D01*
X0297963Y0354344D01*
X0298116Y0354152D01*
X0298265Y0353957D01*
X0298409Y0353758D01*
X0298548Y0353556D01*
X0298682Y0353350D01*
X0298810Y0353141D01*
X0298934Y0352929D01*
X0299052Y0352714D01*
X0299165Y0352496D01*
X0299273Y0352276D01*
X0299375Y0352052D01*
X0299472Y0351827D01*
X0299563Y0351599D01*
X0299648Y0351369D01*
X0299728Y0351137D01*
X0299802Y0350903D01*
X0299871Y0350667D01*
X0299933Y0350430D01*
X0299990Y0350191D01*
X0300041Y0349951D01*
X0300086Y0349710D01*
X0300125Y0349467D01*
X0300158Y0349224D01*
X0300185Y0348980D01*
X0300206Y0348736D01*
X0300221Y0348491D01*
X0300230Y0348245D01*
X0300233Y0348000D01*
X0300230Y0347755D01*
X0300221Y0347509D01*
X0300206Y0347264D01*
X0300185Y0347020D01*
X0300158Y0346776D01*
X0300125Y0346533D01*
X0300086Y0346290D01*
X0300041Y0346049D01*
X0299990Y0345809D01*
X0299933Y0345570D01*
X0299871Y0345333D01*
X0299802Y0345097D01*
X0299728Y0344863D01*
X0299648Y0344631D01*
X0299563Y0344401D01*
X0299472Y0344173D01*
X0299375Y0343948D01*
X0299273Y0343724D01*
X0299165Y0343504D01*
X0299052Y0343286D01*
X0298934Y0343071D01*
X0298810Y0342859D01*
X0298682Y0342650D01*
X0298548Y0342444D01*
X0298409Y0342242D01*
X0298265Y0342043D01*
X0298116Y0341848D01*
X0297963Y0341656D01*
X0297805Y0341468D01*
X0297643Y0341284D01*
X0297475Y0341105D01*
X0297304Y0340929D01*
X0297128Y0340758D01*
X0296949Y0340590D01*
X0296765Y0340428D01*
X0296577Y0340270D01*
X0296385Y0340117D01*
X0296190Y0339968D01*
X0295991Y0339824D01*
X0295789Y0339685D01*
X0295583Y0339551D01*
X0295374Y0339423D01*
X0295162Y0339299D01*
X0294947Y0339181D01*
X0294729Y0339068D01*
X0294509Y0338960D01*
X0294285Y0338858D01*
X0294060Y0338761D01*
X0293832Y0338670D01*
X0293602Y0338585D01*
X0293370Y0338505D01*
X0293136Y0338431D01*
X0292900Y0338362D01*
X0292663Y0338300D01*
X0292424Y0338243D01*
X0292184Y0338192D01*
X0291943Y0338147D01*
X0291700Y0338108D01*
X0291457Y0338075D01*
X0291213Y0338048D01*
X0290969Y0338027D01*
X0290724Y0338012D01*
X0290478Y0338003D01*
X0290233Y0338000D01*
X0289988Y0338003D01*
X0289742Y0338012D01*
X0289497Y0338027D01*
X0289253Y0338048D01*
X0289009Y0338075D01*
X0288766Y0338108D01*
X0288523Y0338147D01*
X0288282Y0338192D01*
X0288042Y0338243D01*
X0287803Y0338300D01*
X0287566Y0338362D01*
X0287330Y0338431D01*
X0287096Y0338505D01*
X0286864Y0338585D01*
X0286634Y0338670D01*
X0286406Y0338761D01*
X0286181Y0338858D01*
X0285957Y0338960D01*
X0285737Y0339068D01*
X0285519Y0339181D01*
X0285304Y0339299D01*
X0285092Y0339423D01*
X0284883Y0339551D01*
X0284677Y0339685D01*
X0284475Y0339824D01*
X0284276Y0339968D01*
X0284081Y0340117D01*
X0283889Y0340270D01*
X0283701Y0340428D01*
X0283517Y0340590D01*
X0283338Y0340758D01*
X0283162Y0340929D01*
X0282991Y0341105D01*
X0282823Y0341284D01*
X0282661Y0341468D01*
X0282503Y0341656D01*
X0282350Y0341848D01*
X0282201Y0342043D01*
X0282057Y0342242D01*
X0281918Y0342444D01*
X0281784Y0342650D01*
X0281656Y0342859D01*
X0281532Y0343071D01*
X0281414Y0343286D01*
X0281301Y0343504D01*
X0281193Y0343724D01*
X0281091Y0343948D01*
X0280994Y0344173D01*
X0280903Y0344401D01*
X0280818Y0344631D01*
X0280738Y0344863D01*
X0280664Y0345097D01*
X0280595Y0345333D01*
X0280533Y0345570D01*
X0280476Y0345809D01*
X0280425Y0346049D01*
X0280380Y0346290D01*
X0280341Y0346533D01*
X0280308Y0346776D01*
X0280281Y0347020D01*
X0280260Y0347264D01*
X0280245Y0347509D01*
X0280236Y0347755D01*
X0280233Y0348000D01*
X0285233Y0343500D02*
X0285233Y0342500D01*
X0284233Y0342500D01*
X0285233Y0342500D02*
X0286233Y0342500D01*
X0285233Y0342500D02*
X0285233Y0341500D01*
X0284800Y0330981D02*
X0279800Y0330981D01*
X0277300Y0328481D01*
X0277300Y0323481D01*
X0279800Y0320981D01*
X0284800Y0320981D01*
X0287300Y0323481D01*
X0289800Y0320981D01*
X0294800Y0320981D01*
X0297300Y0323481D01*
X0299800Y0320981D01*
X0304800Y0320981D01*
X0307300Y0323481D01*
X0307300Y0328481D01*
X0304800Y0330981D01*
X0299800Y0330981D01*
X0297300Y0328481D01*
X0294800Y0330981D01*
X0289800Y0330981D01*
X0287300Y0328481D01*
X0284800Y0330981D01*
X0283803Y0318186D02*
X0281668Y0318186D01*
X0280600Y0317119D01*
X0280600Y0316051D01*
X0281668Y0314983D01*
X0283803Y0314983D01*
X0284870Y0313916D01*
X0284870Y0312848D01*
X0283803Y0311781D01*
X0281668Y0311781D01*
X0280600Y0312848D01*
X0284870Y0317119D02*
X0283803Y0318186D01*
X0293491Y0318186D02*
X0293491Y0313916D01*
X0295626Y0311781D01*
X0297761Y0313916D01*
X0297761Y0318186D01*
X0306382Y0317119D02*
X0306382Y0312848D01*
X0307450Y0311781D01*
X0309585Y0311781D01*
X0310652Y0312848D01*
X0310652Y0314983D01*
X0308517Y0314983D01*
X0308071Y0316945D02*
X0308726Y0317404D01*
X0331267Y0285212D01*
X0330612Y0284753D01*
X0309314Y0269840D01*
X0301613Y0264448D01*
X0279072Y0296640D01*
X0286773Y0302032D01*
X0308071Y0316945D01*
X0330612Y0284753D01*
X0335630Y0277575D02*
X0336285Y0278034D01*
X0358826Y0245842D01*
X0358171Y0245383D01*
X0336873Y0230470D01*
X0329172Y0225078D01*
X0306631Y0257270D01*
X0314332Y0262662D01*
X0335630Y0277575D01*
X0358171Y0245383D01*
X0346289Y0250428D02*
X0346291Y0250517D01*
X0346297Y0250606D01*
X0346307Y0250695D01*
X0346321Y0250783D01*
X0346338Y0250870D01*
X0346360Y0250956D01*
X0346386Y0251042D01*
X0346415Y0251126D01*
X0346448Y0251209D01*
X0346484Y0251290D01*
X0346525Y0251370D01*
X0346568Y0251447D01*
X0346615Y0251523D01*
X0346666Y0251596D01*
X0346719Y0251667D01*
X0346776Y0251736D01*
X0346836Y0251802D01*
X0346899Y0251866D01*
X0346964Y0251926D01*
X0347032Y0251984D01*
X0347103Y0252038D01*
X0347176Y0252089D01*
X0347251Y0252137D01*
X0347328Y0252182D01*
X0347407Y0252223D01*
X0347488Y0252260D01*
X0347570Y0252294D01*
X0347654Y0252325D01*
X0347739Y0252351D01*
X0347825Y0252374D01*
X0347912Y0252392D01*
X0348000Y0252407D01*
X0348089Y0252418D01*
X0348178Y0252425D01*
X0348267Y0252428D01*
X0348356Y0252427D01*
X0348445Y0252422D01*
X0348533Y0252413D01*
X0348622Y0252400D01*
X0348709Y0252383D01*
X0348796Y0252363D01*
X0348882Y0252338D01*
X0348966Y0252310D01*
X0349049Y0252278D01*
X0349131Y0252242D01*
X0349211Y0252203D01*
X0349289Y0252160D01*
X0349365Y0252114D01*
X0349439Y0252064D01*
X0349511Y0252011D01*
X0349580Y0251955D01*
X0349647Y0251896D01*
X0349711Y0251834D01*
X0349772Y0251770D01*
X0349831Y0251702D01*
X0349886Y0251632D01*
X0349938Y0251560D01*
X0349987Y0251485D01*
X0350032Y0251409D01*
X0350074Y0251330D01*
X0350112Y0251250D01*
X0350147Y0251168D01*
X0350178Y0251084D01*
X0350206Y0250999D01*
X0350229Y0250913D01*
X0350249Y0250826D01*
X0350265Y0250739D01*
X0350277Y0250650D01*
X0350285Y0250562D01*
X0350289Y0250473D01*
X0350289Y0250383D01*
X0350285Y0250294D01*
X0350277Y0250206D01*
X0350265Y0250117D01*
X0350249Y0250030D01*
X0350229Y0249943D01*
X0350206Y0249857D01*
X0350178Y0249772D01*
X0350147Y0249688D01*
X0350112Y0249606D01*
X0350074Y0249526D01*
X0350032Y0249447D01*
X0349987Y0249371D01*
X0349938Y0249296D01*
X0349886Y0249224D01*
X0349831Y0249154D01*
X0349772Y0249086D01*
X0349711Y0249022D01*
X0349647Y0248960D01*
X0349580Y0248901D01*
X0349511Y0248845D01*
X0349439Y0248792D01*
X0349365Y0248742D01*
X0349289Y0248696D01*
X0349211Y0248653D01*
X0349131Y0248614D01*
X0349049Y0248578D01*
X0348966Y0248546D01*
X0348882Y0248518D01*
X0348796Y0248493D01*
X0348709Y0248473D01*
X0348622Y0248456D01*
X0348533Y0248443D01*
X0348445Y0248434D01*
X0348356Y0248429D01*
X0348267Y0248428D01*
X0348178Y0248431D01*
X0348089Y0248438D01*
X0348000Y0248449D01*
X0347912Y0248464D01*
X0347825Y0248482D01*
X0347739Y0248505D01*
X0347654Y0248531D01*
X0347570Y0248562D01*
X0347488Y0248596D01*
X0347407Y0248633D01*
X0347328Y0248674D01*
X0347251Y0248719D01*
X0347176Y0248767D01*
X0347103Y0248818D01*
X0347032Y0248872D01*
X0346964Y0248930D01*
X0346899Y0248990D01*
X0346836Y0249054D01*
X0346776Y0249120D01*
X0346719Y0249189D01*
X0346666Y0249260D01*
X0346615Y0249333D01*
X0346568Y0249409D01*
X0346525Y0249486D01*
X0346484Y0249566D01*
X0346448Y0249647D01*
X0346415Y0249730D01*
X0346386Y0249814D01*
X0346360Y0249900D01*
X0346338Y0249986D01*
X0346321Y0250073D01*
X0346307Y0250161D01*
X0346297Y0250250D01*
X0346291Y0250339D01*
X0346289Y0250428D01*
X0333260Y0235630D02*
X0336873Y0230470D01*
X0339800Y0227981D02*
X0337300Y0225481D01*
X0337300Y0220481D01*
X0339800Y0217981D01*
X0344800Y0217981D01*
X0347300Y0220481D01*
X0349800Y0217981D01*
X0354800Y0217981D01*
X0357300Y0220481D01*
X0359800Y0217981D01*
X0364800Y0217981D01*
X0367300Y0220481D01*
X0367300Y0225481D01*
X0364800Y0227981D01*
X0359800Y0227981D01*
X0357300Y0225481D01*
X0354800Y0227981D01*
X0349800Y0227981D01*
X0347300Y0225481D01*
X0344800Y0227981D01*
X0339800Y0227981D01*
X0342668Y0216686D02*
X0341600Y0215619D01*
X0341600Y0214551D01*
X0342668Y0213483D01*
X0344803Y0213483D01*
X0345870Y0212416D01*
X0345870Y0211348D01*
X0344803Y0210281D01*
X0342668Y0210281D01*
X0341600Y0211348D01*
X0342668Y0216686D02*
X0344803Y0216686D01*
X0345870Y0215619D01*
X0354491Y0216686D02*
X0354491Y0212416D01*
X0356626Y0210281D01*
X0358761Y0212416D01*
X0358761Y0216686D01*
X0367382Y0215619D02*
X0367382Y0211348D01*
X0368450Y0210281D01*
X0370585Y0210281D01*
X0371652Y0211348D01*
X0371652Y0213483D01*
X0369517Y0213483D01*
X0367382Y0215619D02*
X0368450Y0216686D01*
X0370585Y0216686D01*
X0371652Y0215619D01*
X0329245Y0241364D02*
X0321960Y0251768D01*
X0317945Y0257502D02*
X0314332Y0262662D01*
X0309314Y0269840D02*
X0305701Y0275000D01*
X0301686Y0280735D02*
X0294401Y0291138D01*
X0290386Y0296872D02*
X0286773Y0302032D01*
X0306382Y0317119D02*
X0307450Y0318186D01*
X0309585Y0318186D01*
X0310652Y0317119D01*
X0307431Y0305935D02*
X0307433Y0306024D01*
X0307439Y0306113D01*
X0307449Y0306202D01*
X0307463Y0306290D01*
X0307480Y0306377D01*
X0307502Y0306463D01*
X0307528Y0306549D01*
X0307557Y0306633D01*
X0307590Y0306716D01*
X0307626Y0306797D01*
X0307667Y0306877D01*
X0307710Y0306954D01*
X0307757Y0307030D01*
X0307808Y0307103D01*
X0307861Y0307174D01*
X0307918Y0307243D01*
X0307978Y0307309D01*
X0308041Y0307373D01*
X0308106Y0307433D01*
X0308174Y0307491D01*
X0308245Y0307545D01*
X0308318Y0307596D01*
X0308393Y0307644D01*
X0308470Y0307689D01*
X0308549Y0307730D01*
X0308630Y0307767D01*
X0308712Y0307801D01*
X0308796Y0307832D01*
X0308881Y0307858D01*
X0308967Y0307881D01*
X0309054Y0307899D01*
X0309142Y0307914D01*
X0309231Y0307925D01*
X0309320Y0307932D01*
X0309409Y0307935D01*
X0309498Y0307934D01*
X0309587Y0307929D01*
X0309675Y0307920D01*
X0309764Y0307907D01*
X0309851Y0307890D01*
X0309938Y0307870D01*
X0310024Y0307845D01*
X0310108Y0307817D01*
X0310191Y0307785D01*
X0310273Y0307749D01*
X0310353Y0307710D01*
X0310431Y0307667D01*
X0310507Y0307621D01*
X0310581Y0307571D01*
X0310653Y0307518D01*
X0310722Y0307462D01*
X0310789Y0307403D01*
X0310853Y0307341D01*
X0310914Y0307277D01*
X0310973Y0307209D01*
X0311028Y0307139D01*
X0311080Y0307067D01*
X0311129Y0306992D01*
X0311174Y0306916D01*
X0311216Y0306837D01*
X0311254Y0306757D01*
X0311289Y0306675D01*
X0311320Y0306591D01*
X0311348Y0306506D01*
X0311371Y0306420D01*
X0311391Y0306333D01*
X0311407Y0306246D01*
X0311419Y0306157D01*
X0311427Y0306069D01*
X0311431Y0305980D01*
X0311431Y0305890D01*
X0311427Y0305801D01*
X0311419Y0305713D01*
X0311407Y0305624D01*
X0311391Y0305537D01*
X0311371Y0305450D01*
X0311348Y0305364D01*
X0311320Y0305279D01*
X0311289Y0305195D01*
X0311254Y0305113D01*
X0311216Y0305033D01*
X0311174Y0304954D01*
X0311129Y0304878D01*
X0311080Y0304803D01*
X0311028Y0304731D01*
X0310973Y0304661D01*
X0310914Y0304593D01*
X0310853Y0304529D01*
X0310789Y0304467D01*
X0310722Y0304408D01*
X0310653Y0304352D01*
X0310581Y0304299D01*
X0310507Y0304249D01*
X0310431Y0304203D01*
X0310353Y0304160D01*
X0310273Y0304121D01*
X0310191Y0304085D01*
X0310108Y0304053D01*
X0310024Y0304025D01*
X0309938Y0304000D01*
X0309851Y0303980D01*
X0309764Y0303963D01*
X0309675Y0303950D01*
X0309587Y0303941D01*
X0309498Y0303936D01*
X0309409Y0303935D01*
X0309320Y0303938D01*
X0309231Y0303945D01*
X0309142Y0303956D01*
X0309054Y0303971D01*
X0308967Y0303989D01*
X0308881Y0304012D01*
X0308796Y0304038D01*
X0308712Y0304069D01*
X0308630Y0304103D01*
X0308549Y0304140D01*
X0308470Y0304181D01*
X0308393Y0304226D01*
X0308318Y0304274D01*
X0308245Y0304325D01*
X0308174Y0304379D01*
X0308106Y0304437D01*
X0308041Y0304497D01*
X0307978Y0304561D01*
X0307918Y0304627D01*
X0307861Y0304696D01*
X0307808Y0304767D01*
X0307757Y0304840D01*
X0307710Y0304916D01*
X0307667Y0304993D01*
X0307626Y0305073D01*
X0307590Y0305154D01*
X0307557Y0305237D01*
X0307528Y0305321D01*
X0307502Y0305407D01*
X0307480Y0305493D01*
X0307463Y0305580D01*
X0307449Y0305668D01*
X0307439Y0305757D01*
X0307433Y0305846D01*
X0307431Y0305935D01*
X0318730Y0289798D02*
X0318732Y0289887D01*
X0318738Y0289976D01*
X0318748Y0290065D01*
X0318762Y0290153D01*
X0318779Y0290240D01*
X0318801Y0290326D01*
X0318827Y0290412D01*
X0318856Y0290496D01*
X0318889Y0290579D01*
X0318925Y0290660D01*
X0318966Y0290740D01*
X0319009Y0290817D01*
X0319056Y0290893D01*
X0319107Y0290966D01*
X0319160Y0291037D01*
X0319217Y0291106D01*
X0319277Y0291172D01*
X0319340Y0291236D01*
X0319405Y0291296D01*
X0319473Y0291354D01*
X0319544Y0291408D01*
X0319617Y0291459D01*
X0319692Y0291507D01*
X0319769Y0291552D01*
X0319848Y0291593D01*
X0319929Y0291630D01*
X0320011Y0291664D01*
X0320095Y0291695D01*
X0320180Y0291721D01*
X0320266Y0291744D01*
X0320353Y0291762D01*
X0320441Y0291777D01*
X0320530Y0291788D01*
X0320619Y0291795D01*
X0320708Y0291798D01*
X0320797Y0291797D01*
X0320886Y0291792D01*
X0320974Y0291783D01*
X0321063Y0291770D01*
X0321150Y0291753D01*
X0321237Y0291733D01*
X0321323Y0291708D01*
X0321407Y0291680D01*
X0321490Y0291648D01*
X0321572Y0291612D01*
X0321652Y0291573D01*
X0321730Y0291530D01*
X0321806Y0291484D01*
X0321880Y0291434D01*
X0321952Y0291381D01*
X0322021Y0291325D01*
X0322088Y0291266D01*
X0322152Y0291204D01*
X0322213Y0291140D01*
X0322272Y0291072D01*
X0322327Y0291002D01*
X0322379Y0290930D01*
X0322428Y0290855D01*
X0322473Y0290779D01*
X0322515Y0290700D01*
X0322553Y0290620D01*
X0322588Y0290538D01*
X0322619Y0290454D01*
X0322647Y0290369D01*
X0322670Y0290283D01*
X0322690Y0290196D01*
X0322706Y0290109D01*
X0322718Y0290020D01*
X0322726Y0289932D01*
X0322730Y0289843D01*
X0322730Y0289753D01*
X0322726Y0289664D01*
X0322718Y0289576D01*
X0322706Y0289487D01*
X0322690Y0289400D01*
X0322670Y0289313D01*
X0322647Y0289227D01*
X0322619Y0289142D01*
X0322588Y0289058D01*
X0322553Y0288976D01*
X0322515Y0288896D01*
X0322473Y0288817D01*
X0322428Y0288741D01*
X0322379Y0288666D01*
X0322327Y0288594D01*
X0322272Y0288524D01*
X0322213Y0288456D01*
X0322152Y0288392D01*
X0322088Y0288330D01*
X0322021Y0288271D01*
X0321952Y0288215D01*
X0321880Y0288162D01*
X0321806Y0288112D01*
X0321730Y0288066D01*
X0321652Y0288023D01*
X0321572Y0287984D01*
X0321490Y0287948D01*
X0321407Y0287916D01*
X0321323Y0287888D01*
X0321237Y0287863D01*
X0321150Y0287843D01*
X0321063Y0287826D01*
X0320974Y0287813D01*
X0320886Y0287804D01*
X0320797Y0287799D01*
X0320708Y0287798D01*
X0320619Y0287801D01*
X0320530Y0287808D01*
X0320441Y0287819D01*
X0320353Y0287834D01*
X0320266Y0287852D01*
X0320180Y0287875D01*
X0320095Y0287901D01*
X0320011Y0287932D01*
X0319929Y0287966D01*
X0319848Y0288003D01*
X0319769Y0288044D01*
X0319692Y0288089D01*
X0319617Y0288137D01*
X0319544Y0288188D01*
X0319473Y0288242D01*
X0319405Y0288300D01*
X0319340Y0288360D01*
X0319277Y0288424D01*
X0319217Y0288490D01*
X0319160Y0288559D01*
X0319107Y0288630D01*
X0319056Y0288703D01*
X0319009Y0288779D01*
X0318966Y0288856D01*
X0318925Y0288936D01*
X0318889Y0289017D01*
X0318856Y0289100D01*
X0318827Y0289184D01*
X0318801Y0289270D01*
X0318779Y0289356D01*
X0318762Y0289443D01*
X0318748Y0289531D01*
X0318738Y0289620D01*
X0318732Y0289709D01*
X0318730Y0289798D01*
X0334990Y0266565D02*
X0334992Y0266654D01*
X0334998Y0266743D01*
X0335008Y0266832D01*
X0335022Y0266920D01*
X0335039Y0267007D01*
X0335061Y0267093D01*
X0335087Y0267179D01*
X0335116Y0267263D01*
X0335149Y0267346D01*
X0335185Y0267427D01*
X0335226Y0267507D01*
X0335269Y0267584D01*
X0335316Y0267660D01*
X0335367Y0267733D01*
X0335420Y0267804D01*
X0335477Y0267873D01*
X0335537Y0267939D01*
X0335600Y0268003D01*
X0335665Y0268063D01*
X0335733Y0268121D01*
X0335804Y0268175D01*
X0335877Y0268226D01*
X0335952Y0268274D01*
X0336029Y0268319D01*
X0336108Y0268360D01*
X0336189Y0268397D01*
X0336271Y0268431D01*
X0336355Y0268462D01*
X0336440Y0268488D01*
X0336526Y0268511D01*
X0336613Y0268529D01*
X0336701Y0268544D01*
X0336790Y0268555D01*
X0336879Y0268562D01*
X0336968Y0268565D01*
X0337057Y0268564D01*
X0337146Y0268559D01*
X0337234Y0268550D01*
X0337323Y0268537D01*
X0337410Y0268520D01*
X0337497Y0268500D01*
X0337583Y0268475D01*
X0337667Y0268447D01*
X0337750Y0268415D01*
X0337832Y0268379D01*
X0337912Y0268340D01*
X0337990Y0268297D01*
X0338066Y0268251D01*
X0338140Y0268201D01*
X0338212Y0268148D01*
X0338281Y0268092D01*
X0338348Y0268033D01*
X0338412Y0267971D01*
X0338473Y0267907D01*
X0338532Y0267839D01*
X0338587Y0267769D01*
X0338639Y0267697D01*
X0338688Y0267622D01*
X0338733Y0267546D01*
X0338775Y0267467D01*
X0338813Y0267387D01*
X0338848Y0267305D01*
X0338879Y0267221D01*
X0338907Y0267136D01*
X0338930Y0267050D01*
X0338950Y0266963D01*
X0338966Y0266876D01*
X0338978Y0266787D01*
X0338986Y0266699D01*
X0338990Y0266610D01*
X0338990Y0266520D01*
X0338986Y0266431D01*
X0338978Y0266343D01*
X0338966Y0266254D01*
X0338950Y0266167D01*
X0338930Y0266080D01*
X0338907Y0265994D01*
X0338879Y0265909D01*
X0338848Y0265825D01*
X0338813Y0265743D01*
X0338775Y0265663D01*
X0338733Y0265584D01*
X0338688Y0265508D01*
X0338639Y0265433D01*
X0338587Y0265361D01*
X0338532Y0265291D01*
X0338473Y0265223D01*
X0338412Y0265159D01*
X0338348Y0265097D01*
X0338281Y0265038D01*
X0338212Y0264982D01*
X0338140Y0264929D01*
X0338066Y0264879D01*
X0337990Y0264833D01*
X0337912Y0264790D01*
X0337832Y0264751D01*
X0337750Y0264715D01*
X0337667Y0264683D01*
X0337583Y0264655D01*
X0337497Y0264630D01*
X0337410Y0264610D01*
X0337323Y0264593D01*
X0337234Y0264580D01*
X0337146Y0264571D01*
X0337057Y0264566D01*
X0336968Y0264565D01*
X0336879Y0264568D01*
X0336790Y0264575D01*
X0336701Y0264586D01*
X0336613Y0264601D01*
X0336526Y0264619D01*
X0336440Y0264642D01*
X0336355Y0264668D01*
X0336271Y0264699D01*
X0336189Y0264733D01*
X0336108Y0264770D01*
X0336029Y0264811D01*
X0335952Y0264856D01*
X0335877Y0264904D01*
X0335804Y0264955D01*
X0335733Y0265009D01*
X0335665Y0265067D01*
X0335600Y0265127D01*
X0335537Y0265191D01*
X0335477Y0265257D01*
X0335420Y0265326D01*
X0335367Y0265397D01*
X0335316Y0265470D01*
X0335269Y0265546D01*
X0335226Y0265623D01*
X0335185Y0265703D01*
X0335149Y0265784D01*
X0335116Y0265867D01*
X0335087Y0265951D01*
X0335061Y0266037D01*
X0335039Y0266123D01*
X0335022Y0266210D01*
X0335008Y0266298D01*
X0334998Y0266387D01*
X0334992Y0266476D01*
X0334990Y0266565D01*
X0282489Y0240500D02*
X0282492Y0240745D01*
X0282501Y0240991D01*
X0282516Y0241236D01*
X0282537Y0241480D01*
X0282564Y0241724D01*
X0282597Y0241967D01*
X0282636Y0242210D01*
X0282681Y0242451D01*
X0282732Y0242691D01*
X0282789Y0242930D01*
X0282851Y0243167D01*
X0282920Y0243403D01*
X0282994Y0243637D01*
X0283074Y0243869D01*
X0283159Y0244099D01*
X0283250Y0244327D01*
X0283347Y0244552D01*
X0283449Y0244776D01*
X0283557Y0244996D01*
X0283670Y0245214D01*
X0283788Y0245429D01*
X0283912Y0245641D01*
X0284040Y0245850D01*
X0284174Y0246056D01*
X0284313Y0246258D01*
X0284457Y0246457D01*
X0284606Y0246652D01*
X0284759Y0246844D01*
X0284917Y0247032D01*
X0285079Y0247216D01*
X0285247Y0247395D01*
X0285418Y0247571D01*
X0285594Y0247742D01*
X0285773Y0247910D01*
X0285957Y0248072D01*
X0286145Y0248230D01*
X0286337Y0248383D01*
X0286532Y0248532D01*
X0286731Y0248676D01*
X0286933Y0248815D01*
X0287139Y0248949D01*
X0287348Y0249077D01*
X0287560Y0249201D01*
X0287775Y0249319D01*
X0287993Y0249432D01*
X0288213Y0249540D01*
X0288437Y0249642D01*
X0288662Y0249739D01*
X0288890Y0249830D01*
X0289120Y0249915D01*
X0289352Y0249995D01*
X0289586Y0250069D01*
X0289822Y0250138D01*
X0290059Y0250200D01*
X0290298Y0250257D01*
X0290538Y0250308D01*
X0290779Y0250353D01*
X0291022Y0250392D01*
X0291265Y0250425D01*
X0291509Y0250452D01*
X0291753Y0250473D01*
X0291998Y0250488D01*
X0292244Y0250497D01*
X0292489Y0250500D01*
X0292734Y0250497D01*
X0292980Y0250488D01*
X0293225Y0250473D01*
X0293469Y0250452D01*
X0293713Y0250425D01*
X0293956Y0250392D01*
X0294199Y0250353D01*
X0294440Y0250308D01*
X0294680Y0250257D01*
X0294919Y0250200D01*
X0295156Y0250138D01*
X0295392Y0250069D01*
X0295626Y0249995D01*
X0295858Y0249915D01*
X0296088Y0249830D01*
X0296316Y0249739D01*
X0296541Y0249642D01*
X0296765Y0249540D01*
X0296985Y0249432D01*
X0297203Y0249319D01*
X0297418Y0249201D01*
X0297630Y0249077D01*
X0297839Y0248949D01*
X0298045Y0248815D01*
X0298247Y0248676D01*
X0298446Y0248532D01*
X0298641Y0248383D01*
X0298833Y0248230D01*
X0299021Y0248072D01*
X0299205Y0247910D01*
X0299384Y0247742D01*
X0299560Y0247571D01*
X0299731Y0247395D01*
X0299899Y0247216D01*
X0300061Y0247032D01*
X0300219Y0246844D01*
X0300372Y0246652D01*
X0300521Y0246457D01*
X0300665Y0246258D01*
X0300804Y0246056D01*
X0300938Y0245850D01*
X0301066Y0245641D01*
X0301190Y0245429D01*
X0301308Y0245214D01*
X0301421Y0244996D01*
X0301529Y0244776D01*
X0301631Y0244552D01*
X0301728Y0244327D01*
X0301819Y0244099D01*
X0301904Y0243869D01*
X0301984Y0243637D01*
X0302058Y0243403D01*
X0302127Y0243167D01*
X0302189Y0242930D01*
X0302246Y0242691D01*
X0302297Y0242451D01*
X0302342Y0242210D01*
X0302381Y0241967D01*
X0302414Y0241724D01*
X0302441Y0241480D01*
X0302462Y0241236D01*
X0302477Y0240991D01*
X0302486Y0240745D01*
X0302489Y0240500D01*
X0302486Y0240255D01*
X0302477Y0240009D01*
X0302462Y0239764D01*
X0302441Y0239520D01*
X0302414Y0239276D01*
X0302381Y0239033D01*
X0302342Y0238790D01*
X0302297Y0238549D01*
X0302246Y0238309D01*
X0302189Y0238070D01*
X0302127Y0237833D01*
X0302058Y0237597D01*
X0301984Y0237363D01*
X0301904Y0237131D01*
X0301819Y0236901D01*
X0301728Y0236673D01*
X0301631Y0236448D01*
X0301529Y0236224D01*
X0301421Y0236004D01*
X0301308Y0235786D01*
X0301190Y0235571D01*
X0301066Y0235359D01*
X0300938Y0235150D01*
X0300804Y0234944D01*
X0300665Y0234742D01*
X0300521Y0234543D01*
X0300372Y0234348D01*
X0300219Y0234156D01*
X0300061Y0233968D01*
X0299899Y0233784D01*
X0299731Y0233605D01*
X0299560Y0233429D01*
X0299384Y0233258D01*
X0299205Y0233090D01*
X0299021Y0232928D01*
X0298833Y0232770D01*
X0298641Y0232617D01*
X0298446Y0232468D01*
X0298247Y0232324D01*
X0298045Y0232185D01*
X0297839Y0232051D01*
X0297630Y0231923D01*
X0297418Y0231799D01*
X0297203Y0231681D01*
X0296985Y0231568D01*
X0296765Y0231460D01*
X0296541Y0231358D01*
X0296316Y0231261D01*
X0296088Y0231170D01*
X0295858Y0231085D01*
X0295626Y0231005D01*
X0295392Y0230931D01*
X0295156Y0230862D01*
X0294919Y0230800D01*
X0294680Y0230743D01*
X0294440Y0230692D01*
X0294199Y0230647D01*
X0293956Y0230608D01*
X0293713Y0230575D01*
X0293469Y0230548D01*
X0293225Y0230527D01*
X0292980Y0230512D01*
X0292734Y0230503D01*
X0292489Y0230500D01*
X0292244Y0230503D01*
X0291998Y0230512D01*
X0291753Y0230527D01*
X0291509Y0230548D01*
X0291265Y0230575D01*
X0291022Y0230608D01*
X0290779Y0230647D01*
X0290538Y0230692D01*
X0290298Y0230743D01*
X0290059Y0230800D01*
X0289822Y0230862D01*
X0289586Y0230931D01*
X0289352Y0231005D01*
X0289120Y0231085D01*
X0288890Y0231170D01*
X0288662Y0231261D01*
X0288437Y0231358D01*
X0288213Y0231460D01*
X0287993Y0231568D01*
X0287775Y0231681D01*
X0287560Y0231799D01*
X0287348Y0231923D01*
X0287139Y0232051D01*
X0286933Y0232185D01*
X0286731Y0232324D01*
X0286532Y0232468D01*
X0286337Y0232617D01*
X0286145Y0232770D01*
X0285957Y0232928D01*
X0285773Y0233090D01*
X0285594Y0233258D01*
X0285418Y0233429D01*
X0285247Y0233605D01*
X0285079Y0233784D01*
X0284917Y0233968D01*
X0284759Y0234156D01*
X0284606Y0234348D01*
X0284457Y0234543D01*
X0284313Y0234742D01*
X0284174Y0234944D01*
X0284040Y0235150D01*
X0283912Y0235359D01*
X0283788Y0235571D01*
X0283670Y0235786D01*
X0283557Y0236004D01*
X0283449Y0236224D01*
X0283347Y0236448D01*
X0283250Y0236673D01*
X0283159Y0236901D01*
X0283074Y0237131D01*
X0282994Y0237363D01*
X0282920Y0237597D01*
X0282851Y0237833D01*
X0282789Y0238070D01*
X0282732Y0238309D01*
X0282681Y0238549D01*
X0282636Y0238790D01*
X0282597Y0239033D01*
X0282564Y0239276D01*
X0282537Y0239520D01*
X0282516Y0239764D01*
X0282501Y0240009D01*
X0282492Y0240255D01*
X0282489Y0240500D01*
X0287489Y0236000D02*
X0287489Y0235000D01*
X0286489Y0235000D01*
X0287489Y0235000D02*
X0288489Y0235000D01*
X0287489Y0235000D02*
X0287489Y0234000D01*
X0266670Y0186741D02*
X0261670Y0186741D01*
X0259170Y0184241D01*
X0256670Y0186741D01*
X0251670Y0186741D01*
X0249170Y0184241D01*
X0246670Y0186741D01*
X0241670Y0186741D01*
X0239170Y0184241D01*
X0236670Y0186741D01*
X0231670Y0186741D01*
X0229170Y0184241D01*
X0226670Y0186741D01*
X0221670Y0186741D01*
X0219170Y0184241D01*
X0216670Y0186741D01*
X0211670Y0186741D01*
X0209170Y0184241D01*
X0206670Y0186741D01*
X0201670Y0186741D01*
X0199170Y0184241D01*
X0196670Y0186741D01*
X0191670Y0186741D01*
X0189170Y0184241D01*
X0186670Y0186741D01*
X0181670Y0186741D01*
X0179170Y0184241D01*
X0176670Y0186741D01*
X0171670Y0186741D01*
X0169170Y0184241D01*
X0166670Y0186741D01*
X0161670Y0186741D01*
X0159170Y0184241D01*
X0156670Y0186741D01*
X0151670Y0186741D01*
X0149170Y0184241D01*
X0149170Y0179241D01*
X0151670Y0176741D01*
X0156670Y0176741D01*
X0159170Y0179241D01*
X0161670Y0176741D01*
X0166670Y0176741D01*
X0169170Y0179241D01*
X0171670Y0176741D01*
X0176670Y0176741D01*
X0179170Y0179241D01*
X0181670Y0176741D01*
X0186670Y0176741D01*
X0189170Y0179241D01*
X0191670Y0176741D01*
X0196670Y0176741D01*
X0199170Y0179241D01*
X0201670Y0176741D01*
X0206670Y0176741D01*
X0209170Y0179241D01*
X0211670Y0176741D01*
X0216670Y0176741D01*
X0219170Y0179241D01*
X0221670Y0176741D01*
X0226670Y0176741D01*
X0229170Y0179241D01*
X0231670Y0176741D01*
X0236670Y0176741D01*
X0239170Y0179241D01*
X0241670Y0176741D01*
X0246670Y0176741D01*
X0249170Y0179241D01*
X0251670Y0176741D01*
X0256670Y0176741D01*
X0259170Y0179241D01*
X0261670Y0176741D01*
X0266670Y0176741D01*
X0269170Y0179241D01*
X0269170Y0184241D01*
X0266670Y0186741D01*
X0266670Y0116741D02*
X0261670Y0116741D01*
X0259170Y0114241D01*
X0256670Y0116741D01*
X0251670Y0116741D01*
X0249170Y0114241D01*
X0246670Y0116741D01*
X0241670Y0116741D01*
X0239170Y0114241D01*
X0236670Y0116741D01*
X0231670Y0116741D01*
X0229170Y0114241D01*
X0226670Y0116741D01*
X0221670Y0116741D01*
X0219170Y0114241D01*
X0216670Y0116741D01*
X0211670Y0116741D01*
X0209170Y0114241D01*
X0206670Y0116741D01*
X0201670Y0116741D01*
X0199170Y0114241D01*
X0196670Y0116741D01*
X0191670Y0116741D01*
X0189170Y0114241D01*
X0186670Y0116741D01*
X0181670Y0116741D01*
X0179170Y0114241D01*
X0176670Y0116741D01*
X0171670Y0116741D01*
X0169170Y0114241D01*
X0166670Y0116741D01*
X0161670Y0116741D01*
X0159170Y0114241D01*
X0156670Y0116741D01*
X0151670Y0116741D01*
X0149170Y0114241D01*
X0149170Y0109241D01*
X0151670Y0106741D01*
X0156670Y0106741D01*
X0159170Y0109241D01*
X0161670Y0106741D01*
X0166670Y0106741D01*
X0169170Y0109241D01*
X0171670Y0106741D01*
X0176670Y0106741D01*
X0179170Y0109241D01*
X0181670Y0106741D01*
X0186670Y0106741D01*
X0189170Y0109241D01*
X0191670Y0106741D01*
X0196670Y0106741D01*
X0199170Y0109241D01*
X0201670Y0106741D01*
X0206670Y0106741D01*
X0209170Y0109241D01*
X0211670Y0106741D01*
X0216670Y0106741D01*
X0219170Y0109241D01*
X0221670Y0106741D01*
X0226670Y0106741D01*
X0229170Y0109241D01*
X0231670Y0106741D01*
X0236670Y0106741D01*
X0239170Y0109241D01*
X0241670Y0106741D01*
X0246670Y0106741D01*
X0249170Y0109241D01*
X0251670Y0106741D01*
X0256670Y0106741D01*
X0259170Y0109241D01*
X0261670Y0106741D01*
X0266670Y0106741D01*
X0269170Y0109241D01*
X0269170Y0114241D01*
X0266670Y0116741D01*
X0318245Y0061048D02*
X0318245Y0056048D01*
X0315745Y0058548D02*
X0320745Y0058548D01*
X0318245Y0043048D02*
X0318245Y0042048D01*
X0323245Y0042048D01*
X0323245Y0039548D01*
X0313245Y0039548D01*
X0313245Y0042048D01*
X0318245Y0042048D01*
X0290745Y0038548D02*
X0290753Y0039223D01*
X0290778Y0039897D01*
X0290820Y0040571D01*
X0290877Y0041243D01*
X0290952Y0041914D01*
X0291043Y0042583D01*
X0291150Y0043249D01*
X0291273Y0043913D01*
X0291413Y0044573D01*
X0291569Y0045230D01*
X0291741Y0045883D01*
X0291929Y0046531D01*
X0292133Y0047174D01*
X0292353Y0047812D01*
X0292588Y0048445D01*
X0292838Y0049072D01*
X0293104Y0049692D01*
X0293385Y0050306D01*
X0293681Y0050912D01*
X0293992Y0051511D01*
X0294318Y0052103D01*
X0294657Y0052686D01*
X0295012Y0053260D01*
X0295380Y0053826D01*
X0295761Y0054383D01*
X0296157Y0054930D01*
X0296565Y0055467D01*
X0296987Y0055994D01*
X0297422Y0056510D01*
X0297869Y0057016D01*
X0298328Y0057510D01*
X0298800Y0057993D01*
X0299283Y0058465D01*
X0299777Y0058924D01*
X0300283Y0059371D01*
X0300799Y0059806D01*
X0301326Y0060228D01*
X0301863Y0060636D01*
X0302410Y0061032D01*
X0302967Y0061413D01*
X0303533Y0061781D01*
X0304107Y0062136D01*
X0304690Y0062475D01*
X0305282Y0062801D01*
X0305881Y0063112D01*
X0306487Y0063408D01*
X0307101Y0063689D01*
X0307721Y0063955D01*
X0308348Y0064205D01*
X0308981Y0064440D01*
X0309619Y0064660D01*
X0310262Y0064864D01*
X0310910Y0065052D01*
X0311563Y0065224D01*
X0312220Y0065380D01*
X0312880Y0065520D01*
X0313544Y0065643D01*
X0314210Y0065750D01*
X0314879Y0065841D01*
X0315550Y0065916D01*
X0316222Y0065973D01*
X0316896Y0066015D01*
X0317570Y0066040D01*
X0318245Y0066048D01*
X0318920Y0066040D01*
X0319594Y0066015D01*
X0320268Y0065973D01*
X0320940Y0065916D01*
X0321611Y0065841D01*
X0322280Y0065750D01*
X0322946Y0065643D01*
X0323610Y0065520D01*
X0324270Y0065380D01*
X0324927Y0065224D01*
X0325580Y0065052D01*
X0326228Y0064864D01*
X0326871Y0064660D01*
X0327509Y0064440D01*
X0328142Y0064205D01*
X0328769Y0063955D01*
X0329389Y0063689D01*
X0330003Y0063408D01*
X0330609Y0063112D01*
X0331208Y0062801D01*
X0331800Y0062475D01*
X0332383Y0062136D01*
X0332957Y0061781D01*
X0333523Y0061413D01*
X0334080Y0061032D01*
X0334627Y0060636D01*
X0335164Y0060228D01*
X0335691Y0059806D01*
X0336207Y0059371D01*
X0336713Y0058924D01*
X0337207Y0058465D01*
X0337690Y0057993D01*
X0338162Y0057510D01*
X0338621Y0057016D01*
X0339068Y0056510D01*
X0339503Y0055994D01*
X0339925Y0055467D01*
X0340333Y0054930D01*
X0340729Y0054383D01*
X0341110Y0053826D01*
X0341478Y0053260D01*
X0341833Y0052686D01*
X0342172Y0052103D01*
X0342498Y0051511D01*
X0342809Y0050912D01*
X0343105Y0050306D01*
X0343386Y0049692D01*
X0343652Y0049072D01*
X0343902Y0048445D01*
X0344137Y0047812D01*
X0344357Y0047174D01*
X0344561Y0046531D01*
X0344749Y0045883D01*
X0344921Y0045230D01*
X0345077Y0044573D01*
X0345217Y0043913D01*
X0345340Y0043249D01*
X0345447Y0042583D01*
X0345538Y0041914D01*
X0345613Y0041243D01*
X0345670Y0040571D01*
X0345712Y0039897D01*
X0345737Y0039223D01*
X0345745Y0038548D01*
X0345737Y0037873D01*
X0345712Y0037199D01*
X0345670Y0036525D01*
X0345613Y0035853D01*
X0345538Y0035182D01*
X0345447Y0034513D01*
X0345340Y0033847D01*
X0345217Y0033183D01*
X0345077Y0032523D01*
X0344921Y0031866D01*
X0344749Y0031213D01*
X0344561Y0030565D01*
X0344357Y0029922D01*
X0344137Y0029284D01*
X0343902Y0028651D01*
X0343652Y0028024D01*
X0343386Y0027404D01*
X0343105Y0026790D01*
X0342809Y0026184D01*
X0342498Y0025585D01*
X0342172Y0024993D01*
X0341833Y0024410D01*
X0341478Y0023836D01*
X0341110Y0023270D01*
X0340729Y0022713D01*
X0340333Y0022166D01*
X0339925Y0021629D01*
X0339503Y0021102D01*
X0339068Y0020586D01*
X0338621Y0020080D01*
X0338162Y0019586D01*
X0337690Y0019103D01*
X0337207Y0018631D01*
X0336713Y0018172D01*
X0336207Y0017725D01*
X0335691Y0017290D01*
X0335164Y0016868D01*
X0334627Y0016460D01*
X0334080Y0016064D01*
X0333523Y0015683D01*
X0332957Y0015315D01*
X0332383Y0014960D01*
X0331800Y0014621D01*
X0331208Y0014295D01*
X0330609Y0013984D01*
X0330003Y0013688D01*
X0329389Y0013407D01*
X0328769Y0013141D01*
X0328142Y0012891D01*
X0327509Y0012656D01*
X0326871Y0012436D01*
X0326228Y0012232D01*
X0325580Y0012044D01*
X0324927Y0011872D01*
X0324270Y0011716D01*
X0323610Y0011576D01*
X0322946Y0011453D01*
X0322280Y0011346D01*
X0321611Y0011255D01*
X0320940Y0011180D01*
X0320268Y0011123D01*
X0319594Y0011081D01*
X0318920Y0011056D01*
X0318245Y0011048D01*
X0317570Y0011056D01*
X0316896Y0011081D01*
X0316222Y0011123D01*
X0315550Y0011180D01*
X0314879Y0011255D01*
X0314210Y0011346D01*
X0313544Y0011453D01*
X0312880Y0011576D01*
X0312220Y0011716D01*
X0311563Y0011872D01*
X0310910Y0012044D01*
X0310262Y0012232D01*
X0309619Y0012436D01*
X0308981Y0012656D01*
X0308348Y0012891D01*
X0307721Y0013141D01*
X0307101Y0013407D01*
X0306487Y0013688D01*
X0305881Y0013984D01*
X0305282Y0014295D01*
X0304690Y0014621D01*
X0304107Y0014960D01*
X0303533Y0015315D01*
X0302967Y0015683D01*
X0302410Y0016064D01*
X0301863Y0016460D01*
X0301326Y0016868D01*
X0300799Y0017290D01*
X0300283Y0017725D01*
X0299777Y0018172D01*
X0299283Y0018631D01*
X0298800Y0019103D01*
X0298328Y0019586D01*
X0297869Y0020080D01*
X0297422Y0020586D01*
X0296987Y0021102D01*
X0296565Y0021629D01*
X0296157Y0022166D01*
X0295761Y0022713D01*
X0295380Y0023270D01*
X0295012Y0023836D01*
X0294657Y0024410D01*
X0294318Y0024993D01*
X0293992Y0025585D01*
X0293681Y0026184D01*
X0293385Y0026790D01*
X0293104Y0027404D01*
X0292838Y0028024D01*
X0292588Y0028651D01*
X0292353Y0029284D01*
X0292133Y0029922D01*
X0291929Y0030565D01*
X0291741Y0031213D01*
X0291569Y0031866D01*
X0291413Y0032523D01*
X0291273Y0033183D01*
X0291150Y0033847D01*
X0291043Y0034513D01*
X0290952Y0035182D01*
X0290877Y0035853D01*
X0290820Y0036525D01*
X0290778Y0037199D01*
X0290753Y0037873D01*
X0290745Y0038548D01*
X0318245Y0036048D02*
X0318245Y0034048D01*
X0247381Y0036702D02*
X0247381Y0010702D01*
X0247381Y0001300D01*
X0208081Y0001300D01*
X0208081Y0010702D01*
X0208081Y0036702D01*
X0208081Y0037501D01*
X0247381Y0037501D01*
X0247381Y0036702D01*
X0208081Y0036702D01*
X0197381Y0036702D02*
X0197381Y0010702D01*
X0197381Y0001300D01*
X0158081Y0001300D01*
X0158081Y0010702D01*
X0158081Y0036702D01*
X0158081Y0037501D01*
X0197381Y0037501D01*
X0197381Y0036702D01*
X0158081Y0036702D01*
X0165881Y0031500D02*
X0165883Y0031589D01*
X0165889Y0031678D01*
X0165899Y0031767D01*
X0165913Y0031855D01*
X0165930Y0031942D01*
X0165952Y0032028D01*
X0165978Y0032114D01*
X0166007Y0032198D01*
X0166040Y0032281D01*
X0166076Y0032362D01*
X0166117Y0032442D01*
X0166160Y0032519D01*
X0166207Y0032595D01*
X0166258Y0032668D01*
X0166311Y0032739D01*
X0166368Y0032808D01*
X0166428Y0032874D01*
X0166491Y0032938D01*
X0166556Y0032998D01*
X0166624Y0033056D01*
X0166695Y0033110D01*
X0166768Y0033161D01*
X0166843Y0033209D01*
X0166920Y0033254D01*
X0166999Y0033295D01*
X0167080Y0033332D01*
X0167162Y0033366D01*
X0167246Y0033397D01*
X0167331Y0033423D01*
X0167417Y0033446D01*
X0167504Y0033464D01*
X0167592Y0033479D01*
X0167681Y0033490D01*
X0167770Y0033497D01*
X0167859Y0033500D01*
X0167948Y0033499D01*
X0168037Y0033494D01*
X0168125Y0033485D01*
X0168214Y0033472D01*
X0168301Y0033455D01*
X0168388Y0033435D01*
X0168474Y0033410D01*
X0168558Y0033382D01*
X0168641Y0033350D01*
X0168723Y0033314D01*
X0168803Y0033275D01*
X0168881Y0033232D01*
X0168957Y0033186D01*
X0169031Y0033136D01*
X0169103Y0033083D01*
X0169172Y0033027D01*
X0169239Y0032968D01*
X0169303Y0032906D01*
X0169364Y0032842D01*
X0169423Y0032774D01*
X0169478Y0032704D01*
X0169530Y0032632D01*
X0169579Y0032557D01*
X0169624Y0032481D01*
X0169666Y0032402D01*
X0169704Y0032322D01*
X0169739Y0032240D01*
X0169770Y0032156D01*
X0169798Y0032071D01*
X0169821Y0031985D01*
X0169841Y0031898D01*
X0169857Y0031811D01*
X0169869Y0031722D01*
X0169877Y0031634D01*
X0169881Y0031545D01*
X0169881Y0031455D01*
X0169877Y0031366D01*
X0169869Y0031278D01*
X0169857Y0031189D01*
X0169841Y0031102D01*
X0169821Y0031015D01*
X0169798Y0030929D01*
X0169770Y0030844D01*
X0169739Y0030760D01*
X0169704Y0030678D01*
X0169666Y0030598D01*
X0169624Y0030519D01*
X0169579Y0030443D01*
X0169530Y0030368D01*
X0169478Y0030296D01*
X0169423Y0030226D01*
X0169364Y0030158D01*
X0169303Y0030094D01*
X0169239Y0030032D01*
X0169172Y0029973D01*
X0169103Y0029917D01*
X0169031Y0029864D01*
X0168957Y0029814D01*
X0168881Y0029768D01*
X0168803Y0029725D01*
X0168723Y0029686D01*
X0168641Y0029650D01*
X0168558Y0029618D01*
X0168474Y0029590D01*
X0168388Y0029565D01*
X0168301Y0029545D01*
X0168214Y0029528D01*
X0168125Y0029515D01*
X0168037Y0029506D01*
X0167948Y0029501D01*
X0167859Y0029500D01*
X0167770Y0029503D01*
X0167681Y0029510D01*
X0167592Y0029521D01*
X0167504Y0029536D01*
X0167417Y0029554D01*
X0167331Y0029577D01*
X0167246Y0029603D01*
X0167162Y0029634D01*
X0167080Y0029668D01*
X0166999Y0029705D01*
X0166920Y0029746D01*
X0166843Y0029791D01*
X0166768Y0029839D01*
X0166695Y0029890D01*
X0166624Y0029944D01*
X0166556Y0030002D01*
X0166491Y0030062D01*
X0166428Y0030126D01*
X0166368Y0030192D01*
X0166311Y0030261D01*
X0166258Y0030332D01*
X0166207Y0030405D01*
X0166160Y0030481D01*
X0166117Y0030558D01*
X0166076Y0030638D01*
X0166040Y0030719D01*
X0166007Y0030802D01*
X0165978Y0030886D01*
X0165952Y0030972D01*
X0165930Y0031058D01*
X0165913Y0031145D01*
X0165899Y0031233D01*
X0165889Y0031322D01*
X0165883Y0031411D01*
X0165881Y0031500D01*
X0164381Y0010702D02*
X0158081Y0010702D01*
X0171381Y0010702D02*
X0184081Y0010702D01*
X0191081Y0010702D02*
X0197381Y0010702D01*
X0208081Y0010702D02*
X0214381Y0010702D01*
X0221381Y0010702D02*
X0234081Y0010702D01*
X0241081Y0010702D02*
X0247381Y0010702D01*
X0235581Y0031500D02*
X0235583Y0031589D01*
X0235589Y0031678D01*
X0235599Y0031767D01*
X0235613Y0031855D01*
X0235630Y0031942D01*
X0235652Y0032028D01*
X0235678Y0032114D01*
X0235707Y0032198D01*
X0235740Y0032281D01*
X0235776Y0032362D01*
X0235817Y0032442D01*
X0235860Y0032519D01*
X0235907Y0032595D01*
X0235958Y0032668D01*
X0236011Y0032739D01*
X0236068Y0032808D01*
X0236128Y0032874D01*
X0236191Y0032938D01*
X0236256Y0032998D01*
X0236324Y0033056D01*
X0236395Y0033110D01*
X0236468Y0033161D01*
X0236543Y0033209D01*
X0236620Y0033254D01*
X0236699Y0033295D01*
X0236780Y0033332D01*
X0236862Y0033366D01*
X0236946Y0033397D01*
X0237031Y0033423D01*
X0237117Y0033446D01*
X0237204Y0033464D01*
X0237292Y0033479D01*
X0237381Y0033490D01*
X0237470Y0033497D01*
X0237559Y0033500D01*
X0237648Y0033499D01*
X0237737Y0033494D01*
X0237825Y0033485D01*
X0237914Y0033472D01*
X0238001Y0033455D01*
X0238088Y0033435D01*
X0238174Y0033410D01*
X0238258Y0033382D01*
X0238341Y0033350D01*
X0238423Y0033314D01*
X0238503Y0033275D01*
X0238581Y0033232D01*
X0238657Y0033186D01*
X0238731Y0033136D01*
X0238803Y0033083D01*
X0238872Y0033027D01*
X0238939Y0032968D01*
X0239003Y0032906D01*
X0239064Y0032842D01*
X0239123Y0032774D01*
X0239178Y0032704D01*
X0239230Y0032632D01*
X0239279Y0032557D01*
X0239324Y0032481D01*
X0239366Y0032402D01*
X0239404Y0032322D01*
X0239439Y0032240D01*
X0239470Y0032156D01*
X0239498Y0032071D01*
X0239521Y0031985D01*
X0239541Y0031898D01*
X0239557Y0031811D01*
X0239569Y0031722D01*
X0239577Y0031634D01*
X0239581Y0031545D01*
X0239581Y0031455D01*
X0239577Y0031366D01*
X0239569Y0031278D01*
X0239557Y0031189D01*
X0239541Y0031102D01*
X0239521Y0031015D01*
X0239498Y0030929D01*
X0239470Y0030844D01*
X0239439Y0030760D01*
X0239404Y0030678D01*
X0239366Y0030598D01*
X0239324Y0030519D01*
X0239279Y0030443D01*
X0239230Y0030368D01*
X0239178Y0030296D01*
X0239123Y0030226D01*
X0239064Y0030158D01*
X0239003Y0030094D01*
X0238939Y0030032D01*
X0238872Y0029973D01*
X0238803Y0029917D01*
X0238731Y0029864D01*
X0238657Y0029814D01*
X0238581Y0029768D01*
X0238503Y0029725D01*
X0238423Y0029686D01*
X0238341Y0029650D01*
X0238258Y0029618D01*
X0238174Y0029590D01*
X0238088Y0029565D01*
X0238001Y0029545D01*
X0237914Y0029528D01*
X0237825Y0029515D01*
X0237737Y0029506D01*
X0237648Y0029501D01*
X0237559Y0029500D01*
X0237470Y0029503D01*
X0237381Y0029510D01*
X0237292Y0029521D01*
X0237204Y0029536D01*
X0237117Y0029554D01*
X0237031Y0029577D01*
X0236946Y0029603D01*
X0236862Y0029634D01*
X0236780Y0029668D01*
X0236699Y0029705D01*
X0236620Y0029746D01*
X0236543Y0029791D01*
X0236468Y0029839D01*
X0236395Y0029890D01*
X0236324Y0029944D01*
X0236256Y0030002D01*
X0236191Y0030062D01*
X0236128Y0030126D01*
X0236068Y0030192D01*
X0236011Y0030261D01*
X0235958Y0030332D01*
X0235907Y0030405D01*
X0235860Y0030481D01*
X0235817Y0030558D01*
X0235776Y0030638D01*
X0235740Y0030719D01*
X0235707Y0030802D01*
X0235678Y0030886D01*
X0235652Y0030972D01*
X0235630Y0031058D01*
X0235613Y0031145D01*
X0235599Y0031233D01*
X0235589Y0031322D01*
X0235583Y0031411D01*
X0235581Y0031500D01*
X0215881Y0031500D02*
X0215883Y0031589D01*
X0215889Y0031678D01*
X0215899Y0031767D01*
X0215913Y0031855D01*
X0215930Y0031942D01*
X0215952Y0032028D01*
X0215978Y0032114D01*
X0216007Y0032198D01*
X0216040Y0032281D01*
X0216076Y0032362D01*
X0216117Y0032442D01*
X0216160Y0032519D01*
X0216207Y0032595D01*
X0216258Y0032668D01*
X0216311Y0032739D01*
X0216368Y0032808D01*
X0216428Y0032874D01*
X0216491Y0032938D01*
X0216556Y0032998D01*
X0216624Y0033056D01*
X0216695Y0033110D01*
X0216768Y0033161D01*
X0216843Y0033209D01*
X0216920Y0033254D01*
X0216999Y0033295D01*
X0217080Y0033332D01*
X0217162Y0033366D01*
X0217246Y0033397D01*
X0217331Y0033423D01*
X0217417Y0033446D01*
X0217504Y0033464D01*
X0217592Y0033479D01*
X0217681Y0033490D01*
X0217770Y0033497D01*
X0217859Y0033500D01*
X0217948Y0033499D01*
X0218037Y0033494D01*
X0218125Y0033485D01*
X0218214Y0033472D01*
X0218301Y0033455D01*
X0218388Y0033435D01*
X0218474Y0033410D01*
X0218558Y0033382D01*
X0218641Y0033350D01*
X0218723Y0033314D01*
X0218803Y0033275D01*
X0218881Y0033232D01*
X0218957Y0033186D01*
X0219031Y0033136D01*
X0219103Y0033083D01*
X0219172Y0033027D01*
X0219239Y0032968D01*
X0219303Y0032906D01*
X0219364Y0032842D01*
X0219423Y0032774D01*
X0219478Y0032704D01*
X0219530Y0032632D01*
X0219579Y0032557D01*
X0219624Y0032481D01*
X0219666Y0032402D01*
X0219704Y0032322D01*
X0219739Y0032240D01*
X0219770Y0032156D01*
X0219798Y0032071D01*
X0219821Y0031985D01*
X0219841Y0031898D01*
X0219857Y0031811D01*
X0219869Y0031722D01*
X0219877Y0031634D01*
X0219881Y0031545D01*
X0219881Y0031455D01*
X0219877Y0031366D01*
X0219869Y0031278D01*
X0219857Y0031189D01*
X0219841Y0031102D01*
X0219821Y0031015D01*
X0219798Y0030929D01*
X0219770Y0030844D01*
X0219739Y0030760D01*
X0219704Y0030678D01*
X0219666Y0030598D01*
X0219624Y0030519D01*
X0219579Y0030443D01*
X0219530Y0030368D01*
X0219478Y0030296D01*
X0219423Y0030226D01*
X0219364Y0030158D01*
X0219303Y0030094D01*
X0219239Y0030032D01*
X0219172Y0029973D01*
X0219103Y0029917D01*
X0219031Y0029864D01*
X0218957Y0029814D01*
X0218881Y0029768D01*
X0218803Y0029725D01*
X0218723Y0029686D01*
X0218641Y0029650D01*
X0218558Y0029618D01*
X0218474Y0029590D01*
X0218388Y0029565D01*
X0218301Y0029545D01*
X0218214Y0029528D01*
X0218125Y0029515D01*
X0218037Y0029506D01*
X0217948Y0029501D01*
X0217859Y0029500D01*
X0217770Y0029503D01*
X0217681Y0029510D01*
X0217592Y0029521D01*
X0217504Y0029536D01*
X0217417Y0029554D01*
X0217331Y0029577D01*
X0217246Y0029603D01*
X0217162Y0029634D01*
X0217080Y0029668D01*
X0216999Y0029705D01*
X0216920Y0029746D01*
X0216843Y0029791D01*
X0216768Y0029839D01*
X0216695Y0029890D01*
X0216624Y0029944D01*
X0216556Y0030002D01*
X0216491Y0030062D01*
X0216428Y0030126D01*
X0216368Y0030192D01*
X0216311Y0030261D01*
X0216258Y0030332D01*
X0216207Y0030405D01*
X0216160Y0030481D01*
X0216117Y0030558D01*
X0216076Y0030638D01*
X0216040Y0030719D01*
X0216007Y0030802D01*
X0215978Y0030886D01*
X0215952Y0030972D01*
X0215930Y0031058D01*
X0215913Y0031145D01*
X0215899Y0031233D01*
X0215889Y0031322D01*
X0215883Y0031411D01*
X0215881Y0031500D01*
X0185581Y0031500D02*
X0185583Y0031589D01*
X0185589Y0031678D01*
X0185599Y0031767D01*
X0185613Y0031855D01*
X0185630Y0031942D01*
X0185652Y0032028D01*
X0185678Y0032114D01*
X0185707Y0032198D01*
X0185740Y0032281D01*
X0185776Y0032362D01*
X0185817Y0032442D01*
X0185860Y0032519D01*
X0185907Y0032595D01*
X0185958Y0032668D01*
X0186011Y0032739D01*
X0186068Y0032808D01*
X0186128Y0032874D01*
X0186191Y0032938D01*
X0186256Y0032998D01*
X0186324Y0033056D01*
X0186395Y0033110D01*
X0186468Y0033161D01*
X0186543Y0033209D01*
X0186620Y0033254D01*
X0186699Y0033295D01*
X0186780Y0033332D01*
X0186862Y0033366D01*
X0186946Y0033397D01*
X0187031Y0033423D01*
X0187117Y0033446D01*
X0187204Y0033464D01*
X0187292Y0033479D01*
X0187381Y0033490D01*
X0187470Y0033497D01*
X0187559Y0033500D01*
X0187648Y0033499D01*
X0187737Y0033494D01*
X0187825Y0033485D01*
X0187914Y0033472D01*
X0188001Y0033455D01*
X0188088Y0033435D01*
X0188174Y0033410D01*
X0188258Y0033382D01*
X0188341Y0033350D01*
X0188423Y0033314D01*
X0188503Y0033275D01*
X0188581Y0033232D01*
X0188657Y0033186D01*
X0188731Y0033136D01*
X0188803Y0033083D01*
X0188872Y0033027D01*
X0188939Y0032968D01*
X0189003Y0032906D01*
X0189064Y0032842D01*
X0189123Y0032774D01*
X0189178Y0032704D01*
X0189230Y0032632D01*
X0189279Y0032557D01*
X0189324Y0032481D01*
X0189366Y0032402D01*
X0189404Y0032322D01*
X0189439Y0032240D01*
X0189470Y0032156D01*
X0189498Y0032071D01*
X0189521Y0031985D01*
X0189541Y0031898D01*
X0189557Y0031811D01*
X0189569Y0031722D01*
X0189577Y0031634D01*
X0189581Y0031545D01*
X0189581Y0031455D01*
X0189577Y0031366D01*
X0189569Y0031278D01*
X0189557Y0031189D01*
X0189541Y0031102D01*
X0189521Y0031015D01*
X0189498Y0030929D01*
X0189470Y0030844D01*
X0189439Y0030760D01*
X0189404Y0030678D01*
X0189366Y0030598D01*
X0189324Y0030519D01*
X0189279Y0030443D01*
X0189230Y0030368D01*
X0189178Y0030296D01*
X0189123Y0030226D01*
X0189064Y0030158D01*
X0189003Y0030094D01*
X0188939Y0030032D01*
X0188872Y0029973D01*
X0188803Y0029917D01*
X0188731Y0029864D01*
X0188657Y0029814D01*
X0188581Y0029768D01*
X0188503Y0029725D01*
X0188423Y0029686D01*
X0188341Y0029650D01*
X0188258Y0029618D01*
X0188174Y0029590D01*
X0188088Y0029565D01*
X0188001Y0029545D01*
X0187914Y0029528D01*
X0187825Y0029515D01*
X0187737Y0029506D01*
X0187648Y0029501D01*
X0187559Y0029500D01*
X0187470Y0029503D01*
X0187381Y0029510D01*
X0187292Y0029521D01*
X0187204Y0029536D01*
X0187117Y0029554D01*
X0187031Y0029577D01*
X0186946Y0029603D01*
X0186862Y0029634D01*
X0186780Y0029668D01*
X0186699Y0029705D01*
X0186620Y0029746D01*
X0186543Y0029791D01*
X0186468Y0029839D01*
X0186395Y0029890D01*
X0186324Y0029944D01*
X0186256Y0030002D01*
X0186191Y0030062D01*
X0186128Y0030126D01*
X0186068Y0030192D01*
X0186011Y0030261D01*
X0185958Y0030332D01*
X0185907Y0030405D01*
X0185860Y0030481D01*
X0185817Y0030558D01*
X0185776Y0030638D01*
X0185740Y0030719D01*
X0185707Y0030802D01*
X0185678Y0030886D01*
X0185652Y0030972D01*
X0185630Y0031058D01*
X0185613Y0031145D01*
X0185599Y0031233D01*
X0185589Y0031322D01*
X0185583Y0031411D01*
X0185581Y0031500D01*
X0096800Y0039481D02*
X0096800Y0041981D01*
X0091800Y0041981D01*
X0086800Y0041981D01*
X0086800Y0039481D01*
X0096800Y0039481D01*
X0064300Y0038481D02*
X0064308Y0039156D01*
X0064333Y0039830D01*
X0064375Y0040504D01*
X0064432Y0041176D01*
X0064507Y0041847D01*
X0064598Y0042516D01*
X0064705Y0043182D01*
X0064828Y0043846D01*
X0064968Y0044506D01*
X0065124Y0045163D01*
X0065296Y0045816D01*
X0065484Y0046464D01*
X0065688Y0047107D01*
X0065908Y0047745D01*
X0066143Y0048378D01*
X0066393Y0049005D01*
X0066659Y0049625D01*
X0066940Y0050239D01*
X0067236Y0050845D01*
X0067547Y0051444D01*
X0067873Y0052036D01*
X0068212Y0052619D01*
X0068567Y0053193D01*
X0068935Y0053759D01*
X0069316Y0054316D01*
X0069712Y0054863D01*
X0070120Y0055400D01*
X0070542Y0055927D01*
X0070977Y0056443D01*
X0071424Y0056949D01*
X0071883Y0057443D01*
X0072355Y0057926D01*
X0072838Y0058398D01*
X0073332Y0058857D01*
X0073838Y0059304D01*
X0074354Y0059739D01*
X0074881Y0060161D01*
X0075418Y0060569D01*
X0075965Y0060965D01*
X0076522Y0061346D01*
X0077088Y0061714D01*
X0077662Y0062069D01*
X0078245Y0062408D01*
X0078837Y0062734D01*
X0079436Y0063045D01*
X0080042Y0063341D01*
X0080656Y0063622D01*
X0081276Y0063888D01*
X0081903Y0064138D01*
X0082536Y0064373D01*
X0083174Y0064593D01*
X0083817Y0064797D01*
X0084465Y0064985D01*
X0085118Y0065157D01*
X0085775Y0065313D01*
X0086435Y0065453D01*
X0087099Y0065576D01*
X0087765Y0065683D01*
X0088434Y0065774D01*
X0089105Y0065849D01*
X0089777Y0065906D01*
X0090451Y0065948D01*
X0091125Y0065973D01*
X0091800Y0065981D01*
X0092475Y0065973D01*
X0093149Y0065948D01*
X0093823Y0065906D01*
X0094495Y0065849D01*
X0095166Y0065774D01*
X0095835Y0065683D01*
X0096501Y0065576D01*
X0097165Y0065453D01*
X0097825Y0065313D01*
X0098482Y0065157D01*
X0099135Y0064985D01*
X0099783Y0064797D01*
X0100426Y0064593D01*
X0101064Y0064373D01*
X0101697Y0064138D01*
X0102324Y0063888D01*
X0102944Y0063622D01*
X0103558Y0063341D01*
X0104164Y0063045D01*
X0104763Y0062734D01*
X0105355Y0062408D01*
X0105938Y0062069D01*
X0106512Y0061714D01*
X0107078Y0061346D01*
X0107635Y0060965D01*
X0108182Y0060569D01*
X0108719Y0060161D01*
X0109246Y0059739D01*
X0109762Y0059304D01*
X0110268Y0058857D01*
X0110762Y0058398D01*
X0111245Y0057926D01*
X0111717Y0057443D01*
X0112176Y0056949D01*
X0112623Y0056443D01*
X0113058Y0055927D01*
X0113480Y0055400D01*
X0113888Y0054863D01*
X0114284Y0054316D01*
X0114665Y0053759D01*
X0115033Y0053193D01*
X0115388Y0052619D01*
X0115727Y0052036D01*
X0116053Y0051444D01*
X0116364Y0050845D01*
X0116660Y0050239D01*
X0116941Y0049625D01*
X0117207Y0049005D01*
X0117457Y0048378D01*
X0117692Y0047745D01*
X0117912Y0047107D01*
X0118116Y0046464D01*
X0118304Y0045816D01*
X0118476Y0045163D01*
X0118632Y0044506D01*
X0118772Y0043846D01*
X0118895Y0043182D01*
X0119002Y0042516D01*
X0119093Y0041847D01*
X0119168Y0041176D01*
X0119225Y0040504D01*
X0119267Y0039830D01*
X0119292Y0039156D01*
X0119300Y0038481D01*
X0119292Y0037806D01*
X0119267Y0037132D01*
X0119225Y0036458D01*
X0119168Y0035786D01*
X0119093Y0035115D01*
X0119002Y0034446D01*
X0118895Y0033780D01*
X0118772Y0033116D01*
X0118632Y0032456D01*
X0118476Y0031799D01*
X0118304Y0031146D01*
X0118116Y0030498D01*
X0117912Y0029855D01*
X0117692Y0029217D01*
X0117457Y0028584D01*
X0117207Y0027957D01*
X0116941Y0027337D01*
X0116660Y0026723D01*
X0116364Y0026117D01*
X0116053Y0025518D01*
X0115727Y0024926D01*
X0115388Y0024343D01*
X0115033Y0023769D01*
X0114665Y0023203D01*
X0114284Y0022646D01*
X0113888Y0022099D01*
X0113480Y0021562D01*
X0113058Y0021035D01*
X0112623Y0020519D01*
X0112176Y0020013D01*
X0111717Y0019519D01*
X0111245Y0019036D01*
X0110762Y0018564D01*
X0110268Y0018105D01*
X0109762Y0017658D01*
X0109246Y0017223D01*
X0108719Y0016801D01*
X0108182Y0016393D01*
X0107635Y0015997D01*
X0107078Y0015616D01*
X0106512Y0015248D01*
X0105938Y0014893D01*
X0105355Y0014554D01*
X0104763Y0014228D01*
X0104164Y0013917D01*
X0103558Y0013621D01*
X0102944Y0013340D01*
X0102324Y0013074D01*
X0101697Y0012824D01*
X0101064Y0012589D01*
X0100426Y0012369D01*
X0099783Y0012165D01*
X0099135Y0011977D01*
X0098482Y0011805D01*
X0097825Y0011649D01*
X0097165Y0011509D01*
X0096501Y0011386D01*
X0095835Y0011279D01*
X0095166Y0011188D01*
X0094495Y0011113D01*
X0093823Y0011056D01*
X0093149Y0011014D01*
X0092475Y0010989D01*
X0091800Y0010981D01*
X0091125Y0010989D01*
X0090451Y0011014D01*
X0089777Y0011056D01*
X0089105Y0011113D01*
X0088434Y0011188D01*
X0087765Y0011279D01*
X0087099Y0011386D01*
X0086435Y0011509D01*
X0085775Y0011649D01*
X0085118Y0011805D01*
X0084465Y0011977D01*
X0083817Y0012165D01*
X0083174Y0012369D01*
X0082536Y0012589D01*
X0081903Y0012824D01*
X0081276Y0013074D01*
X0080656Y0013340D01*
X0080042Y0013621D01*
X0079436Y0013917D01*
X0078837Y0014228D01*
X0078245Y0014554D01*
X0077662Y0014893D01*
X0077088Y0015248D01*
X0076522Y0015616D01*
X0075965Y0015997D01*
X0075418Y0016393D01*
X0074881Y0016801D01*
X0074354Y0017223D01*
X0073838Y0017658D01*
X0073332Y0018105D01*
X0072838Y0018564D01*
X0072355Y0019036D01*
X0071883Y0019519D01*
X0071424Y0020013D01*
X0070977Y0020519D01*
X0070542Y0021035D01*
X0070120Y0021562D01*
X0069712Y0022099D01*
X0069316Y0022646D01*
X0068935Y0023203D01*
X0068567Y0023769D01*
X0068212Y0024343D01*
X0067873Y0024926D01*
X0067547Y0025518D01*
X0067236Y0026117D01*
X0066940Y0026723D01*
X0066659Y0027337D01*
X0066393Y0027957D01*
X0066143Y0028584D01*
X0065908Y0029217D01*
X0065688Y0029855D01*
X0065484Y0030498D01*
X0065296Y0031146D01*
X0065124Y0031799D01*
X0064968Y0032456D01*
X0064828Y0033116D01*
X0064705Y0033780D01*
X0064598Y0034446D01*
X0064507Y0035115D01*
X0064432Y0035786D01*
X0064375Y0036458D01*
X0064333Y0037132D01*
X0064308Y0037806D01*
X0064300Y0038481D01*
X0091800Y0035981D02*
X0091800Y0033981D01*
X0091800Y0041981D02*
X0091800Y0042981D01*
X0091800Y0055981D02*
X0091800Y0060981D01*
X0089300Y0058481D02*
X0094300Y0058481D01*
X0006611Y0162961D02*
X0006614Y0163206D01*
X0006623Y0163452D01*
X0006638Y0163697D01*
X0006659Y0163941D01*
X0006686Y0164185D01*
X0006719Y0164428D01*
X0006758Y0164671D01*
X0006803Y0164912D01*
X0006854Y0165152D01*
X0006911Y0165391D01*
X0006973Y0165628D01*
X0007042Y0165864D01*
X0007116Y0166098D01*
X0007196Y0166330D01*
X0007281Y0166560D01*
X0007372Y0166788D01*
X0007469Y0167013D01*
X0007571Y0167237D01*
X0007679Y0167457D01*
X0007792Y0167675D01*
X0007910Y0167890D01*
X0008034Y0168102D01*
X0008162Y0168311D01*
X0008296Y0168517D01*
X0008435Y0168719D01*
X0008579Y0168918D01*
X0008728Y0169113D01*
X0008881Y0169305D01*
X0009039Y0169493D01*
X0009201Y0169677D01*
X0009369Y0169856D01*
X0009540Y0170032D01*
X0009716Y0170203D01*
X0009895Y0170371D01*
X0010079Y0170533D01*
X0010267Y0170691D01*
X0010459Y0170844D01*
X0010654Y0170993D01*
X0010853Y0171137D01*
X0011055Y0171276D01*
X0011261Y0171410D01*
X0011470Y0171538D01*
X0011682Y0171662D01*
X0011897Y0171780D01*
X0012115Y0171893D01*
X0012335Y0172001D01*
X0012559Y0172103D01*
X0012784Y0172200D01*
X0013012Y0172291D01*
X0013242Y0172376D01*
X0013474Y0172456D01*
X0013708Y0172530D01*
X0013944Y0172599D01*
X0014181Y0172661D01*
X0014420Y0172718D01*
X0014660Y0172769D01*
X0014901Y0172814D01*
X0015144Y0172853D01*
X0015387Y0172886D01*
X0015631Y0172913D01*
X0015875Y0172934D01*
X0016120Y0172949D01*
X0016366Y0172958D01*
X0016611Y0172961D01*
X0016856Y0172958D01*
X0017102Y0172949D01*
X0017347Y0172934D01*
X0017591Y0172913D01*
X0017835Y0172886D01*
X0018078Y0172853D01*
X0018321Y0172814D01*
X0018562Y0172769D01*
X0018802Y0172718D01*
X0019041Y0172661D01*
X0019278Y0172599D01*
X0019514Y0172530D01*
X0019748Y0172456D01*
X0019980Y0172376D01*
X0020210Y0172291D01*
X0020438Y0172200D01*
X0020663Y0172103D01*
X0020887Y0172001D01*
X0021107Y0171893D01*
X0021325Y0171780D01*
X0021540Y0171662D01*
X0021752Y0171538D01*
X0021961Y0171410D01*
X0022167Y0171276D01*
X0022369Y0171137D01*
X0022568Y0170993D01*
X0022763Y0170844D01*
X0022955Y0170691D01*
X0023143Y0170533D01*
X0023327Y0170371D01*
X0023506Y0170203D01*
X0023682Y0170032D01*
X0023853Y0169856D01*
X0024021Y0169677D01*
X0024183Y0169493D01*
X0024341Y0169305D01*
X0024494Y0169113D01*
X0024643Y0168918D01*
X0024787Y0168719D01*
X0024926Y0168517D01*
X0025060Y0168311D01*
X0025188Y0168102D01*
X0025312Y0167890D01*
X0025430Y0167675D01*
X0025543Y0167457D01*
X0025651Y0167237D01*
X0025753Y0167013D01*
X0025850Y0166788D01*
X0025941Y0166560D01*
X0026026Y0166330D01*
X0026106Y0166098D01*
X0026180Y0165864D01*
X0026249Y0165628D01*
X0026311Y0165391D01*
X0026368Y0165152D01*
X0026419Y0164912D01*
X0026464Y0164671D01*
X0026503Y0164428D01*
X0026536Y0164185D01*
X0026563Y0163941D01*
X0026584Y0163697D01*
X0026599Y0163452D01*
X0026608Y0163206D01*
X0026611Y0162961D01*
X0026608Y0162716D01*
X0026599Y0162470D01*
X0026584Y0162225D01*
X0026563Y0161981D01*
X0026536Y0161737D01*
X0026503Y0161494D01*
X0026464Y0161251D01*
X0026419Y0161010D01*
X0026368Y0160770D01*
X0026311Y0160531D01*
X0026249Y0160294D01*
X0026180Y0160058D01*
X0026106Y0159824D01*
X0026026Y0159592D01*
X0025941Y0159362D01*
X0025850Y0159134D01*
X0025753Y0158909D01*
X0025651Y0158685D01*
X0025543Y0158465D01*
X0025430Y0158247D01*
X0025312Y0158032D01*
X0025188Y0157820D01*
X0025060Y0157611D01*
X0024926Y0157405D01*
X0024787Y0157203D01*
X0024643Y0157004D01*
X0024494Y0156809D01*
X0024341Y0156617D01*
X0024183Y0156429D01*
X0024021Y0156245D01*
X0023853Y0156066D01*
X0023682Y0155890D01*
X0023506Y0155719D01*
X0023327Y0155551D01*
X0023143Y0155389D01*
X0022955Y0155231D01*
X0022763Y0155078D01*
X0022568Y0154929D01*
X0022369Y0154785D01*
X0022167Y0154646D01*
X0021961Y0154512D01*
X0021752Y0154384D01*
X0021540Y0154260D01*
X0021325Y0154142D01*
X0021107Y0154029D01*
X0020887Y0153921D01*
X0020663Y0153819D01*
X0020438Y0153722D01*
X0020210Y0153631D01*
X0019980Y0153546D01*
X0019748Y0153466D01*
X0019514Y0153392D01*
X0019278Y0153323D01*
X0019041Y0153261D01*
X0018802Y0153204D01*
X0018562Y0153153D01*
X0018321Y0153108D01*
X0018078Y0153069D01*
X0017835Y0153036D01*
X0017591Y0153009D01*
X0017347Y0152988D01*
X0017102Y0152973D01*
X0016856Y0152964D01*
X0016611Y0152961D01*
X0016366Y0152964D01*
X0016120Y0152973D01*
X0015875Y0152988D01*
X0015631Y0153009D01*
X0015387Y0153036D01*
X0015144Y0153069D01*
X0014901Y0153108D01*
X0014660Y0153153D01*
X0014420Y0153204D01*
X0014181Y0153261D01*
X0013944Y0153323D01*
X0013708Y0153392D01*
X0013474Y0153466D01*
X0013242Y0153546D01*
X0013012Y0153631D01*
X0012784Y0153722D01*
X0012559Y0153819D01*
X0012335Y0153921D01*
X0012115Y0154029D01*
X0011897Y0154142D01*
X0011682Y0154260D01*
X0011470Y0154384D01*
X0011261Y0154512D01*
X0011055Y0154646D01*
X0010853Y0154785D01*
X0010654Y0154929D01*
X0010459Y0155078D01*
X0010267Y0155231D01*
X0010079Y0155389D01*
X0009895Y0155551D01*
X0009716Y0155719D01*
X0009540Y0155890D01*
X0009369Y0156066D01*
X0009201Y0156245D01*
X0009039Y0156429D01*
X0008881Y0156617D01*
X0008728Y0156809D01*
X0008579Y0157004D01*
X0008435Y0157203D01*
X0008296Y0157405D01*
X0008162Y0157611D01*
X0008034Y0157820D01*
X0007910Y0158032D01*
X0007792Y0158247D01*
X0007679Y0158465D01*
X0007571Y0158685D01*
X0007469Y0158909D01*
X0007372Y0159134D01*
X0007281Y0159362D01*
X0007196Y0159592D01*
X0007116Y0159824D01*
X0007042Y0160058D01*
X0006973Y0160294D01*
X0006911Y0160531D01*
X0006854Y0160770D01*
X0006803Y0161010D01*
X0006758Y0161251D01*
X0006719Y0161494D01*
X0006686Y0161737D01*
X0006659Y0161981D01*
X0006638Y0162225D01*
X0006623Y0162470D01*
X0006614Y0162716D01*
X0006611Y0162961D01*
X0020611Y0168461D02*
X0021611Y0168461D01*
X0022611Y0168461D01*
X0021611Y0168461D02*
X0021611Y0167461D01*
X0021611Y0168461D02*
X0021611Y0169461D01*
X0080600Y0215348D02*
X0080600Y0216416D01*
X0081668Y0217483D01*
X0083803Y0217483D01*
X0084870Y0216416D01*
X0084870Y0215348D01*
X0083803Y0214281D01*
X0081668Y0214281D01*
X0080600Y0215348D01*
X0081668Y0217483D02*
X0080600Y0218551D01*
X0080600Y0219619D01*
X0081668Y0220686D01*
X0083803Y0220686D01*
X0084870Y0219619D01*
X0084870Y0218551D01*
X0083803Y0217483D01*
X0087045Y0215348D02*
X0088113Y0215348D01*
X0088113Y0214281D01*
X0087045Y0214281D01*
X0087045Y0215348D01*
X0090268Y0217483D02*
X0094539Y0217483D01*
X0096714Y0218551D02*
X0098849Y0214281D01*
X0100984Y0218551D01*
X0093471Y0220686D02*
X0093471Y0214281D01*
X0090268Y0217483D02*
X0093471Y0220686D01*
X0030753Y0234481D02*
X0029174Y0234481D01*
X0028548Y0228981D02*
X0012052Y0228981D01*
X0011426Y0234481D02*
X0009847Y0234481D01*
X0019174Y0234481D02*
X0021426Y0234481D01*
X0028548Y0228981D02*
X0028703Y0229183D01*
X0028853Y0229388D01*
X0028999Y0229597D01*
X0029139Y0229810D01*
X0029273Y0230025D01*
X0029403Y0230245D01*
X0029527Y0230467D01*
X0029646Y0230692D01*
X0029759Y0230920D01*
X0029867Y0231150D01*
X0029969Y0231383D01*
X0030066Y0231619D01*
X0030157Y0231856D01*
X0030242Y0232096D01*
X0030321Y0232338D01*
X0030394Y0232582D01*
X0030461Y0232827D01*
X0030522Y0233074D01*
X0030578Y0233323D01*
X0030627Y0233572D01*
X0030670Y0233823D01*
X0030707Y0234075D01*
X0030738Y0234328D01*
X0030763Y0234581D01*
X0030782Y0234835D01*
X0030795Y0235089D01*
X0030801Y0235343D01*
X0030801Y0235598D01*
X0030795Y0235852D01*
X0030783Y0236106D01*
X0030765Y0236360D01*
X0030741Y0236614D01*
X0030710Y0236866D01*
X0030674Y0237118D01*
X0030631Y0237369D01*
X0030582Y0237619D01*
X0030527Y0237867D01*
X0030466Y0238114D01*
X0030400Y0238360D01*
X0030327Y0238604D01*
X0030248Y0238846D01*
X0030164Y0239086D01*
X0030074Y0239324D01*
X0029978Y0239559D01*
X0029876Y0239793D01*
X0029769Y0240024D01*
X0029656Y0240252D01*
X0029537Y0240477D01*
X0029414Y0240699D01*
X0029284Y0240919D01*
X0029150Y0241135D01*
X0029010Y0241347D01*
X0028866Y0241557D01*
X0028716Y0241762D01*
X0028561Y0241965D01*
X0028402Y0242163D01*
X0028237Y0242357D01*
X0028068Y0242547D01*
X0027895Y0242734D01*
X0027717Y0242915D01*
X0027534Y0243093D01*
X0027348Y0243266D01*
X0027157Y0243435D01*
X0026962Y0243598D01*
X0026764Y0243757D01*
X0026561Y0243912D01*
X0026355Y0244061D01*
X0026145Y0244205D01*
X0025932Y0244344D01*
X0025716Y0244478D01*
X0025496Y0244606D01*
X0025273Y0244730D01*
X0025048Y0244847D01*
X0024819Y0244960D01*
X0024588Y0245066D01*
X0024355Y0245167D01*
X0024119Y0245263D01*
X0023881Y0245352D01*
X0023640Y0245436D01*
X0023398Y0245514D01*
X0017202Y0245514D02*
X0016960Y0245436D01*
X0016719Y0245352D01*
X0016481Y0245263D01*
X0016245Y0245167D01*
X0016012Y0245066D01*
X0015781Y0244960D01*
X0015552Y0244847D01*
X0015327Y0244730D01*
X0015104Y0244606D01*
X0014884Y0244478D01*
X0014668Y0244344D01*
X0014455Y0244205D01*
X0014245Y0244061D01*
X0014039Y0243912D01*
X0013836Y0243757D01*
X0013638Y0243598D01*
X0013443Y0243435D01*
X0013252Y0243266D01*
X0013066Y0243093D01*
X0012883Y0242915D01*
X0012705Y0242734D01*
X0012532Y0242547D01*
X0012363Y0242357D01*
X0012198Y0242163D01*
X0012039Y0241965D01*
X0011884Y0241762D01*
X0011734Y0241557D01*
X0011590Y0241347D01*
X0011450Y0241135D01*
X0011316Y0240919D01*
X0011186Y0240699D01*
X0011063Y0240477D01*
X0010944Y0240252D01*
X0010831Y0240024D01*
X0010724Y0239793D01*
X0010622Y0239559D01*
X0010526Y0239324D01*
X0010436Y0239086D01*
X0010352Y0238846D01*
X0010273Y0238604D01*
X0010200Y0238360D01*
X0010134Y0238114D01*
X0010073Y0237867D01*
X0010018Y0237619D01*
X0009969Y0237369D01*
X0009926Y0237118D01*
X0009890Y0236866D01*
X0009859Y0236614D01*
X0009835Y0236360D01*
X0009817Y0236106D01*
X0009805Y0235852D01*
X0009799Y0235598D01*
X0009799Y0235343D01*
X0009805Y0235089D01*
X0009818Y0234835D01*
X0009837Y0234581D01*
X0009862Y0234328D01*
X0009893Y0234075D01*
X0009930Y0233823D01*
X0009973Y0233572D01*
X0010022Y0233323D01*
X0010078Y0233074D01*
X0010139Y0232827D01*
X0010206Y0232582D01*
X0010279Y0232338D01*
X0010358Y0232096D01*
X0010443Y0231856D01*
X0010534Y0231619D01*
X0010631Y0231383D01*
X0010733Y0231150D01*
X0010841Y0230920D01*
X0010954Y0230692D01*
X0011073Y0230467D01*
X0011197Y0230245D01*
X0011327Y0230025D01*
X0011461Y0229810D01*
X0011601Y0229597D01*
X0011747Y0229388D01*
X0011897Y0229183D01*
X0012052Y0228981D01*
X0012300Y0264481D02*
X0027300Y0264481D01*
X0029800Y0266981D01*
X0029800Y0271981D01*
X0027300Y0274481D01*
X0029800Y0276981D01*
X0029800Y0281981D01*
X0027300Y0284481D01*
X0029800Y0286981D01*
X0029800Y0291981D01*
X0027300Y0294481D01*
X0029800Y0296981D01*
X0029800Y0301981D01*
X0027300Y0304481D01*
X0029800Y0306981D01*
X0029800Y0311981D01*
X0027300Y0314481D01*
X0029800Y0316981D01*
X0029800Y0321981D01*
X0027300Y0324481D01*
X0029800Y0326981D01*
X0029800Y0331981D01*
X0027300Y0334481D01*
X0029800Y0336981D01*
X0029800Y0341981D01*
X0027300Y0344481D01*
X0029800Y0346981D01*
X0029800Y0351981D01*
X0027300Y0354481D01*
X0029800Y0356981D01*
X0029800Y0361981D01*
X0027300Y0364481D01*
X0029800Y0366981D01*
X0029800Y0371981D01*
X0027300Y0374481D01*
X0029800Y0376981D01*
X0029800Y0381981D01*
X0027300Y0384481D01*
X0029800Y0386981D01*
X0029800Y0391981D01*
X0027300Y0394481D01*
X0012300Y0394481D01*
X0009800Y0391981D01*
X0009800Y0386981D01*
X0012300Y0384481D01*
X0009800Y0381981D01*
X0009800Y0376981D01*
X0012300Y0374481D01*
X0009800Y0371981D01*
X0009800Y0366981D01*
X0012300Y0364481D01*
X0009800Y0361981D01*
X0009800Y0356981D01*
X0012300Y0354481D01*
X0009800Y0351981D01*
X0009800Y0346981D01*
X0012300Y0344481D01*
X0009800Y0341981D01*
X0009800Y0336981D01*
X0012300Y0334481D01*
X0009800Y0331981D01*
X0009800Y0326981D01*
X0012300Y0324481D01*
X0009800Y0321981D01*
X0009800Y0316981D01*
X0012300Y0314481D01*
X0009800Y0311981D01*
X0009800Y0306981D01*
X0012300Y0304481D01*
X0009800Y0301981D01*
X0009800Y0296981D01*
X0012300Y0294481D01*
X0009800Y0291981D01*
X0009800Y0286981D01*
X0012300Y0284481D01*
X0009800Y0281981D01*
X0009800Y0276981D01*
X0012300Y0274481D01*
X0009800Y0271981D01*
X0009800Y0266981D01*
X0012300Y0264481D01*
X0063100Y0316348D02*
X0064168Y0315281D01*
X0066303Y0315281D01*
X0067370Y0316348D01*
X0067370Y0318483D01*
X0065235Y0318483D01*
X0063100Y0316348D02*
X0063100Y0320619D01*
X0064168Y0321686D01*
X0066303Y0321686D01*
X0067370Y0320619D01*
X0069545Y0321686D02*
X0069545Y0318483D01*
X0071681Y0319551D01*
X0072748Y0319551D01*
X0073816Y0318483D01*
X0073816Y0316348D01*
X0072748Y0315281D01*
X0070613Y0315281D01*
X0069545Y0316348D01*
X0069545Y0321686D02*
X0073816Y0321686D01*
X0075991Y0321686D02*
X0075991Y0315281D01*
X0080261Y0315281D01*
X0082436Y0315281D02*
X0082436Y0321686D01*
X0086707Y0321686D01*
X0084572Y0318483D02*
X0082436Y0318483D01*
X0082436Y0315281D02*
X0086707Y0315281D01*
X0095327Y0316348D02*
X0096395Y0315281D01*
X0098530Y0315281D01*
X0099598Y0316348D01*
X0099598Y0318483D01*
X0098530Y0319551D01*
X0097463Y0319551D01*
X0095327Y0318483D01*
X0095327Y0321686D01*
X0099598Y0321686D01*
X0101773Y0319551D02*
X0103908Y0315281D01*
X0106043Y0319551D01*
X0114664Y0319551D02*
X0114664Y0315281D01*
X0114664Y0317416D02*
X0116799Y0319551D01*
X0117867Y0319551D01*
X0120035Y0318483D02*
X0121103Y0319551D01*
X0123238Y0319551D01*
X0124306Y0318483D01*
X0124306Y0317416D01*
X0120035Y0317416D01*
X0120035Y0318483D02*
X0120035Y0316348D01*
X0121103Y0315281D01*
X0123238Y0315281D01*
X0126481Y0315281D02*
X0128616Y0315281D01*
X0127548Y0315281D02*
X0127548Y0321686D01*
X0126481Y0321686D01*
X0131845Y0319551D02*
X0133980Y0319551D01*
X0135048Y0318483D01*
X0135048Y0315281D01*
X0131845Y0315281D01*
X0130778Y0316348D01*
X0131845Y0317416D01*
X0135048Y0317416D01*
X0137223Y0316348D02*
X0137223Y0319551D01*
X0137223Y0316348D02*
X0138291Y0315281D01*
X0141494Y0315281D01*
X0141494Y0314213D02*
X0140426Y0313146D01*
X0139358Y0313146D01*
X0141494Y0314213D02*
X0141494Y0319551D01*
X0150114Y0291639D02*
X0149046Y0290571D01*
X0149046Y0285233D01*
X0147979Y0288436D02*
X0150114Y0288436D01*
X0152276Y0288436D02*
X0154411Y0288436D01*
X0153343Y0290571D02*
X0154411Y0291639D01*
X0153343Y0290571D02*
X0153343Y0285233D01*
X0145803Y0286301D02*
X0145803Y0288436D01*
X0144736Y0289504D01*
X0142601Y0289504D01*
X0141533Y0288436D01*
X0141533Y0286301D01*
X0142601Y0285233D01*
X0144736Y0285233D01*
X0145803Y0286301D01*
X0182355Y0286301D02*
X0183422Y0285233D01*
X0185557Y0285233D01*
X0186625Y0286301D01*
X0186625Y0288436D01*
X0185557Y0289504D01*
X0183422Y0289504D01*
X0182355Y0288436D01*
X0182355Y0286301D01*
X0188800Y0285233D02*
X0188800Y0289504D01*
X0192003Y0289504D01*
X0193070Y0288436D01*
X0193070Y0285233D01*
X0222477Y0316592D02*
X0221409Y0317659D01*
X0221409Y0319794D01*
X0222477Y0320862D01*
X0224612Y0319794D02*
X0225680Y0320862D01*
X0226747Y0320862D01*
X0227815Y0319794D01*
X0227815Y0317659D01*
X0226747Y0316592D01*
X0224612Y0317659D02*
X0224612Y0319794D01*
X0224612Y0317659D02*
X0223545Y0316592D01*
X0222477Y0316592D01*
X0229300Y0314355D02*
X0231800Y0311855D01*
X0236800Y0311855D01*
X0239300Y0314355D01*
X0239300Y0319355D01*
X0236800Y0321855D01*
X0239300Y0324355D01*
X0239300Y0329355D01*
X0236800Y0331855D01*
X0239300Y0334355D01*
X0239300Y0339355D01*
X0236800Y0341855D01*
X0231800Y0341855D01*
X0229300Y0339355D01*
X0229300Y0334355D01*
X0231800Y0331855D01*
X0229300Y0329355D01*
X0229300Y0324355D01*
X0231800Y0321855D01*
X0229300Y0319355D01*
X0229300Y0314355D01*
X0214650Y0322752D02*
X0215150Y0328752D01*
X0215150Y0332252D01*
X0213150Y0332252D01*
X0214150Y0328752D02*
X0215150Y0328752D01*
X0221409Y0329483D02*
X0225680Y0329483D01*
X0227815Y0331618D01*
X0225680Y0333753D01*
X0221409Y0333753D01*
X0222477Y0342374D02*
X0226747Y0342374D01*
X0227815Y0343441D01*
X0227815Y0345576D01*
X0226747Y0346644D01*
X0224612Y0346644D01*
X0224612Y0344509D01*
X0222477Y0346644D02*
X0221409Y0345576D01*
X0221409Y0343441D01*
X0222477Y0342374D01*
X0208150Y0332252D02*
X0204150Y0332252D01*
X0205150Y0328752D02*
X0207150Y0328752D01*
X0207150Y0322752D02*
X0205150Y0322752D01*
X0198150Y0322752D02*
X0196150Y0322752D01*
X0196150Y0328752D02*
X0198150Y0328752D01*
X0199150Y0332252D02*
X0195150Y0332252D01*
X0190150Y0332252D02*
X0188150Y0332252D01*
X0188150Y0328752D01*
X0188650Y0322752D01*
X0189150Y0322752D01*
X0189150Y0328752D02*
X0188150Y0328752D01*
X0214150Y0322752D02*
X0214650Y0322752D01*
X0125528Y0359831D02*
X0119528Y0359331D01*
X0116028Y0359331D01*
X0116028Y0361331D01*
X0119528Y0360331D02*
X0119528Y0359331D01*
X0125528Y0359831D02*
X0125528Y0360331D01*
X0125528Y0367331D02*
X0125528Y0369331D01*
X0119528Y0369331D02*
X0119528Y0367331D01*
X0116028Y0366331D02*
X0116028Y0370331D01*
X0116028Y0375331D02*
X0116028Y0379331D01*
X0119528Y0378331D02*
X0119528Y0376331D01*
X0125528Y0376331D02*
X0125528Y0378331D01*
X0125528Y0385331D02*
X0125528Y0385831D01*
X0119528Y0386331D01*
X0116028Y0386331D01*
X0116028Y0384331D01*
X0119528Y0385331D02*
X0119528Y0386331D01*
X0106253Y0382481D02*
X0104674Y0382481D01*
X0104048Y0376981D02*
X0087552Y0376981D01*
X0086926Y0382481D02*
X0085347Y0382481D01*
X0094674Y0382481D02*
X0096926Y0382481D01*
X0104048Y0376981D02*
X0104203Y0377183D01*
X0104353Y0377388D01*
X0104499Y0377597D01*
X0104639Y0377810D01*
X0104773Y0378025D01*
X0104903Y0378245D01*
X0105027Y0378467D01*
X0105146Y0378692D01*
X0105259Y0378920D01*
X0105367Y0379150D01*
X0105469Y0379383D01*
X0105566Y0379619D01*
X0105657Y0379856D01*
X0105742Y0380096D01*
X0105821Y0380338D01*
X0105894Y0380582D01*
X0105961Y0380827D01*
X0106022Y0381074D01*
X0106078Y0381323D01*
X0106127Y0381572D01*
X0106170Y0381823D01*
X0106207Y0382075D01*
X0106238Y0382328D01*
X0106263Y0382581D01*
X0106282Y0382835D01*
X0106295Y0383089D01*
X0106301Y0383343D01*
X0106301Y0383598D01*
X0106295Y0383852D01*
X0106283Y0384106D01*
X0106265Y0384360D01*
X0106241Y0384614D01*
X0106210Y0384866D01*
X0106174Y0385118D01*
X0106131Y0385369D01*
X0106082Y0385619D01*
X0106027Y0385867D01*
X0105966Y0386114D01*
X0105900Y0386360D01*
X0105827Y0386604D01*
X0105748Y0386846D01*
X0105664Y0387086D01*
X0105574Y0387324D01*
X0105478Y0387559D01*
X0105376Y0387793D01*
X0105269Y0388024D01*
X0105156Y0388252D01*
X0105037Y0388477D01*
X0104914Y0388699D01*
X0104784Y0388919D01*
X0104650Y0389135D01*
X0104510Y0389347D01*
X0104366Y0389557D01*
X0104216Y0389762D01*
X0104061Y0389965D01*
X0103902Y0390163D01*
X0103737Y0390357D01*
X0103568Y0390547D01*
X0103395Y0390734D01*
X0103217Y0390915D01*
X0103034Y0391093D01*
X0102848Y0391266D01*
X0102657Y0391435D01*
X0102462Y0391598D01*
X0102264Y0391757D01*
X0102061Y0391912D01*
X0101855Y0392061D01*
X0101645Y0392205D01*
X0101432Y0392344D01*
X0101216Y0392478D01*
X0100996Y0392606D01*
X0100773Y0392730D01*
X0100548Y0392847D01*
X0100319Y0392960D01*
X0100088Y0393066D01*
X0099855Y0393167D01*
X0099619Y0393263D01*
X0099381Y0393352D01*
X0099140Y0393436D01*
X0098898Y0393514D01*
X0092702Y0393514D02*
X0092460Y0393436D01*
X0092219Y0393352D01*
X0091981Y0393263D01*
X0091745Y0393167D01*
X0091512Y0393066D01*
X0091281Y0392960D01*
X0091052Y0392847D01*
X0090827Y0392730D01*
X0090604Y0392606D01*
X0090384Y0392478D01*
X0090168Y0392344D01*
X0089955Y0392205D01*
X0089745Y0392061D01*
X0089539Y0391912D01*
X0089336Y0391757D01*
X0089138Y0391598D01*
X0088943Y0391435D01*
X0088752Y0391266D01*
X0088566Y0391093D01*
X0088383Y0390915D01*
X0088205Y0390734D01*
X0088032Y0390547D01*
X0087863Y0390357D01*
X0087698Y0390163D01*
X0087539Y0389965D01*
X0087384Y0389762D01*
X0087234Y0389557D01*
X0087090Y0389347D01*
X0086950Y0389135D01*
X0086816Y0388919D01*
X0086686Y0388699D01*
X0086563Y0388477D01*
X0086444Y0388252D01*
X0086331Y0388024D01*
X0086224Y0387793D01*
X0086122Y0387559D01*
X0086026Y0387324D01*
X0085936Y0387086D01*
X0085852Y0386846D01*
X0085773Y0386604D01*
X0085700Y0386360D01*
X0085634Y0386114D01*
X0085573Y0385867D01*
X0085518Y0385619D01*
X0085469Y0385369D01*
X0085426Y0385118D01*
X0085390Y0384866D01*
X0085359Y0384614D01*
X0085335Y0384360D01*
X0085317Y0384106D01*
X0085305Y0383852D01*
X0085299Y0383598D01*
X0085299Y0383343D01*
X0085305Y0383089D01*
X0085318Y0382835D01*
X0085337Y0382581D01*
X0085362Y0382328D01*
X0085393Y0382075D01*
X0085430Y0381823D01*
X0085473Y0381572D01*
X0085522Y0381323D01*
X0085578Y0381074D01*
X0085639Y0380827D01*
X0085706Y0380582D01*
X0085779Y0380338D01*
X0085858Y0380096D01*
X0085943Y0379856D01*
X0086034Y0379619D01*
X0086131Y0379383D01*
X0086233Y0379150D01*
X0086341Y0378920D01*
X0086454Y0378692D01*
X0086573Y0378467D01*
X0086697Y0378245D01*
X0086827Y0378025D01*
X0086961Y0377810D01*
X0087101Y0377597D01*
X0087247Y0377388D01*
X0087397Y0377183D01*
X0087552Y0376981D01*
X0313761Y0338563D02*
X0314761Y0338563D01*
X0314761Y0339563D01*
X0314761Y0338563D02*
X0315761Y0338563D01*
X0314761Y0338563D02*
X0314761Y0337563D01*
X0309761Y0344063D02*
X0309764Y0344308D01*
X0309773Y0344554D01*
X0309788Y0344799D01*
X0309809Y0345043D01*
X0309836Y0345287D01*
X0309869Y0345530D01*
X0309908Y0345773D01*
X0309953Y0346014D01*
X0310004Y0346254D01*
X0310061Y0346493D01*
X0310123Y0346730D01*
X0310192Y0346966D01*
X0310266Y0347200D01*
X0310346Y0347432D01*
X0310431Y0347662D01*
X0310522Y0347890D01*
X0310619Y0348115D01*
X0310721Y0348339D01*
X0310829Y0348559D01*
X0310942Y0348777D01*
X0311060Y0348992D01*
X0311184Y0349204D01*
X0311312Y0349413D01*
X0311446Y0349619D01*
X0311585Y0349821D01*
X0311729Y0350020D01*
X0311878Y0350215D01*
X0312031Y0350407D01*
X0312189Y0350595D01*
X0312351Y0350779D01*
X0312519Y0350958D01*
X0312690Y0351134D01*
X0312866Y0351305D01*
X0313045Y0351473D01*
X0313229Y0351635D01*
X0313417Y0351793D01*
X0313609Y0351946D01*
X0313804Y0352095D01*
X0314003Y0352239D01*
X0314205Y0352378D01*
X0314411Y0352512D01*
X0314620Y0352640D01*
X0314832Y0352764D01*
X0315047Y0352882D01*
X0315265Y0352995D01*
X0315485Y0353103D01*
X0315709Y0353205D01*
X0315934Y0353302D01*
X0316162Y0353393D01*
X0316392Y0353478D01*
X0316624Y0353558D01*
X0316858Y0353632D01*
X0317094Y0353701D01*
X0317331Y0353763D01*
X0317570Y0353820D01*
X0317810Y0353871D01*
X0318051Y0353916D01*
X0318294Y0353955D01*
X0318537Y0353988D01*
X0318781Y0354015D01*
X0319025Y0354036D01*
X0319270Y0354051D01*
X0319516Y0354060D01*
X0319761Y0354063D01*
X0320006Y0354060D01*
X0320252Y0354051D01*
X0320497Y0354036D01*
X0320741Y0354015D01*
X0320985Y0353988D01*
X0321228Y0353955D01*
X0321471Y0353916D01*
X0321712Y0353871D01*
X0321952Y0353820D01*
X0322191Y0353763D01*
X0322428Y0353701D01*
X0322664Y0353632D01*
X0322898Y0353558D01*
X0323130Y0353478D01*
X0323360Y0353393D01*
X0323588Y0353302D01*
X0323813Y0353205D01*
X0324037Y0353103D01*
X0324257Y0352995D01*
X0324475Y0352882D01*
X0324690Y0352764D01*
X0324902Y0352640D01*
X0325111Y0352512D01*
X0325317Y0352378D01*
X0325519Y0352239D01*
X0325718Y0352095D01*
X0325913Y0351946D01*
X0326105Y0351793D01*
X0326293Y0351635D01*
X0326477Y0351473D01*
X0326656Y0351305D01*
X0326832Y0351134D01*
X0327003Y0350958D01*
X0327171Y0350779D01*
X0327333Y0350595D01*
X0327491Y0350407D01*
X0327644Y0350215D01*
X0327793Y0350020D01*
X0327937Y0349821D01*
X0328076Y0349619D01*
X0328210Y0349413D01*
X0328338Y0349204D01*
X0328462Y0348992D01*
X0328580Y0348777D01*
X0328693Y0348559D01*
X0328801Y0348339D01*
X0328903Y0348115D01*
X0329000Y0347890D01*
X0329091Y0347662D01*
X0329176Y0347432D01*
X0329256Y0347200D01*
X0329330Y0346966D01*
X0329399Y0346730D01*
X0329461Y0346493D01*
X0329518Y0346254D01*
X0329569Y0346014D01*
X0329614Y0345773D01*
X0329653Y0345530D01*
X0329686Y0345287D01*
X0329713Y0345043D01*
X0329734Y0344799D01*
X0329749Y0344554D01*
X0329758Y0344308D01*
X0329761Y0344063D01*
X0329758Y0343818D01*
X0329749Y0343572D01*
X0329734Y0343327D01*
X0329713Y0343083D01*
X0329686Y0342839D01*
X0329653Y0342596D01*
X0329614Y0342353D01*
X0329569Y0342112D01*
X0329518Y0341872D01*
X0329461Y0341633D01*
X0329399Y0341396D01*
X0329330Y0341160D01*
X0329256Y0340926D01*
X0329176Y0340694D01*
X0329091Y0340464D01*
X0329000Y0340236D01*
X0328903Y0340011D01*
X0328801Y0339787D01*
X0328693Y0339567D01*
X0328580Y0339349D01*
X0328462Y0339134D01*
X0328338Y0338922D01*
X0328210Y0338713D01*
X0328076Y0338507D01*
X0327937Y0338305D01*
X0327793Y0338106D01*
X0327644Y0337911D01*
X0327491Y0337719D01*
X0327333Y0337531D01*
X0327171Y0337347D01*
X0327003Y0337168D01*
X0326832Y0336992D01*
X0326656Y0336821D01*
X0326477Y0336653D01*
X0326293Y0336491D01*
X0326105Y0336333D01*
X0325913Y0336180D01*
X0325718Y0336031D01*
X0325519Y0335887D01*
X0325317Y0335748D01*
X0325111Y0335614D01*
X0324902Y0335486D01*
X0324690Y0335362D01*
X0324475Y0335244D01*
X0324257Y0335131D01*
X0324037Y0335023D01*
X0323813Y0334921D01*
X0323588Y0334824D01*
X0323360Y0334733D01*
X0323130Y0334648D01*
X0322898Y0334568D01*
X0322664Y0334494D01*
X0322428Y0334425D01*
X0322191Y0334363D01*
X0321952Y0334306D01*
X0321712Y0334255D01*
X0321471Y0334210D01*
X0321228Y0334171D01*
X0320985Y0334138D01*
X0320741Y0334111D01*
X0320497Y0334090D01*
X0320252Y0334075D01*
X0320006Y0334066D01*
X0319761Y0334063D01*
X0319516Y0334066D01*
X0319270Y0334075D01*
X0319025Y0334090D01*
X0318781Y0334111D01*
X0318537Y0334138D01*
X0318294Y0334171D01*
X0318051Y0334210D01*
X0317810Y0334255D01*
X0317570Y0334306D01*
X0317331Y0334363D01*
X0317094Y0334425D01*
X0316858Y0334494D01*
X0316624Y0334568D01*
X0316392Y0334648D01*
X0316162Y0334733D01*
X0315934Y0334824D01*
X0315709Y0334921D01*
X0315485Y0335023D01*
X0315265Y0335131D01*
X0315047Y0335244D01*
X0314832Y0335362D01*
X0314620Y0335486D01*
X0314411Y0335614D01*
X0314205Y0335748D01*
X0314003Y0335887D01*
X0313804Y0336031D01*
X0313609Y0336180D01*
X0313417Y0336333D01*
X0313229Y0336491D01*
X0313045Y0336653D01*
X0312866Y0336821D01*
X0312690Y0336992D01*
X0312519Y0337168D01*
X0312351Y0337347D01*
X0312189Y0337531D01*
X0312031Y0337719D01*
X0311878Y0337911D01*
X0311729Y0338106D01*
X0311585Y0338305D01*
X0311446Y0338507D01*
X0311312Y0338713D01*
X0311184Y0338922D01*
X0311060Y0339134D01*
X0310942Y0339349D01*
X0310829Y0339567D01*
X0310721Y0339787D01*
X0310619Y0340011D01*
X0310522Y0340236D01*
X0310431Y0340464D01*
X0310346Y0340694D01*
X0310266Y0340926D01*
X0310192Y0341160D01*
X0310123Y0341396D01*
X0310061Y0341633D01*
X0310004Y0341872D01*
X0309953Y0342112D01*
X0309908Y0342353D01*
X0309869Y0342596D01*
X0309836Y0342839D01*
X0309809Y0343083D01*
X0309788Y0343327D01*
X0309773Y0343572D01*
X0309764Y0343818D01*
X0309761Y0344063D01*
D13*
X0302044Y0257449D02*
X0302046Y0257537D01*
X0302052Y0257625D01*
X0302062Y0257713D01*
X0302076Y0257801D01*
X0302093Y0257887D01*
X0302115Y0257973D01*
X0302140Y0258057D01*
X0302170Y0258141D01*
X0302202Y0258223D01*
X0302239Y0258303D01*
X0302279Y0258382D01*
X0302323Y0258459D01*
X0302370Y0258534D01*
X0302420Y0258606D01*
X0302474Y0258677D01*
X0302530Y0258744D01*
X0302590Y0258810D01*
X0302652Y0258872D01*
X0302718Y0258932D01*
X0302785Y0258988D01*
X0302856Y0259042D01*
X0302928Y0259092D01*
X0303003Y0259139D01*
X0303080Y0259183D01*
X0303159Y0259223D01*
X0303239Y0259260D01*
X0303321Y0259292D01*
X0303405Y0259322D01*
X0303489Y0259347D01*
X0303575Y0259369D01*
X0303661Y0259386D01*
X0303749Y0259400D01*
X0303837Y0259410D01*
X0303925Y0259416D01*
X0304013Y0259418D01*
X0304101Y0259416D01*
X0304189Y0259410D01*
X0304277Y0259400D01*
X0304365Y0259386D01*
X0304451Y0259369D01*
X0304537Y0259347D01*
X0304621Y0259322D01*
X0304705Y0259292D01*
X0304787Y0259260D01*
X0304867Y0259223D01*
X0304946Y0259183D01*
X0305023Y0259139D01*
X0305098Y0259092D01*
X0305170Y0259042D01*
X0305241Y0258988D01*
X0305308Y0258932D01*
X0305374Y0258872D01*
X0305436Y0258810D01*
X0305496Y0258744D01*
X0305552Y0258677D01*
X0305606Y0258606D01*
X0305656Y0258534D01*
X0305703Y0258459D01*
X0305747Y0258382D01*
X0305787Y0258303D01*
X0305824Y0258223D01*
X0305856Y0258141D01*
X0305886Y0258057D01*
X0305911Y0257973D01*
X0305933Y0257887D01*
X0305950Y0257801D01*
X0305964Y0257713D01*
X0305974Y0257625D01*
X0305980Y0257537D01*
X0305982Y0257449D01*
X0305980Y0257361D01*
X0305974Y0257273D01*
X0305964Y0257185D01*
X0305950Y0257097D01*
X0305933Y0257011D01*
X0305911Y0256925D01*
X0305886Y0256841D01*
X0305856Y0256757D01*
X0305824Y0256675D01*
X0305787Y0256595D01*
X0305747Y0256516D01*
X0305703Y0256439D01*
X0305656Y0256364D01*
X0305606Y0256292D01*
X0305552Y0256221D01*
X0305496Y0256154D01*
X0305436Y0256088D01*
X0305374Y0256026D01*
X0305308Y0255966D01*
X0305241Y0255910D01*
X0305170Y0255856D01*
X0305098Y0255806D01*
X0305023Y0255759D01*
X0304946Y0255715D01*
X0304867Y0255675D01*
X0304787Y0255638D01*
X0304705Y0255606D01*
X0304621Y0255576D01*
X0304537Y0255551D01*
X0304451Y0255529D01*
X0304365Y0255512D01*
X0304277Y0255498D01*
X0304189Y0255488D01*
X0304101Y0255482D01*
X0304013Y0255480D01*
X0303925Y0255482D01*
X0303837Y0255488D01*
X0303749Y0255498D01*
X0303661Y0255512D01*
X0303575Y0255529D01*
X0303489Y0255551D01*
X0303405Y0255576D01*
X0303321Y0255606D01*
X0303239Y0255638D01*
X0303159Y0255675D01*
X0303080Y0255715D01*
X0303003Y0255759D01*
X0302928Y0255806D01*
X0302856Y0255856D01*
X0302785Y0255910D01*
X0302718Y0255966D01*
X0302652Y0256026D01*
X0302590Y0256088D01*
X0302530Y0256154D01*
X0302474Y0256221D01*
X0302420Y0256292D01*
X0302370Y0256364D01*
X0302323Y0256439D01*
X0302279Y0256516D01*
X0302239Y0256595D01*
X0302202Y0256675D01*
X0302170Y0256757D01*
X0302140Y0256841D01*
X0302115Y0256925D01*
X0302093Y0257011D01*
X0302076Y0257097D01*
X0302062Y0257185D01*
X0302052Y0257273D01*
X0302046Y0257361D01*
X0302044Y0257449D01*
X0101256Y0261386D02*
X0101258Y0261474D01*
X0101264Y0261562D01*
X0101274Y0261650D01*
X0101288Y0261738D01*
X0101305Y0261824D01*
X0101327Y0261910D01*
X0101352Y0261994D01*
X0101382Y0262078D01*
X0101414Y0262160D01*
X0101451Y0262240D01*
X0101491Y0262319D01*
X0101535Y0262396D01*
X0101582Y0262471D01*
X0101632Y0262543D01*
X0101686Y0262614D01*
X0101742Y0262681D01*
X0101802Y0262747D01*
X0101864Y0262809D01*
X0101930Y0262869D01*
X0101997Y0262925D01*
X0102068Y0262979D01*
X0102140Y0263029D01*
X0102215Y0263076D01*
X0102292Y0263120D01*
X0102371Y0263160D01*
X0102451Y0263197D01*
X0102533Y0263229D01*
X0102617Y0263259D01*
X0102701Y0263284D01*
X0102787Y0263306D01*
X0102873Y0263323D01*
X0102961Y0263337D01*
X0103049Y0263347D01*
X0103137Y0263353D01*
X0103225Y0263355D01*
X0103313Y0263353D01*
X0103401Y0263347D01*
X0103489Y0263337D01*
X0103577Y0263323D01*
X0103663Y0263306D01*
X0103749Y0263284D01*
X0103833Y0263259D01*
X0103917Y0263229D01*
X0103999Y0263197D01*
X0104079Y0263160D01*
X0104158Y0263120D01*
X0104235Y0263076D01*
X0104310Y0263029D01*
X0104382Y0262979D01*
X0104453Y0262925D01*
X0104520Y0262869D01*
X0104586Y0262809D01*
X0104648Y0262747D01*
X0104708Y0262681D01*
X0104764Y0262614D01*
X0104818Y0262543D01*
X0104868Y0262471D01*
X0104915Y0262396D01*
X0104959Y0262319D01*
X0104999Y0262240D01*
X0105036Y0262160D01*
X0105068Y0262078D01*
X0105098Y0261994D01*
X0105123Y0261910D01*
X0105145Y0261824D01*
X0105162Y0261738D01*
X0105176Y0261650D01*
X0105186Y0261562D01*
X0105192Y0261474D01*
X0105194Y0261386D01*
X0105192Y0261298D01*
X0105186Y0261210D01*
X0105176Y0261122D01*
X0105162Y0261034D01*
X0105145Y0260948D01*
X0105123Y0260862D01*
X0105098Y0260778D01*
X0105068Y0260694D01*
X0105036Y0260612D01*
X0104999Y0260532D01*
X0104959Y0260453D01*
X0104915Y0260376D01*
X0104868Y0260301D01*
X0104818Y0260229D01*
X0104764Y0260158D01*
X0104708Y0260091D01*
X0104648Y0260025D01*
X0104586Y0259963D01*
X0104520Y0259903D01*
X0104453Y0259847D01*
X0104382Y0259793D01*
X0104310Y0259743D01*
X0104235Y0259696D01*
X0104158Y0259652D01*
X0104079Y0259612D01*
X0103999Y0259575D01*
X0103917Y0259543D01*
X0103833Y0259513D01*
X0103749Y0259488D01*
X0103663Y0259466D01*
X0103577Y0259449D01*
X0103489Y0259435D01*
X0103401Y0259425D01*
X0103313Y0259419D01*
X0103225Y0259417D01*
X0103137Y0259419D01*
X0103049Y0259425D01*
X0102961Y0259435D01*
X0102873Y0259449D01*
X0102787Y0259466D01*
X0102701Y0259488D01*
X0102617Y0259513D01*
X0102533Y0259543D01*
X0102451Y0259575D01*
X0102371Y0259612D01*
X0102292Y0259652D01*
X0102215Y0259696D01*
X0102140Y0259743D01*
X0102068Y0259793D01*
X0101997Y0259847D01*
X0101930Y0259903D01*
X0101864Y0259963D01*
X0101802Y0260025D01*
X0101742Y0260091D01*
X0101686Y0260158D01*
X0101632Y0260229D01*
X0101582Y0260301D01*
X0101535Y0260376D01*
X0101491Y0260453D01*
X0101451Y0260532D01*
X0101414Y0260612D01*
X0101382Y0260694D01*
X0101352Y0260778D01*
X0101327Y0260862D01*
X0101305Y0260948D01*
X0101288Y0261034D01*
X0101274Y0261122D01*
X0101264Y0261210D01*
X0101258Y0261298D01*
X0101256Y0261386D01*
D14*
X0091811Y0268680D02*
X0090952Y0268529D01*
X0089941Y0269237D01*
X0089789Y0270097D01*
X0090497Y0271108D01*
X0091357Y0271259D01*
X0092368Y0270551D01*
X0092519Y0269692D01*
X0091811Y0268680D01*
X0090255Y0267534D02*
X0089244Y0268242D01*
X0088385Y0268091D01*
X0087323Y0266574D01*
X0086311Y0267282D02*
X0089345Y0265158D01*
X0090407Y0266675D01*
X0090255Y0267534D01*
X0087637Y0264871D02*
X0086221Y0262849D01*
X0085716Y0263203D02*
X0085564Y0264062D01*
X0086272Y0265074D01*
X0087132Y0265225D01*
X0087637Y0264871D01*
X0088294Y0263658D02*
X0087586Y0262646D01*
X0086727Y0262495D01*
X0085716Y0263203D01*
X0084512Y0262559D02*
X0084158Y0262054D01*
X0084461Y0260335D01*
X0085472Y0259627D02*
X0083450Y0261043D01*
X0092053Y0272254D02*
X0093064Y0271546D01*
X0093924Y0271698D01*
X0094632Y0272709D01*
X0094480Y0273568D01*
X0093469Y0274276D01*
X0092610Y0274125D01*
X0091902Y0273114D01*
X0092053Y0272254D01*
X0093660Y0275625D02*
X0094368Y0276636D01*
X0093509Y0276485D02*
X0095531Y0275069D01*
X0096391Y0275220D01*
X0097091Y0276220D02*
X0097799Y0277232D01*
X0097445Y0276726D02*
X0095423Y0278142D01*
X0095069Y0277636D01*
X0094411Y0278850D02*
X0093906Y0279204D01*
X0096477Y0279648D02*
X0097539Y0281164D01*
X0098399Y0281316D01*
X0099915Y0280254D01*
X0100106Y0281603D02*
X0100966Y0281754D01*
X0102028Y0283271D01*
X0102533Y0282917D02*
X0100006Y0284687D01*
X0098944Y0283170D01*
X0099095Y0282311D01*
X0100106Y0281603D01*
X0102331Y0281552D02*
X0102685Y0282057D01*
X0102533Y0282917D01*
X0098499Y0278232D02*
X0096477Y0279648D01*
X0133718Y0334663D02*
X0130684Y0336787D01*
X0131746Y0338304D01*
X0132606Y0338456D01*
X0133617Y0337748D01*
X0133769Y0336888D01*
X0132706Y0335371D01*
X0136004Y0336076D02*
X0139037Y0333952D01*
X0137975Y0332435D01*
X0137116Y0332284D01*
X0136105Y0332992D01*
X0135953Y0333851D01*
X0137015Y0335368D01*
X0138217Y0336009D02*
X0139228Y0335301D01*
X0140088Y0335452D01*
X0140796Y0336464D01*
X0140139Y0337677D02*
X0138723Y0335655D01*
X0138217Y0336009D02*
X0138066Y0336868D01*
X0138774Y0337880D01*
X0139633Y0338031D01*
X0140139Y0337677D01*
X0139824Y0339380D02*
X0140532Y0340391D01*
X0139673Y0340239D02*
X0141695Y0338823D01*
X0142555Y0338975D01*
X0142749Y0340329D02*
X0141738Y0341037D01*
X0141587Y0341897D01*
X0142295Y0342908D01*
X0143154Y0343060D01*
X0143660Y0342706D01*
X0142244Y0340683D01*
X0142749Y0340329D02*
X0143609Y0340481D01*
X0144317Y0341492D01*
X0144862Y0343346D02*
X0145721Y0343498D01*
X0146783Y0345015D01*
X0147328Y0346869D02*
X0148188Y0347020D01*
X0147328Y0346869D02*
X0145306Y0348285D01*
X0145458Y0347425D02*
X0146166Y0348437D01*
X0147372Y0349083D02*
X0147220Y0349942D01*
X0147928Y0350953D01*
X0148788Y0351105D01*
X0149293Y0350751D01*
X0147877Y0348729D01*
X0147372Y0349083D02*
X0148383Y0348375D01*
X0149242Y0348526D01*
X0149950Y0349537D01*
X0150495Y0351392D02*
X0149484Y0352100D01*
X0149333Y0352959D01*
X0150395Y0354476D01*
X0149384Y0355184D02*
X0152417Y0353060D01*
X0151355Y0351543D01*
X0150495Y0351392D01*
X0144761Y0346431D02*
X0143699Y0344914D01*
X0143851Y0344054D01*
X0144862Y0343346D01*
X0140106Y0345939D02*
X0139398Y0344928D01*
X0138539Y0344776D01*
X0137527Y0345484D01*
X0137376Y0346344D01*
X0138084Y0347355D01*
X0138943Y0347507D01*
X0139449Y0347153D01*
X0138033Y0345130D01*
X0137842Y0343782D02*
X0136325Y0344844D01*
X0137842Y0343782D02*
X0137994Y0342922D01*
X0137134Y0342770D01*
X0137286Y0341911D01*
X0136426Y0341759D01*
X0134909Y0342821D01*
X0134718Y0341473D02*
X0133859Y0341321D01*
X0133151Y0340310D01*
X0133302Y0339450D01*
X0134313Y0338742D01*
X0135173Y0338894D01*
X0135881Y0339905D01*
X0135730Y0340765D01*
X0134718Y0341473D01*
X0139134Y0348855D02*
X0141157Y0347439D01*
X0140146Y0348147D02*
X0139842Y0349867D01*
X0140196Y0350372D01*
X0106591Y0373098D02*
X0106591Y0374333D01*
X0105974Y0374950D01*
X0105974Y0376164D02*
X0106591Y0376781D01*
X0106591Y0378016D01*
X0105974Y0378633D01*
X0104739Y0378633D01*
X0104122Y0378016D01*
X0104122Y0377399D01*
X0104739Y0376164D01*
X0102888Y0376164D01*
X0102888Y0378633D01*
X0103505Y0374950D02*
X0102888Y0374333D01*
X0102888Y0373098D01*
X0103505Y0372481D01*
X0105974Y0372481D01*
X0106591Y0373098D01*
X0095122Y0370079D02*
X0094505Y0370696D01*
X0093888Y0370696D01*
X0093271Y0370079D01*
X0093271Y0368227D01*
X0094505Y0368227D01*
X0095122Y0368844D01*
X0095122Y0370079D01*
X0093271Y0368227D02*
X0092036Y0369462D01*
X0091419Y0370696D01*
X0092036Y0367013D02*
X0091419Y0366396D01*
X0091419Y0365161D01*
X0092036Y0364544D01*
X0094505Y0364544D01*
X0095122Y0365161D01*
X0095122Y0366396D01*
X0094505Y0367013D01*
X0105450Y0390631D02*
X0105450Y0394334D01*
X0107302Y0394334D01*
X0107919Y0393717D01*
X0107919Y0392482D01*
X0107302Y0391865D01*
X0105450Y0391865D01*
X0109133Y0390631D02*
X0109133Y0394334D01*
X0111602Y0390631D01*
X0111602Y0394334D01*
X0112816Y0394334D02*
X0114668Y0394334D01*
X0115285Y0393717D01*
X0115285Y0392482D01*
X0114668Y0391865D01*
X0112816Y0391865D01*
X0112816Y0390631D02*
X0112816Y0394334D01*
X0070952Y0390541D02*
X0068484Y0390541D01*
X0070335Y0392393D01*
X0070335Y0388690D01*
X0067269Y0388690D02*
X0066035Y0389924D01*
X0066652Y0389924D02*
X0064800Y0389924D01*
X0064800Y0388690D02*
X0064800Y0392393D01*
X0066652Y0392393D01*
X0067269Y0391776D01*
X0067269Y0390541D01*
X0066652Y0389924D01*
X0063131Y0369259D02*
X0063748Y0368642D01*
X0063748Y0367407D01*
X0063131Y0366790D01*
X0061897Y0366790D02*
X0061280Y0368025D01*
X0061280Y0368642D01*
X0061897Y0369259D01*
X0063131Y0369259D01*
X0061897Y0366790D02*
X0060045Y0366790D01*
X0060045Y0369259D01*
X0060662Y0365576D02*
X0060045Y0364959D01*
X0060045Y0363107D01*
X0063748Y0363107D01*
X0062514Y0363107D02*
X0062514Y0364959D01*
X0061897Y0365576D01*
X0060662Y0365576D01*
X0062514Y0364341D02*
X0063748Y0365576D01*
X0046032Y0365439D02*
X0046032Y0366673D01*
X0045415Y0367291D01*
X0044798Y0367291D01*
X0044180Y0366673D01*
X0044180Y0364822D01*
X0045415Y0364822D01*
X0046032Y0365439D01*
X0046032Y0363607D02*
X0044798Y0362373D01*
X0044798Y0362990D02*
X0044798Y0361139D01*
X0046032Y0361139D02*
X0042329Y0361139D01*
X0042329Y0362990D01*
X0042946Y0363607D01*
X0044180Y0363607D01*
X0044798Y0362990D01*
X0044180Y0364822D02*
X0042946Y0366056D01*
X0042329Y0367291D01*
X0027933Y0266499D02*
X0027933Y0264031D01*
X0025465Y0266499D01*
X0024848Y0266499D01*
X0024230Y0265882D01*
X0024230Y0264648D01*
X0024848Y0264031D01*
X0024848Y0262816D02*
X0024230Y0262199D01*
X0024230Y0260347D01*
X0027933Y0260347D01*
X0027933Y0262199D01*
X0027316Y0262816D01*
X0024848Y0262816D01*
X0024230Y0259133D02*
X0024230Y0256664D01*
X0027933Y0256664D01*
X0027933Y0259133D01*
X0026082Y0257899D02*
X0026082Y0256664D01*
X0027933Y0255450D02*
X0027933Y0252981D01*
X0024230Y0252981D01*
X0025450Y0247834D02*
X0027302Y0247834D01*
X0027919Y0247217D01*
X0027919Y0245982D01*
X0027302Y0245365D01*
X0025450Y0245365D01*
X0025450Y0244131D02*
X0025450Y0247834D01*
X0029133Y0247834D02*
X0031602Y0244131D01*
X0031602Y0247834D01*
X0032816Y0247834D02*
X0032816Y0244131D01*
X0032816Y0245365D02*
X0034668Y0245365D01*
X0035285Y0245982D01*
X0035285Y0247217D01*
X0034668Y0247834D01*
X0032816Y0247834D01*
X0029133Y0247834D02*
X0029133Y0244131D01*
X0019933Y0252981D02*
X0016230Y0252981D01*
X0016230Y0254833D01*
X0016848Y0255450D01*
X0018082Y0255450D01*
X0018699Y0254833D01*
X0018699Y0252981D01*
X0018699Y0254215D02*
X0019933Y0255450D01*
X0019316Y0256664D02*
X0018699Y0256664D01*
X0018082Y0257281D01*
X0018082Y0258516D01*
X0018699Y0259133D01*
X0019316Y0259133D01*
X0019933Y0258516D01*
X0019933Y0257281D01*
X0019316Y0256664D01*
X0018082Y0257281D02*
X0017465Y0256664D01*
X0016848Y0256664D01*
X0016230Y0257281D01*
X0016230Y0258516D01*
X0016848Y0259133D01*
X0017465Y0259133D01*
X0018082Y0258516D01*
X0010843Y0256664D02*
X0010226Y0256664D01*
X0007757Y0259133D01*
X0007140Y0259133D01*
X0007140Y0256664D01*
X0007757Y0255450D02*
X0008991Y0255450D01*
X0009609Y0254833D01*
X0009609Y0252981D01*
X0010843Y0252981D02*
X0007140Y0252981D01*
X0007140Y0254833D01*
X0007757Y0255450D01*
X0009609Y0254215D02*
X0010843Y0255450D01*
X0171092Y0224491D02*
X0171092Y0220788D01*
X0173561Y0220788D01*
X0174775Y0221405D02*
X0175392Y0220788D01*
X0176626Y0220788D01*
X0177244Y0221405D01*
X0177244Y0222023D01*
X0176626Y0222640D01*
X0175392Y0222640D01*
X0174775Y0223257D01*
X0174775Y0223874D01*
X0175392Y0224491D01*
X0176626Y0224491D01*
X0177244Y0223874D01*
X0178458Y0223874D02*
X0179075Y0224491D01*
X0180310Y0224491D01*
X0180927Y0223874D01*
X0180927Y0223257D01*
X0178458Y0220788D01*
X0180927Y0220788D01*
X0176009Y0220171D02*
X0176009Y0225109D01*
X0173561Y0224491D02*
X0171092Y0224491D01*
X0171092Y0222640D02*
X0172326Y0222640D01*
X0263799Y0332992D02*
X0264304Y0333346D01*
X0267743Y0332739D01*
X0268248Y0333093D01*
X0266832Y0335116D01*
X0269153Y0335986D02*
X0269861Y0334975D01*
X0270720Y0334823D01*
X0271226Y0335177D01*
X0271377Y0336037D01*
X0270315Y0337554D01*
X0269304Y0336846D01*
X0269153Y0335986D01*
X0270315Y0337554D02*
X0272034Y0337251D01*
X0273248Y0336593D01*
X0263748Y0349593D02*
X0262332Y0351616D01*
X0260815Y0350554D01*
X0262029Y0349897D01*
X0262383Y0349391D01*
X0262231Y0348531D01*
X0261220Y0347823D01*
X0260361Y0347975D01*
X0259653Y0348986D01*
X0259804Y0349846D01*
X0258394Y0346599D02*
X0255815Y0347054D01*
X0257231Y0345031D01*
X0255361Y0344475D02*
X0258394Y0346599D01*
X0256596Y0034893D02*
X0257213Y0034276D01*
X0257213Y0033041D01*
X0256596Y0032424D01*
X0254127Y0034893D01*
X0256596Y0034893D01*
X0256596Y0032424D02*
X0254127Y0032424D01*
X0253510Y0033041D01*
X0253510Y0034276D01*
X0254127Y0034893D01*
X0255361Y0031210D02*
X0255361Y0028741D01*
X0253510Y0030593D01*
X0257213Y0030593D01*
X0140213Y0031593D02*
X0136510Y0031593D01*
X0138361Y0029741D01*
X0138361Y0032210D01*
X0137744Y0033424D02*
X0136510Y0034658D01*
X0140213Y0034658D01*
X0140213Y0033424D02*
X0140213Y0035893D01*
D15*
X0214983Y0272481D02*
X0214993Y0273335D01*
X0215025Y0274189D01*
X0215077Y0275042D01*
X0215151Y0275894D01*
X0215245Y0276743D01*
X0215360Y0277590D01*
X0215496Y0278433D01*
X0215652Y0279273D01*
X0215829Y0280109D01*
X0216026Y0280941D01*
X0216244Y0281767D01*
X0216482Y0282588D01*
X0216740Y0283402D01*
X0217018Y0284210D01*
X0217316Y0285011D01*
X0217633Y0285805D01*
X0217970Y0286590D01*
X0218326Y0287367D01*
X0218701Y0288135D01*
X0219094Y0288894D01*
X0219506Y0289642D01*
X0219936Y0290381D01*
X0220385Y0291108D01*
X0220851Y0291824D01*
X0221334Y0292529D01*
X0221835Y0293221D01*
X0222352Y0293902D01*
X0222886Y0294569D01*
X0223436Y0295223D01*
X0224002Y0295863D01*
X0224584Y0296489D01*
X0225181Y0297100D01*
X0225792Y0297697D01*
X0226418Y0298279D01*
X0227058Y0298845D01*
X0227712Y0299395D01*
X0228379Y0299929D01*
X0229060Y0300446D01*
X0229752Y0300947D01*
X0230457Y0301430D01*
X0231173Y0301896D01*
X0231900Y0302345D01*
X0232639Y0302775D01*
X0233387Y0303187D01*
X0234146Y0303580D01*
X0234914Y0303955D01*
X0235691Y0304311D01*
X0236476Y0304648D01*
X0237270Y0304965D01*
X0238071Y0305263D01*
X0238879Y0305541D01*
X0239693Y0305799D01*
X0240514Y0306037D01*
X0241340Y0306255D01*
X0242172Y0306452D01*
X0243008Y0306629D01*
X0243848Y0306785D01*
X0244691Y0306921D01*
X0245538Y0307036D01*
X0246387Y0307130D01*
X0247239Y0307204D01*
X0248092Y0307256D01*
X0248946Y0307288D01*
X0249800Y0307298D01*
X0250654Y0307288D01*
X0251508Y0307256D01*
X0252361Y0307204D01*
X0253213Y0307130D01*
X0254062Y0307036D01*
X0254909Y0306921D01*
X0255752Y0306785D01*
X0256592Y0306629D01*
X0257428Y0306452D01*
X0258260Y0306255D01*
X0259086Y0306037D01*
X0259907Y0305799D01*
X0260721Y0305541D01*
X0261529Y0305263D01*
X0262330Y0304965D01*
X0263124Y0304648D01*
X0263909Y0304311D01*
X0264686Y0303955D01*
X0265454Y0303580D01*
X0266213Y0303187D01*
X0266961Y0302775D01*
X0267700Y0302345D01*
X0268427Y0301896D01*
X0269143Y0301430D01*
X0269848Y0300947D01*
X0270540Y0300446D01*
X0271221Y0299929D01*
X0271888Y0299395D01*
X0272542Y0298845D01*
X0273182Y0298279D01*
X0273808Y0297697D01*
X0274419Y0297100D01*
X0275016Y0296489D01*
X0275598Y0295863D01*
X0276164Y0295223D01*
X0276714Y0294569D01*
X0277248Y0293902D01*
X0277765Y0293221D01*
X0278266Y0292529D01*
X0278749Y0291824D01*
X0279215Y0291108D01*
X0279664Y0290381D01*
X0280094Y0289642D01*
X0280506Y0288894D01*
X0280899Y0288135D01*
X0281274Y0287367D01*
X0281630Y0286590D01*
X0281967Y0285805D01*
X0282284Y0285011D01*
X0282582Y0284210D01*
X0282860Y0283402D01*
X0283118Y0282588D01*
X0283356Y0281767D01*
X0283574Y0280941D01*
X0283771Y0280109D01*
X0283948Y0279273D01*
X0284104Y0278433D01*
X0284240Y0277590D01*
X0284355Y0276743D01*
X0284449Y0275894D01*
X0284523Y0275042D01*
X0284575Y0274189D01*
X0284607Y0273335D01*
X0284617Y0272481D01*
X0284607Y0271627D01*
X0284575Y0270773D01*
X0284523Y0269920D01*
X0284449Y0269068D01*
X0284355Y0268219D01*
X0284240Y0267372D01*
X0284104Y0266529D01*
X0283948Y0265689D01*
X0283771Y0264853D01*
X0283574Y0264021D01*
X0283356Y0263195D01*
X0283118Y0262374D01*
X0282860Y0261560D01*
X0282582Y0260752D01*
X0282284Y0259951D01*
X0281967Y0259157D01*
X0281630Y0258372D01*
X0281274Y0257595D01*
X0280899Y0256827D01*
X0280506Y0256068D01*
X0280094Y0255320D01*
X0279664Y0254581D01*
X0279215Y0253854D01*
X0278749Y0253138D01*
X0278266Y0252433D01*
X0277765Y0251741D01*
X0277248Y0251060D01*
X0276714Y0250393D01*
X0276164Y0249739D01*
X0275598Y0249099D01*
X0275016Y0248473D01*
X0274419Y0247862D01*
X0273808Y0247265D01*
X0273182Y0246683D01*
X0272542Y0246117D01*
X0271888Y0245567D01*
X0271221Y0245033D01*
X0270540Y0244516D01*
X0269848Y0244015D01*
X0269143Y0243532D01*
X0268427Y0243066D01*
X0267700Y0242617D01*
X0266961Y0242187D01*
X0266213Y0241775D01*
X0265454Y0241382D01*
X0264686Y0241007D01*
X0263909Y0240651D01*
X0263124Y0240314D01*
X0262330Y0239997D01*
X0261529Y0239699D01*
X0260721Y0239421D01*
X0259907Y0239163D01*
X0259086Y0238925D01*
X0258260Y0238707D01*
X0257428Y0238510D01*
X0256592Y0238333D01*
X0255752Y0238177D01*
X0254909Y0238041D01*
X0254062Y0237926D01*
X0253213Y0237832D01*
X0252361Y0237758D01*
X0251508Y0237706D01*
X0250654Y0237674D01*
X0249800Y0237664D01*
X0248946Y0237674D01*
X0248092Y0237706D01*
X0247239Y0237758D01*
X0246387Y0237832D01*
X0245538Y0237926D01*
X0244691Y0238041D01*
X0243848Y0238177D01*
X0243008Y0238333D01*
X0242172Y0238510D01*
X0241340Y0238707D01*
X0240514Y0238925D01*
X0239693Y0239163D01*
X0238879Y0239421D01*
X0238071Y0239699D01*
X0237270Y0239997D01*
X0236476Y0240314D01*
X0235691Y0240651D01*
X0234914Y0241007D01*
X0234146Y0241382D01*
X0233387Y0241775D01*
X0232639Y0242187D01*
X0231900Y0242617D01*
X0231173Y0243066D01*
X0230457Y0243532D01*
X0229752Y0244015D01*
X0229060Y0244516D01*
X0228379Y0245033D01*
X0227712Y0245567D01*
X0227058Y0246117D01*
X0226418Y0246683D01*
X0225792Y0247265D01*
X0225181Y0247862D01*
X0224584Y0248473D01*
X0224002Y0249099D01*
X0223436Y0249739D01*
X0222886Y0250393D01*
X0222352Y0251060D01*
X0221835Y0251741D01*
X0221334Y0252433D01*
X0220851Y0253138D01*
X0220385Y0253854D01*
X0219936Y0254581D01*
X0219506Y0255320D01*
X0219094Y0256068D01*
X0218701Y0256827D01*
X0218326Y0257595D01*
X0217970Y0258372D01*
X0217633Y0259157D01*
X0217316Y0259951D01*
X0217018Y0260752D01*
X0216740Y0261560D01*
X0216482Y0262374D01*
X0216244Y0263195D01*
X0216026Y0264021D01*
X0215829Y0264853D01*
X0215652Y0265689D01*
X0215496Y0266529D01*
X0215360Y0267372D01*
X0215245Y0268219D01*
X0215151Y0269068D01*
X0215077Y0269920D01*
X0215025Y0270773D01*
X0214993Y0271627D01*
X0214983Y0272481D01*
D16*
X0240550Y0273301D02*
X0242585Y0275336D01*
X0242585Y0269231D01*
X0240550Y0269231D02*
X0244620Y0269231D01*
X0246627Y0270248D02*
X0247645Y0269231D01*
X0249680Y0269231D01*
X0250697Y0270248D01*
X0250697Y0272283D01*
X0249680Y0273301D01*
X0248662Y0273301D01*
X0246627Y0272283D01*
X0246627Y0275336D01*
X0250697Y0275336D01*
X0252704Y0273301D02*
X0252704Y0270248D01*
X0253722Y0269231D01*
X0256775Y0269231D01*
X0256775Y0273301D01*
X0258782Y0272283D02*
X0262852Y0272283D01*
X0262852Y0269231D02*
X0262852Y0275336D01*
X0258782Y0275336D02*
X0258782Y0269231D01*
X0282735Y0257106D02*
X0282735Y0255605D01*
X0283486Y0254854D01*
X0283486Y0253253D02*
X0282735Y0252502D01*
X0282735Y0251001D01*
X0283486Y0250250D01*
X0286488Y0250250D01*
X0287239Y0251001D01*
X0287239Y0252502D01*
X0286488Y0253253D01*
X0287239Y0254854D02*
X0284236Y0257857D01*
X0283486Y0257857D01*
X0282735Y0257106D01*
X0287239Y0257857D02*
X0287239Y0254854D01*
X0311034Y0254555D02*
X0312756Y0252096D01*
X0311895Y0253326D02*
X0315585Y0255909D01*
X0313494Y0256278D01*
X0329393Y0267041D02*
X0327671Y0269500D01*
X0328532Y0268271D02*
X0332221Y0270854D01*
X0330130Y0271223D01*
X0341930Y0255680D02*
X0342975Y0255495D01*
X0343836Y0254266D01*
X0343652Y0253220D01*
X0343037Y0252790D01*
X0338855Y0253527D01*
X0340578Y0251067D01*
X0339802Y0234235D02*
X0338301Y0234235D01*
X0337550Y0233484D01*
X0337550Y0232733D01*
X0338301Y0231983D01*
X0340553Y0231983D01*
X0340553Y0233484D02*
X0339802Y0234235D01*
X0340553Y0233484D02*
X0340553Y0230481D01*
X0339802Y0229731D01*
X0338301Y0229731D01*
X0337550Y0230481D01*
X0334051Y0225235D02*
X0334051Y0220731D01*
X0332550Y0220731D02*
X0335553Y0220731D01*
X0332550Y0223733D02*
X0334051Y0225235D01*
X0366499Y0203841D02*
X0366499Y0202340D01*
X0366499Y0203091D02*
X0371003Y0203091D01*
X0371003Y0203841D02*
X0371003Y0202340D01*
X0368751Y0200739D02*
X0369501Y0199988D01*
X0369501Y0197736D01*
X0371003Y0197736D02*
X0366499Y0197736D01*
X0366499Y0199988D01*
X0367250Y0200739D01*
X0368751Y0200739D01*
X0368751Y0196135D02*
X0369501Y0195384D01*
X0369501Y0193132D01*
X0369501Y0194634D02*
X0371003Y0196135D01*
X0368751Y0196135D02*
X0367250Y0196135D01*
X0366499Y0195384D01*
X0366499Y0193132D01*
X0371003Y0193132D01*
X0394499Y0197634D02*
X0399003Y0197634D01*
X0399003Y0199135D02*
X0399003Y0196132D01*
X0396000Y0196132D02*
X0394499Y0197634D01*
X0313019Y0290438D02*
X0311296Y0292897D01*
X0315478Y0292160D01*
X0316093Y0292590D01*
X0316277Y0293636D01*
X0315416Y0294865D01*
X0314371Y0295050D01*
X0301834Y0306411D02*
X0300112Y0308871D01*
X0300973Y0307641D02*
X0304662Y0310224D01*
X0302571Y0310593D01*
X0287164Y0296509D02*
X0288887Y0294049D01*
X0287226Y0293803D02*
X0287042Y0292758D01*
X0285812Y0291896D01*
X0284767Y0292081D01*
X0283906Y0293311D01*
X0284090Y0294356D01*
X0285320Y0295217D02*
X0286796Y0294418D01*
X0287226Y0293803D01*
X0285320Y0295217D02*
X0287164Y0296509D01*
X0289190Y0292307D02*
X0290236Y0292123D01*
X0291097Y0290893D01*
X0290912Y0289847D01*
X0286731Y0290585D01*
X0286546Y0289539D01*
X0287407Y0288309D01*
X0288453Y0288125D01*
X0290912Y0289847D01*
X0289190Y0292307D02*
X0286731Y0290585D01*
X0275553Y0323731D02*
X0272550Y0323731D01*
X0274051Y0323731D02*
X0274051Y0328235D01*
X0272550Y0326733D01*
X0278301Y0332731D02*
X0277550Y0333481D01*
X0277550Y0334232D01*
X0278301Y0334983D01*
X0279802Y0334983D01*
X0280553Y0334232D01*
X0280553Y0333481D01*
X0279802Y0332731D01*
X0278301Y0332731D01*
X0278301Y0334983D02*
X0277550Y0335733D01*
X0277550Y0336484D01*
X0278301Y0337235D01*
X0279802Y0337235D01*
X0280553Y0336484D01*
X0280553Y0335733D01*
X0279802Y0334983D01*
X0281230Y0357750D02*
X0284232Y0357750D01*
X0284983Y0358501D01*
X0284983Y0360002D01*
X0284232Y0360753D01*
X0282731Y0362354D02*
X0282731Y0365357D01*
X0284983Y0364606D02*
X0280479Y0364606D01*
X0282731Y0362354D01*
X0281230Y0360753D02*
X0280479Y0360002D01*
X0280479Y0358501D01*
X0281230Y0357750D01*
X0310007Y0359168D02*
X0310007Y0360669D01*
X0310757Y0361420D01*
X0311508Y0361420D01*
X0312259Y0360669D01*
X0313009Y0361420D01*
X0313760Y0361420D01*
X0314511Y0360669D01*
X0314511Y0359168D01*
X0313760Y0358417D01*
X0313760Y0356816D02*
X0314511Y0356065D01*
X0314511Y0354564D01*
X0313760Y0353813D01*
X0310757Y0353813D01*
X0310007Y0354564D01*
X0310007Y0356065D01*
X0310757Y0356816D01*
X0310757Y0358417D02*
X0310007Y0359168D01*
X0312259Y0359919D02*
X0312259Y0360669D01*
X0312011Y0381691D02*
X0310510Y0381691D01*
X0309759Y0382442D01*
X0309759Y0385445D01*
X0310510Y0386195D01*
X0312011Y0386195D01*
X0312762Y0385445D01*
X0314363Y0386195D02*
X0317366Y0386195D01*
X0317366Y0385445D01*
X0314363Y0382442D01*
X0314363Y0381691D01*
X0312762Y0382442D02*
X0312011Y0381691D01*
X0366499Y0385384D02*
X0368751Y0383132D01*
X0368751Y0386135D01*
X0370252Y0387736D02*
X0367250Y0390739D01*
X0370252Y0390739D01*
X0371003Y0389988D01*
X0371003Y0388487D01*
X0370252Y0387736D01*
X0367250Y0387736D01*
X0366499Y0388487D01*
X0366499Y0389988D01*
X0367250Y0390739D01*
X0366499Y0385384D02*
X0371003Y0385384D01*
X0236550Y0310107D02*
X0236550Y0307105D01*
X0236550Y0308606D02*
X0232046Y0308606D01*
X0233547Y0307105D01*
X0227550Y0312855D02*
X0226799Y0312105D01*
X0227550Y0312855D02*
X0227550Y0314357D01*
X0226799Y0315107D01*
X0225298Y0315107D01*
X0224547Y0314357D01*
X0224547Y0313606D01*
X0225298Y0312105D01*
X0223046Y0312105D01*
X0223046Y0315107D01*
X0223797Y0316709D02*
X0223046Y0317459D01*
X0223046Y0318961D01*
X0223797Y0319711D01*
X0224547Y0319711D01*
X0227550Y0316709D01*
X0227550Y0319711D01*
X0205715Y0319506D02*
X0202712Y0319506D01*
X0202712Y0317254D01*
X0204213Y0318005D01*
X0204964Y0318005D01*
X0205715Y0317254D01*
X0205715Y0315753D01*
X0204964Y0315002D01*
X0203463Y0315002D01*
X0202712Y0315753D01*
X0201111Y0315753D02*
X0200360Y0315002D01*
X0198859Y0315002D01*
X0198108Y0315753D01*
X0201111Y0318756D01*
X0201111Y0315753D01*
X0201111Y0318756D02*
X0200360Y0319506D01*
X0198859Y0319506D01*
X0198108Y0318756D01*
X0198108Y0315753D01*
X0196507Y0315753D02*
X0195756Y0315002D01*
X0194255Y0315002D01*
X0193504Y0315753D01*
X0193504Y0316504D01*
X0194255Y0317254D01*
X0195756Y0317254D01*
X0196507Y0316504D01*
X0196507Y0315753D01*
X0195756Y0317254D02*
X0196507Y0318005D01*
X0196507Y0318756D01*
X0195756Y0319506D01*
X0194255Y0319506D01*
X0193504Y0318756D01*
X0193504Y0318005D01*
X0194255Y0317254D01*
X0191903Y0318756D02*
X0191903Y0319506D01*
X0188900Y0319506D01*
X0191903Y0318756D02*
X0188900Y0315753D01*
X0188900Y0315002D01*
X0133278Y0360832D02*
X0132528Y0360081D01*
X0133278Y0360832D02*
X0133278Y0362333D01*
X0132528Y0363084D01*
X0131026Y0363084D01*
X0130276Y0362333D01*
X0130276Y0361582D01*
X0131026Y0360081D01*
X0128775Y0360081D01*
X0128775Y0363084D01*
X0131026Y0364685D02*
X0128775Y0366937D01*
X0133278Y0366937D01*
X0131026Y0367688D02*
X0131026Y0364685D01*
X0036050Y0271233D02*
X0036050Y0268231D01*
X0036050Y0269732D02*
X0031546Y0269732D01*
X0033047Y0268231D01*
X0008050Y0266983D02*
X0008050Y0265481D01*
X0007299Y0264731D01*
X0005798Y0264731D02*
X0005047Y0266232D01*
X0005047Y0266983D01*
X0005798Y0267733D01*
X0007299Y0267733D01*
X0008050Y0266983D01*
X0007299Y0269335D02*
X0008050Y0270085D01*
X0008050Y0271587D01*
X0007299Y0272337D01*
X0006549Y0272337D01*
X0005798Y0271587D01*
X0005798Y0270836D01*
X0005798Y0271587D02*
X0005047Y0272337D01*
X0004297Y0272337D01*
X0003546Y0271587D01*
X0003546Y0270085D01*
X0004297Y0269335D01*
X0003546Y0267733D02*
X0003546Y0264731D01*
X0005798Y0264731D01*
X0026361Y0152110D02*
X0026361Y0149107D01*
X0026361Y0150608D02*
X0021857Y0150608D01*
X0023358Y0149107D01*
X0022608Y0147506D02*
X0021857Y0146755D01*
X0021857Y0145254D01*
X0022608Y0144503D01*
X0025610Y0144503D01*
X0026361Y0145254D01*
X0026361Y0146755D01*
X0025610Y0147506D01*
X0149420Y0122744D02*
X0150171Y0123494D01*
X0151672Y0123494D01*
X0152423Y0122744D01*
X0152423Y0121993D01*
X0149420Y0118991D01*
X0152423Y0118991D01*
X0154024Y0119741D02*
X0154024Y0120492D01*
X0154775Y0121242D01*
X0156276Y0121242D01*
X0157027Y0120492D01*
X0157027Y0119741D01*
X0156276Y0118991D01*
X0154775Y0118991D01*
X0154024Y0119741D01*
X0154775Y0121242D02*
X0154024Y0121993D01*
X0154024Y0122744D01*
X0154775Y0123494D01*
X0156276Y0123494D01*
X0157027Y0122744D01*
X0157027Y0121993D01*
X0156276Y0121242D01*
X0154421Y0104994D02*
X0152920Y0103493D01*
X0154421Y0104994D02*
X0154421Y0100491D01*
X0152920Y0100491D02*
X0155923Y0100491D01*
X0161632Y0030054D02*
X0160131Y0028553D01*
X0161632Y0030054D02*
X0161632Y0025550D01*
X0160131Y0025550D02*
X0163133Y0025550D01*
X0179631Y0025550D02*
X0182633Y0028553D01*
X0182633Y0029303D01*
X0181883Y0030054D01*
X0180381Y0030054D01*
X0179631Y0029303D01*
X0179631Y0025550D02*
X0182633Y0025550D01*
X0169687Y0007854D02*
X0167435Y0005602D01*
X0170437Y0005602D01*
X0169687Y0003350D02*
X0169687Y0007854D01*
X0165833Y0007103D02*
X0165083Y0007854D01*
X0163581Y0007854D01*
X0162831Y0007103D01*
X0165833Y0007103D02*
X0165833Y0006353D01*
X0162831Y0003350D01*
X0165833Y0003350D01*
X0212831Y0003350D02*
X0215833Y0006353D01*
X0215833Y0007103D01*
X0215083Y0007854D01*
X0213581Y0007854D01*
X0212831Y0007103D01*
X0212831Y0003350D02*
X0215833Y0003350D01*
X0217435Y0004101D02*
X0218185Y0003350D01*
X0219687Y0003350D01*
X0220437Y0004101D01*
X0220437Y0005602D01*
X0219687Y0006353D01*
X0218936Y0006353D01*
X0217435Y0005602D01*
X0217435Y0007854D01*
X0220437Y0007854D01*
X0213133Y0025550D02*
X0210131Y0025550D01*
X0211632Y0025550D02*
X0211632Y0030054D01*
X0210131Y0028553D01*
X0229631Y0029303D02*
X0230381Y0030054D01*
X0231883Y0030054D01*
X0232633Y0029303D01*
X0232633Y0028553D01*
X0229631Y0025550D01*
X0232633Y0025550D01*
X0261920Y0118491D02*
X0264923Y0118491D01*
X0263421Y0118491D02*
X0263421Y0122994D01*
X0261920Y0121493D01*
X0266524Y0122244D02*
X0267275Y0122994D01*
X0268776Y0122994D01*
X0269527Y0122244D01*
X0269527Y0121493D01*
X0266524Y0118491D01*
X0269527Y0118491D01*
X0269527Y0188491D02*
X0266524Y0188491D01*
X0269527Y0191493D01*
X0269527Y0192244D01*
X0268776Y0192994D01*
X0267275Y0192994D01*
X0266524Y0192244D01*
X0263421Y0192994D02*
X0263421Y0188491D01*
X0261920Y0188491D02*
X0264923Y0188491D01*
X0261920Y0191493D02*
X0263421Y0192994D01*
X0157027Y0192744D02*
X0154024Y0189741D01*
X0154024Y0188991D01*
X0152423Y0188991D02*
X0149420Y0188991D01*
X0152423Y0191993D01*
X0152423Y0192744D01*
X0151672Y0193494D01*
X0150171Y0193494D01*
X0149420Y0192744D01*
X0154024Y0193494D02*
X0157027Y0193494D01*
X0157027Y0192744D01*
X0154421Y0174994D02*
X0154421Y0170491D01*
X0152920Y0170491D02*
X0155923Y0170491D01*
X0152920Y0173493D02*
X0154421Y0174994D01*
X0008050Y0385231D02*
X0005047Y0388233D01*
X0004297Y0388233D01*
X0003546Y0387483D01*
X0003546Y0385981D01*
X0004297Y0385231D01*
X0008050Y0385231D02*
X0008050Y0388233D01*
X0007299Y0389835D02*
X0008050Y0390585D01*
X0008050Y0392087D01*
X0007299Y0392837D01*
X0006549Y0392837D01*
X0005798Y0392087D01*
X0005798Y0389835D01*
X0007299Y0389835D01*
X0005798Y0389835D02*
X0004297Y0391336D01*
X0003546Y0392837D01*
D17*
X0052090Y0192758D02*
X0052090Y0177145D01*
X0052090Y0122594D02*
X0052090Y0106981D01*
X0044283Y0114787D02*
X0059897Y0114787D01*
X0342283Y0169563D02*
X0357897Y0169563D01*
X0350090Y0161757D02*
X0350090Y0177370D01*
X0350090Y0130594D02*
X0350090Y0114981D01*
D18*
X0221335Y0233827D02*
X0181965Y0233827D01*
X0181965Y0304693D01*
X0221335Y0304693D01*
X0221335Y0233827D01*
D19*
X0336140Y0372981D02*
X0336148Y0373672D01*
X0336174Y0374363D01*
X0336216Y0375053D01*
X0336276Y0375741D01*
X0336352Y0376428D01*
X0336445Y0377113D01*
X0336555Y0377795D01*
X0336681Y0378475D01*
X0336824Y0379151D01*
X0336984Y0379823D01*
X0337160Y0380492D01*
X0337353Y0381155D01*
X0337561Y0381814D01*
X0337786Y0382468D01*
X0338027Y0383116D01*
X0338284Y0383757D01*
X0338556Y0384393D01*
X0338844Y0385021D01*
X0339147Y0385642D01*
X0339465Y0386256D01*
X0339798Y0386861D01*
X0340146Y0387458D01*
X0340509Y0388047D01*
X0340886Y0388626D01*
X0341277Y0389196D01*
X0341682Y0389756D01*
X0342100Y0390306D01*
X0342532Y0390846D01*
X0342977Y0391374D01*
X0343435Y0391892D01*
X0343905Y0392398D01*
X0344388Y0392893D01*
X0344883Y0393376D01*
X0345389Y0393846D01*
X0345907Y0394304D01*
X0346435Y0394749D01*
X0346975Y0395181D01*
X0347525Y0395599D01*
X0348085Y0396004D01*
X0348655Y0396395D01*
X0349234Y0396772D01*
X0349823Y0397135D01*
X0350420Y0397483D01*
X0351025Y0397816D01*
X0351639Y0398134D01*
X0352260Y0398437D01*
X0352888Y0398725D01*
X0353524Y0398997D01*
X0354165Y0399254D01*
X0354813Y0399495D01*
X0355467Y0399720D01*
X0356126Y0399928D01*
X0356789Y0400121D01*
X0357458Y0400297D01*
X0358130Y0400457D01*
X0358806Y0400600D01*
X0359486Y0400726D01*
X0360168Y0400836D01*
X0360853Y0400929D01*
X0361540Y0401005D01*
X0362228Y0401065D01*
X0362918Y0401107D01*
X0363609Y0401133D01*
X0364300Y0401141D01*
X0364991Y0401133D01*
X0365682Y0401107D01*
X0366372Y0401065D01*
X0367060Y0401005D01*
X0367747Y0400929D01*
X0368432Y0400836D01*
X0369114Y0400726D01*
X0369794Y0400600D01*
X0370470Y0400457D01*
X0371142Y0400297D01*
X0371811Y0400121D01*
X0372474Y0399928D01*
X0373133Y0399720D01*
X0373787Y0399495D01*
X0374435Y0399254D01*
X0375076Y0398997D01*
X0375712Y0398725D01*
X0376340Y0398437D01*
X0376961Y0398134D01*
X0377575Y0397816D01*
X0378180Y0397483D01*
X0378777Y0397135D01*
X0379366Y0396772D01*
X0379945Y0396395D01*
X0380515Y0396004D01*
X0381075Y0395599D01*
X0381625Y0395181D01*
X0382165Y0394749D01*
X0382693Y0394304D01*
X0383211Y0393846D01*
X0383717Y0393376D01*
X0384212Y0392893D01*
X0384695Y0392398D01*
X0385165Y0391892D01*
X0385623Y0391374D01*
X0386068Y0390846D01*
X0386500Y0390306D01*
X0386918Y0389756D01*
X0387323Y0389196D01*
X0387714Y0388626D01*
X0388091Y0388047D01*
X0388454Y0387458D01*
X0388802Y0386861D01*
X0389135Y0386256D01*
X0389453Y0385642D01*
X0389756Y0385021D01*
X0390044Y0384393D01*
X0390316Y0383757D01*
X0390573Y0383116D01*
X0390814Y0382468D01*
X0391039Y0381814D01*
X0391247Y0381155D01*
X0391440Y0380492D01*
X0391616Y0379823D01*
X0391776Y0379151D01*
X0391919Y0378475D01*
X0392045Y0377795D01*
X0392155Y0377113D01*
X0392248Y0376428D01*
X0392324Y0375741D01*
X0392384Y0375053D01*
X0392426Y0374363D01*
X0392452Y0373672D01*
X0392460Y0372981D01*
X0392452Y0372290D01*
X0392426Y0371599D01*
X0392384Y0370909D01*
X0392324Y0370221D01*
X0392248Y0369534D01*
X0392155Y0368849D01*
X0392045Y0368167D01*
X0391919Y0367487D01*
X0391776Y0366811D01*
X0391616Y0366139D01*
X0391440Y0365470D01*
X0391247Y0364807D01*
X0391039Y0364148D01*
X0390814Y0363494D01*
X0390573Y0362846D01*
X0390316Y0362205D01*
X0390044Y0361569D01*
X0389756Y0360941D01*
X0389453Y0360320D01*
X0389135Y0359706D01*
X0388802Y0359101D01*
X0388454Y0358504D01*
X0388091Y0357915D01*
X0387714Y0357336D01*
X0387323Y0356766D01*
X0386918Y0356206D01*
X0386500Y0355656D01*
X0386068Y0355116D01*
X0385623Y0354588D01*
X0385165Y0354070D01*
X0384695Y0353564D01*
X0384212Y0353069D01*
X0383717Y0352586D01*
X0383211Y0352116D01*
X0382693Y0351658D01*
X0382165Y0351213D01*
X0381625Y0350781D01*
X0381075Y0350363D01*
X0380515Y0349958D01*
X0379945Y0349567D01*
X0379366Y0349190D01*
X0378777Y0348827D01*
X0378180Y0348479D01*
X0377575Y0348146D01*
X0376961Y0347828D01*
X0376340Y0347525D01*
X0375712Y0347237D01*
X0375076Y0346965D01*
X0374435Y0346708D01*
X0373787Y0346467D01*
X0373133Y0346242D01*
X0372474Y0346034D01*
X0371811Y0345841D01*
X0371142Y0345665D01*
X0370470Y0345505D01*
X0369794Y0345362D01*
X0369114Y0345236D01*
X0368432Y0345126D01*
X0367747Y0345033D01*
X0367060Y0344957D01*
X0366372Y0344897D01*
X0365682Y0344855D01*
X0364991Y0344829D01*
X0364300Y0344821D01*
X0363609Y0344829D01*
X0362918Y0344855D01*
X0362228Y0344897D01*
X0361540Y0344957D01*
X0360853Y0345033D01*
X0360168Y0345126D01*
X0359486Y0345236D01*
X0358806Y0345362D01*
X0358130Y0345505D01*
X0357458Y0345665D01*
X0356789Y0345841D01*
X0356126Y0346034D01*
X0355467Y0346242D01*
X0354813Y0346467D01*
X0354165Y0346708D01*
X0353524Y0346965D01*
X0352888Y0347237D01*
X0352260Y0347525D01*
X0351639Y0347828D01*
X0351025Y0348146D01*
X0350420Y0348479D01*
X0349823Y0348827D01*
X0349234Y0349190D01*
X0348655Y0349567D01*
X0348085Y0349958D01*
X0347525Y0350363D01*
X0346975Y0350781D01*
X0346435Y0351213D01*
X0345907Y0351658D01*
X0345389Y0352116D01*
X0344883Y0352586D01*
X0344388Y0353069D01*
X0343905Y0353564D01*
X0343435Y0354070D01*
X0342977Y0354588D01*
X0342532Y0355116D01*
X0342100Y0355656D01*
X0341682Y0356206D01*
X0341277Y0356766D01*
X0340886Y0357336D01*
X0340509Y0357915D01*
X0340146Y0358504D01*
X0339798Y0359101D01*
X0339465Y0359706D01*
X0339147Y0360320D01*
X0338844Y0360941D01*
X0338556Y0361569D01*
X0338284Y0362205D01*
X0338027Y0362846D01*
X0337786Y0363494D01*
X0337561Y0364148D01*
X0337353Y0364807D01*
X0337160Y0365470D01*
X0336984Y0366139D01*
X0336824Y0366811D01*
X0336681Y0367487D01*
X0336555Y0368167D01*
X0336445Y0368849D01*
X0336352Y0369534D01*
X0336276Y0370221D01*
X0336216Y0370909D01*
X0336174Y0371599D01*
X0336148Y0372290D01*
X0336140Y0372981D01*
D20*
X0257800Y0364481D02*
X0230800Y0364481D01*
X0230300Y0363981D01*
X0257800Y0364481D02*
X0257800Y0395481D01*
X0209800Y0395481D01*
X0188800Y0385981D02*
X0140800Y0385981D01*
X0140800Y0350481D01*
X0168300Y0350481D01*
X0131300Y0349481D02*
X0131300Y0300481D01*
X0114800Y0283981D01*
X0042300Y0283981D01*
X0042300Y0349481D01*
X0131300Y0349481D01*
X0144800Y0266481D02*
X0144800Y0259481D01*
X0148300Y0262981D02*
X0140800Y0262981D01*
X0137800Y0262981D02*
X0131300Y0262981D01*
X0129300Y0262981D02*
X0129302Y0263044D01*
X0129308Y0263106D01*
X0129318Y0263168D01*
X0129331Y0263230D01*
X0129349Y0263290D01*
X0129370Y0263349D01*
X0129395Y0263407D01*
X0129424Y0263463D01*
X0129456Y0263517D01*
X0129491Y0263569D01*
X0129529Y0263618D01*
X0129571Y0263666D01*
X0129615Y0263710D01*
X0129663Y0263752D01*
X0129712Y0263790D01*
X0129764Y0263825D01*
X0129818Y0263857D01*
X0129874Y0263886D01*
X0129932Y0263911D01*
X0129991Y0263932D01*
X0130051Y0263950D01*
X0130113Y0263963D01*
X0130175Y0263973D01*
X0130237Y0263979D01*
X0130300Y0263981D01*
X0130363Y0263979D01*
X0130425Y0263973D01*
X0130487Y0263963D01*
X0130549Y0263950D01*
X0130609Y0263932D01*
X0130668Y0263911D01*
X0130726Y0263886D01*
X0130782Y0263857D01*
X0130836Y0263825D01*
X0130888Y0263790D01*
X0130937Y0263752D01*
X0130985Y0263710D01*
X0131029Y0263666D01*
X0131071Y0263618D01*
X0131109Y0263569D01*
X0131144Y0263517D01*
X0131176Y0263463D01*
X0131205Y0263407D01*
X0131230Y0263349D01*
X0131251Y0263290D01*
X0131269Y0263230D01*
X0131282Y0263168D01*
X0131292Y0263106D01*
X0131298Y0263044D01*
X0131300Y0262981D01*
X0131298Y0262918D01*
X0131292Y0262856D01*
X0131282Y0262794D01*
X0131269Y0262732D01*
X0131251Y0262672D01*
X0131230Y0262613D01*
X0131205Y0262555D01*
X0131176Y0262499D01*
X0131144Y0262445D01*
X0131109Y0262393D01*
X0131071Y0262344D01*
X0131029Y0262296D01*
X0130985Y0262252D01*
X0130937Y0262210D01*
X0130888Y0262172D01*
X0130836Y0262137D01*
X0130782Y0262105D01*
X0130726Y0262076D01*
X0130668Y0262051D01*
X0130609Y0262030D01*
X0130549Y0262012D01*
X0130487Y0261999D01*
X0130425Y0261989D01*
X0130363Y0261983D01*
X0130300Y0261981D01*
X0130237Y0261983D01*
X0130175Y0261989D01*
X0130113Y0261999D01*
X0130051Y0262012D01*
X0129991Y0262030D01*
X0129932Y0262051D01*
X0129874Y0262076D01*
X0129818Y0262105D01*
X0129764Y0262137D01*
X0129712Y0262172D01*
X0129663Y0262210D01*
X0129615Y0262252D01*
X0129571Y0262296D01*
X0129529Y0262344D01*
X0129491Y0262393D01*
X0129456Y0262445D01*
X0129424Y0262499D01*
X0129395Y0262555D01*
X0129370Y0262613D01*
X0129349Y0262672D01*
X0129331Y0262732D01*
X0129318Y0262794D01*
X0129308Y0262856D01*
X0129302Y0262918D01*
X0129300Y0262981D01*
X0128300Y0262981D02*
X0128302Y0263058D01*
X0128308Y0263135D01*
X0128318Y0263212D01*
X0128332Y0263288D01*
X0128349Y0263363D01*
X0128371Y0263437D01*
X0128396Y0263510D01*
X0128426Y0263582D01*
X0128458Y0263652D01*
X0128495Y0263720D01*
X0128534Y0263786D01*
X0128577Y0263850D01*
X0128624Y0263912D01*
X0128673Y0263971D01*
X0128726Y0264028D01*
X0128781Y0264082D01*
X0128839Y0264133D01*
X0128900Y0264181D01*
X0128963Y0264226D01*
X0129028Y0264267D01*
X0129095Y0264305D01*
X0129164Y0264340D01*
X0129235Y0264370D01*
X0129307Y0264398D01*
X0129381Y0264421D01*
X0129455Y0264441D01*
X0129531Y0264457D01*
X0129607Y0264469D01*
X0129684Y0264477D01*
X0129761Y0264481D01*
X0129839Y0264481D01*
X0129916Y0264477D01*
X0129993Y0264469D01*
X0130069Y0264457D01*
X0130145Y0264441D01*
X0130219Y0264421D01*
X0130293Y0264398D01*
X0130365Y0264370D01*
X0130436Y0264340D01*
X0130505Y0264305D01*
X0130572Y0264267D01*
X0130637Y0264226D01*
X0130700Y0264181D01*
X0130761Y0264133D01*
X0130819Y0264082D01*
X0130874Y0264028D01*
X0130927Y0263971D01*
X0130976Y0263912D01*
X0131023Y0263850D01*
X0131066Y0263786D01*
X0131105Y0263720D01*
X0131142Y0263652D01*
X0131174Y0263582D01*
X0131204Y0263510D01*
X0131229Y0263437D01*
X0131251Y0263363D01*
X0131268Y0263288D01*
X0131282Y0263212D01*
X0131292Y0263135D01*
X0131298Y0263058D01*
X0131300Y0262981D01*
X0131298Y0262904D01*
X0131292Y0262827D01*
X0131282Y0262750D01*
X0131268Y0262674D01*
X0131251Y0262599D01*
X0131229Y0262525D01*
X0131204Y0262452D01*
X0131174Y0262380D01*
X0131142Y0262310D01*
X0131105Y0262242D01*
X0131066Y0262176D01*
X0131023Y0262112D01*
X0130976Y0262050D01*
X0130927Y0261991D01*
X0130874Y0261934D01*
X0130819Y0261880D01*
X0130761Y0261829D01*
X0130700Y0261781D01*
X0130637Y0261736D01*
X0130572Y0261695D01*
X0130505Y0261657D01*
X0130436Y0261622D01*
X0130365Y0261592D01*
X0130293Y0261564D01*
X0130219Y0261541D01*
X0130145Y0261521D01*
X0130069Y0261505D01*
X0129993Y0261493D01*
X0129916Y0261485D01*
X0129839Y0261481D01*
X0129761Y0261481D01*
X0129684Y0261485D01*
X0129607Y0261493D01*
X0129531Y0261505D01*
X0129455Y0261521D01*
X0129381Y0261541D01*
X0129307Y0261564D01*
X0129235Y0261592D01*
X0129164Y0261622D01*
X0129095Y0261657D01*
X0129028Y0261695D01*
X0128963Y0261736D01*
X0128900Y0261781D01*
X0128839Y0261829D01*
X0128781Y0261880D01*
X0128726Y0261934D01*
X0128673Y0261991D01*
X0128624Y0262050D01*
X0128577Y0262112D01*
X0128534Y0262176D01*
X0128495Y0262242D01*
X0128458Y0262310D01*
X0128426Y0262380D01*
X0128396Y0262452D01*
X0128371Y0262525D01*
X0128349Y0262599D01*
X0128332Y0262674D01*
X0128318Y0262750D01*
X0128308Y0262827D01*
X0128302Y0262904D01*
X0128300Y0262981D01*
X0129093Y0263481D02*
X0129095Y0263534D01*
X0129101Y0263586D01*
X0129111Y0263638D01*
X0129124Y0263689D01*
X0129142Y0263739D01*
X0129163Y0263788D01*
X0129188Y0263835D01*
X0129216Y0263879D01*
X0129247Y0263922D01*
X0129282Y0263962D01*
X0129319Y0263999D01*
X0129359Y0264034D01*
X0129402Y0264065D01*
X0129447Y0264093D01*
X0129493Y0264118D01*
X0129542Y0264139D01*
X0129592Y0264157D01*
X0129643Y0264170D01*
X0129695Y0264180D01*
X0129747Y0264186D01*
X0129800Y0264188D01*
X0129853Y0264186D01*
X0129905Y0264180D01*
X0129957Y0264170D01*
X0130008Y0264157D01*
X0130058Y0264139D01*
X0130107Y0264118D01*
X0130154Y0264093D01*
X0130198Y0264065D01*
X0130241Y0264034D01*
X0130281Y0263999D01*
X0130318Y0263962D01*
X0130353Y0263922D01*
X0130384Y0263879D01*
X0130412Y0263834D01*
X0130437Y0263788D01*
X0130458Y0263739D01*
X0130476Y0263689D01*
X0130489Y0263638D01*
X0130499Y0263586D01*
X0130505Y0263534D01*
X0130507Y0263481D01*
X0130505Y0263428D01*
X0130499Y0263376D01*
X0130489Y0263324D01*
X0130476Y0263273D01*
X0130458Y0263223D01*
X0130437Y0263174D01*
X0130412Y0263127D01*
X0130384Y0263083D01*
X0130353Y0263040D01*
X0130318Y0263000D01*
X0130281Y0262963D01*
X0130241Y0262928D01*
X0130198Y0262897D01*
X0130153Y0262869D01*
X0130107Y0262844D01*
X0130058Y0262823D01*
X0130008Y0262805D01*
X0129957Y0262792D01*
X0129905Y0262782D01*
X0129853Y0262776D01*
X0129800Y0262774D01*
X0129747Y0262776D01*
X0129695Y0262782D01*
X0129643Y0262792D01*
X0129592Y0262805D01*
X0129542Y0262823D01*
X0129493Y0262844D01*
X0129446Y0262869D01*
X0129402Y0262897D01*
X0129359Y0262928D01*
X0129319Y0262963D01*
X0129282Y0263000D01*
X0129247Y0263040D01*
X0129216Y0263083D01*
X0129188Y0263128D01*
X0129163Y0263174D01*
X0129142Y0263223D01*
X0129124Y0263273D01*
X0129111Y0263324D01*
X0129101Y0263376D01*
X0129095Y0263428D01*
X0129093Y0263481D01*
X0131300Y0267481D02*
X0131173Y0267521D01*
X0131046Y0267557D01*
X0130918Y0267590D01*
X0130788Y0267619D01*
X0130658Y0267643D01*
X0130527Y0267664D01*
X0130396Y0267682D01*
X0130264Y0267695D01*
X0130132Y0267704D01*
X0130000Y0267709D01*
X0129867Y0267711D01*
X0129735Y0267709D01*
X0129602Y0267702D01*
X0129470Y0267692D01*
X0129339Y0267678D01*
X0129207Y0267660D01*
X0129077Y0267638D01*
X0128947Y0267612D01*
X0128818Y0267582D01*
X0128689Y0267549D01*
X0128562Y0267512D01*
X0128436Y0267471D01*
X0128312Y0267426D01*
X0128188Y0267378D01*
X0128066Y0267326D01*
X0127946Y0267271D01*
X0127827Y0267212D01*
X0127711Y0267149D01*
X0127596Y0267083D01*
X0127483Y0267014D01*
X0127372Y0266941D01*
X0127263Y0266865D01*
X0127157Y0266786D01*
X0127053Y0266704D01*
X0126952Y0266619D01*
X0126853Y0266531D01*
X0126757Y0266440D01*
X0126663Y0266346D01*
X0126572Y0266249D01*
X0126485Y0266150D01*
X0126400Y0266048D01*
X0126318Y0265944D01*
X0126239Y0265838D01*
X0126164Y0265729D01*
X0126092Y0265618D01*
X0126023Y0265505D01*
X0125957Y0265389D01*
X0125895Y0265272D01*
X0125837Y0265154D01*
X0125781Y0265033D01*
X0125730Y0264911D01*
X0125682Y0264788D01*
X0125638Y0264663D01*
X0125597Y0264537D01*
X0125561Y0264409D01*
X0125528Y0264281D01*
X0125499Y0264152D01*
X0125473Y0264022D01*
X0125452Y0263891D01*
X0125434Y0263760D01*
X0125421Y0263628D01*
X0125411Y0263496D01*
X0125405Y0263363D01*
X0125403Y0263231D01*
X0125405Y0263099D01*
X0125411Y0262966D01*
X0125421Y0262834D01*
X0125434Y0262702D01*
X0125452Y0262571D01*
X0125473Y0262440D01*
X0125499Y0262310D01*
X0125528Y0262181D01*
X0125561Y0262053D01*
X0125597Y0261925D01*
X0125638Y0261799D01*
X0125682Y0261674D01*
X0125730Y0261551D01*
X0125781Y0261429D01*
X0125837Y0261308D01*
X0125895Y0261190D01*
X0125957Y0261073D01*
X0126023Y0260957D01*
X0126092Y0260844D01*
X0126164Y0260733D01*
X0126239Y0260624D01*
X0126318Y0260518D01*
X0126400Y0260414D01*
X0126485Y0260312D01*
X0126572Y0260213D01*
X0126663Y0260116D01*
X0126757Y0260022D01*
X0126853Y0259931D01*
X0126952Y0259843D01*
X0127053Y0259758D01*
X0127157Y0259676D01*
X0127263Y0259597D01*
X0127372Y0259521D01*
X0127483Y0259448D01*
X0127596Y0259379D01*
X0127711Y0259313D01*
X0127827Y0259250D01*
X0127946Y0259191D01*
X0128066Y0259136D01*
X0128188Y0259084D01*
X0128312Y0259036D01*
X0128436Y0258991D01*
X0128562Y0258950D01*
X0128689Y0258913D01*
X0128818Y0258880D01*
X0128947Y0258850D01*
X0129077Y0258824D01*
X0129207Y0258802D01*
X0129339Y0258784D01*
X0129470Y0258770D01*
X0129602Y0258760D01*
X0129735Y0258753D01*
X0129867Y0258751D01*
X0130000Y0258753D01*
X0130132Y0258758D01*
X0130264Y0258767D01*
X0130396Y0258780D01*
X0130527Y0258798D01*
X0130658Y0258819D01*
X0130788Y0258843D01*
X0130918Y0258872D01*
X0131046Y0258905D01*
X0131173Y0258941D01*
X0131300Y0258981D01*
X0125300Y0263481D02*
X0118800Y0263481D01*
X0115800Y0263481D02*
X0112300Y0263481D01*
X0101800Y0254981D02*
X0156300Y0254981D01*
X0156300Y0219481D01*
X0101300Y0219481D01*
X0101300Y0253981D01*
X0101800Y0254481D01*
X0092300Y0250481D02*
X0046800Y0250481D01*
X0046800Y0218981D01*
X0070800Y0218981D01*
X0068800Y0214981D02*
X0014800Y0214981D01*
X0014800Y0179481D01*
X0046800Y0179481D01*
D21*
X0129038Y0174053D02*
X0134910Y0174053D01*
X0133182Y0106989D02*
X0133182Y0101118D01*
X0130246Y0104053D02*
X0136118Y0104053D01*
X0268246Y0104053D02*
X0274118Y0104053D01*
X0269974Y0171118D02*
X0269974Y0176989D01*
X0267038Y0174053D02*
X0272910Y0174053D01*
D22*
X0308276Y0174001D02*
X0308276Y0172500D01*
X0309277Y0172500D01*
X0309750Y0172750D02*
X0310000Y0172500D01*
X0310500Y0172500D01*
X0310750Y0172750D01*
X0310750Y0173000D01*
X0310500Y0173250D01*
X0310000Y0173250D01*
X0309750Y0173501D01*
X0309750Y0173751D01*
X0310000Y0174001D01*
X0310500Y0174001D01*
X0310750Y0173751D01*
X0311223Y0173751D02*
X0311473Y0174001D01*
X0311973Y0174001D01*
X0312224Y0173751D01*
X0312224Y0173501D01*
X0311973Y0173250D01*
X0312224Y0173000D01*
X0312224Y0172750D01*
X0311973Y0172500D01*
X0311473Y0172500D01*
X0311223Y0172750D01*
X0311723Y0173250D02*
X0311973Y0173250D01*
X0310250Y0174251D02*
X0310250Y0172249D01*
X0308777Y0173250D02*
X0308276Y0173250D01*
X0308276Y0174001D02*
X0309277Y0174001D01*
X0096643Y0104100D02*
X0095643Y0104100D01*
X0096143Y0104100D02*
X0096143Y0105601D01*
X0095643Y0105101D01*
X0095170Y0105351D02*
X0094920Y0105601D01*
X0094419Y0105601D01*
X0094169Y0105351D01*
X0094169Y0105101D01*
X0094419Y0104850D01*
X0094920Y0104850D01*
X0095170Y0104600D01*
X0095170Y0104350D01*
X0094920Y0104100D01*
X0094419Y0104100D01*
X0094169Y0104350D01*
X0093697Y0104100D02*
X0092696Y0104100D01*
X0092696Y0105601D01*
X0093697Y0105601D01*
X0093196Y0104850D02*
X0092696Y0104850D01*
X0094670Y0105851D02*
X0094670Y0103849D01*
D23*
X0081524Y0086510D02*
X0067824Y0086510D01*
X0067824Y0121510D01*
X0081524Y0121510D01*
X0081524Y0125910D01*
X0119063Y0125910D01*
X0119063Y0082110D01*
X0081524Y0082110D01*
X0081524Y0086510D01*
X0081524Y0152110D02*
X0081524Y0156510D01*
X0067824Y0156510D01*
X0067824Y0191510D01*
X0081524Y0191510D01*
X0081524Y0195910D01*
X0119063Y0195910D01*
X0119063Y0152110D01*
X0081524Y0152110D01*
X0185461Y0261874D02*
X0185461Y0267504D01*
X0185461Y0261874D02*
X0218139Y0261874D01*
X0218139Y0267504D01*
X0286229Y0195989D02*
X0323768Y0195989D01*
X0323768Y0191589D01*
X0337468Y0191589D01*
X0337468Y0156589D01*
X0323768Y0156589D01*
X0323768Y0152189D01*
X0286229Y0152189D01*
X0286229Y0195989D01*
X0286229Y0125989D02*
X0323768Y0125989D01*
X0323768Y0121589D01*
X0337468Y0121589D01*
X0337468Y0086589D01*
X0323768Y0086589D01*
X0323768Y0082189D01*
X0286229Y0082189D01*
X0286229Y0125989D01*
D24*
X0267402Y0048276D02*
X0265040Y0048276D01*
X0267402Y0048276D02*
X0274095Y0041583D01*
X0274095Y0022685D01*
X0265040Y0022685D01*
X0257560Y0022685D02*
X0248505Y0022685D01*
X0248505Y0041583D01*
X0255198Y0048276D01*
X0257560Y0048276D01*
X0265040Y0047096D02*
X0265323Y0047001D01*
X0265604Y0046899D01*
X0265881Y0046790D01*
X0266157Y0046675D01*
X0266429Y0046553D01*
X0266698Y0046424D01*
X0266964Y0046289D01*
X0267226Y0046147D01*
X0267485Y0045999D01*
X0267741Y0045845D01*
X0267992Y0045684D01*
X0268240Y0045517D01*
X0268483Y0045345D01*
X0268722Y0045166D01*
X0268957Y0044982D01*
X0269187Y0044792D01*
X0269412Y0044596D01*
X0269632Y0044395D01*
X0269848Y0044189D01*
X0270058Y0043977D01*
X0270263Y0043761D01*
X0270463Y0043539D01*
X0270657Y0043312D01*
X0270846Y0043081D01*
X0271029Y0042846D01*
X0271206Y0042606D01*
X0271377Y0042361D01*
X0271542Y0042113D01*
X0271701Y0041860D01*
X0271854Y0041604D01*
X0272001Y0041344D01*
X0272141Y0041081D01*
X0272275Y0040814D01*
X0272402Y0040544D01*
X0272522Y0040271D01*
X0272636Y0039996D01*
X0272743Y0039717D01*
X0272843Y0039436D01*
X0272936Y0039153D01*
X0273023Y0038867D01*
X0273102Y0038579D01*
X0273174Y0038290D01*
X0273239Y0037999D01*
X0273297Y0037706D01*
X0273348Y0037412D01*
X0273392Y0037117D01*
X0273428Y0036821D01*
X0273457Y0036524D01*
X0273479Y0036226D01*
X0273494Y0035928D01*
X0273501Y0035630D01*
X0273501Y0035332D01*
X0273494Y0035034D01*
X0273479Y0034736D01*
X0273457Y0034438D01*
X0273428Y0034141D01*
X0273392Y0033845D01*
X0273348Y0033550D01*
X0273297Y0033256D01*
X0273239Y0032963D01*
X0273174Y0032672D01*
X0273102Y0032383D01*
X0273023Y0032095D01*
X0272936Y0031809D01*
X0272843Y0031526D01*
X0272743Y0031245D01*
X0272636Y0030966D01*
X0272522Y0030691D01*
X0272402Y0030418D01*
X0272275Y0030148D01*
X0272141Y0029881D01*
X0272001Y0029618D01*
X0271854Y0029358D01*
X0271701Y0029102D01*
X0271542Y0028849D01*
X0271377Y0028601D01*
X0271206Y0028356D01*
X0271029Y0028116D01*
X0270846Y0027881D01*
X0270657Y0027650D01*
X0270463Y0027423D01*
X0270263Y0027201D01*
X0270058Y0026985D01*
X0269848Y0026773D01*
X0269632Y0026567D01*
X0269412Y0026366D01*
X0269187Y0026170D01*
X0268957Y0025980D01*
X0268722Y0025796D01*
X0268483Y0025617D01*
X0268240Y0025445D01*
X0267992Y0025278D01*
X0267741Y0025117D01*
X0267485Y0024963D01*
X0267226Y0024815D01*
X0266964Y0024673D01*
X0266698Y0024538D01*
X0266429Y0024409D01*
X0266157Y0024287D01*
X0265881Y0024172D01*
X0265604Y0024063D01*
X0265323Y0023961D01*
X0265040Y0023866D01*
X0257560Y0023866D02*
X0257277Y0023961D01*
X0256996Y0024063D01*
X0256719Y0024172D01*
X0256443Y0024287D01*
X0256171Y0024409D01*
X0255902Y0024538D01*
X0255636Y0024673D01*
X0255374Y0024815D01*
X0255115Y0024963D01*
X0254859Y0025117D01*
X0254608Y0025278D01*
X0254360Y0025445D01*
X0254117Y0025617D01*
X0253878Y0025796D01*
X0253643Y0025980D01*
X0253413Y0026170D01*
X0253188Y0026366D01*
X0252968Y0026567D01*
X0252752Y0026773D01*
X0252542Y0026985D01*
X0252337Y0027201D01*
X0252137Y0027423D01*
X0251943Y0027650D01*
X0251754Y0027881D01*
X0251571Y0028116D01*
X0251394Y0028356D01*
X0251223Y0028601D01*
X0251058Y0028849D01*
X0250899Y0029102D01*
X0250746Y0029358D01*
X0250599Y0029618D01*
X0250459Y0029881D01*
X0250325Y0030148D01*
X0250198Y0030418D01*
X0250078Y0030691D01*
X0249964Y0030966D01*
X0249857Y0031245D01*
X0249757Y0031526D01*
X0249664Y0031809D01*
X0249577Y0032095D01*
X0249498Y0032383D01*
X0249426Y0032672D01*
X0249361Y0032963D01*
X0249303Y0033256D01*
X0249252Y0033550D01*
X0249208Y0033845D01*
X0249172Y0034141D01*
X0249143Y0034438D01*
X0249121Y0034736D01*
X0249106Y0035034D01*
X0249099Y0035332D01*
X0249099Y0035630D01*
X0249106Y0035928D01*
X0249121Y0036226D01*
X0249143Y0036524D01*
X0249172Y0036821D01*
X0249208Y0037117D01*
X0249252Y0037412D01*
X0249303Y0037706D01*
X0249361Y0037999D01*
X0249426Y0038290D01*
X0249498Y0038579D01*
X0249577Y0038867D01*
X0249664Y0039153D01*
X0249757Y0039436D01*
X0249857Y0039717D01*
X0249964Y0039996D01*
X0250078Y0040271D01*
X0250198Y0040544D01*
X0250325Y0040814D01*
X0250459Y0041081D01*
X0250599Y0041344D01*
X0250746Y0041604D01*
X0250899Y0041860D01*
X0251058Y0042113D01*
X0251223Y0042361D01*
X0251394Y0042606D01*
X0251571Y0042846D01*
X0251754Y0043081D01*
X0251943Y0043312D01*
X0252137Y0043539D01*
X0252337Y0043761D01*
X0252542Y0043977D01*
X0252752Y0044189D01*
X0252968Y0044395D01*
X0253188Y0044596D01*
X0253413Y0044792D01*
X0253643Y0044982D01*
X0253878Y0045166D01*
X0254117Y0045345D01*
X0254360Y0045517D01*
X0254608Y0045684D01*
X0254859Y0045845D01*
X0255115Y0045999D01*
X0255374Y0046147D01*
X0255636Y0046289D01*
X0255902Y0046424D01*
X0256171Y0046553D01*
X0256443Y0046675D01*
X0256719Y0046790D01*
X0256996Y0046899D01*
X0257277Y0047001D01*
X0257560Y0047096D01*
X0157095Y0042583D02*
X0157095Y0023685D01*
X0148040Y0023685D01*
X0140560Y0023685D02*
X0131505Y0023685D01*
X0131505Y0042583D01*
X0138198Y0049276D01*
X0140560Y0049276D01*
X0148040Y0049276D02*
X0150402Y0049276D01*
X0157095Y0042583D01*
X0140560Y0048096D02*
X0140277Y0048001D01*
X0139996Y0047899D01*
X0139719Y0047790D01*
X0139443Y0047675D01*
X0139171Y0047553D01*
X0138902Y0047424D01*
X0138636Y0047289D01*
X0138374Y0047147D01*
X0138115Y0046999D01*
X0137859Y0046845D01*
X0137608Y0046684D01*
X0137360Y0046517D01*
X0137117Y0046345D01*
X0136878Y0046166D01*
X0136643Y0045982D01*
X0136413Y0045792D01*
X0136188Y0045596D01*
X0135968Y0045395D01*
X0135752Y0045189D01*
X0135542Y0044977D01*
X0135337Y0044761D01*
X0135137Y0044539D01*
X0134943Y0044312D01*
X0134754Y0044081D01*
X0134571Y0043846D01*
X0134394Y0043606D01*
X0134223Y0043361D01*
X0134058Y0043113D01*
X0133899Y0042860D01*
X0133746Y0042604D01*
X0133599Y0042344D01*
X0133459Y0042081D01*
X0133325Y0041814D01*
X0133198Y0041544D01*
X0133078Y0041271D01*
X0132964Y0040996D01*
X0132857Y0040717D01*
X0132757Y0040436D01*
X0132664Y0040153D01*
X0132577Y0039867D01*
X0132498Y0039579D01*
X0132426Y0039290D01*
X0132361Y0038999D01*
X0132303Y0038706D01*
X0132252Y0038412D01*
X0132208Y0038117D01*
X0132172Y0037821D01*
X0132143Y0037524D01*
X0132121Y0037226D01*
X0132106Y0036928D01*
X0132099Y0036630D01*
X0132099Y0036332D01*
X0132106Y0036034D01*
X0132121Y0035736D01*
X0132143Y0035438D01*
X0132172Y0035141D01*
X0132208Y0034845D01*
X0132252Y0034550D01*
X0132303Y0034256D01*
X0132361Y0033963D01*
X0132426Y0033672D01*
X0132498Y0033383D01*
X0132577Y0033095D01*
X0132664Y0032809D01*
X0132757Y0032526D01*
X0132857Y0032245D01*
X0132964Y0031966D01*
X0133078Y0031691D01*
X0133198Y0031418D01*
X0133325Y0031148D01*
X0133459Y0030881D01*
X0133599Y0030618D01*
X0133746Y0030358D01*
X0133899Y0030102D01*
X0134058Y0029849D01*
X0134223Y0029601D01*
X0134394Y0029356D01*
X0134571Y0029116D01*
X0134754Y0028881D01*
X0134943Y0028650D01*
X0135137Y0028423D01*
X0135337Y0028201D01*
X0135542Y0027985D01*
X0135752Y0027773D01*
X0135968Y0027567D01*
X0136188Y0027366D01*
X0136413Y0027170D01*
X0136643Y0026980D01*
X0136878Y0026796D01*
X0137117Y0026617D01*
X0137360Y0026445D01*
X0137608Y0026278D01*
X0137859Y0026117D01*
X0138115Y0025963D01*
X0138374Y0025815D01*
X0138636Y0025673D01*
X0138902Y0025538D01*
X0139171Y0025409D01*
X0139443Y0025287D01*
X0139719Y0025172D01*
X0139996Y0025063D01*
X0140277Y0024961D01*
X0140560Y0024866D01*
X0148040Y0024866D02*
X0148323Y0024961D01*
X0148604Y0025063D01*
X0148881Y0025172D01*
X0149157Y0025287D01*
X0149429Y0025409D01*
X0149698Y0025538D01*
X0149964Y0025673D01*
X0150226Y0025815D01*
X0150485Y0025963D01*
X0150741Y0026117D01*
X0150992Y0026278D01*
X0151240Y0026445D01*
X0151483Y0026617D01*
X0151722Y0026796D01*
X0151957Y0026980D01*
X0152187Y0027170D01*
X0152412Y0027366D01*
X0152632Y0027567D01*
X0152848Y0027773D01*
X0153058Y0027985D01*
X0153263Y0028201D01*
X0153463Y0028423D01*
X0153657Y0028650D01*
X0153846Y0028881D01*
X0154029Y0029116D01*
X0154206Y0029356D01*
X0154377Y0029601D01*
X0154542Y0029849D01*
X0154701Y0030102D01*
X0154854Y0030358D01*
X0155001Y0030618D01*
X0155141Y0030881D01*
X0155275Y0031148D01*
X0155402Y0031418D01*
X0155522Y0031691D01*
X0155636Y0031966D01*
X0155743Y0032245D01*
X0155843Y0032526D01*
X0155936Y0032809D01*
X0156023Y0033095D01*
X0156102Y0033383D01*
X0156174Y0033672D01*
X0156239Y0033963D01*
X0156297Y0034256D01*
X0156348Y0034550D01*
X0156392Y0034845D01*
X0156428Y0035141D01*
X0156457Y0035438D01*
X0156479Y0035736D01*
X0156494Y0036034D01*
X0156501Y0036332D01*
X0156501Y0036630D01*
X0156494Y0036928D01*
X0156479Y0037226D01*
X0156457Y0037524D01*
X0156428Y0037821D01*
X0156392Y0038117D01*
X0156348Y0038412D01*
X0156297Y0038706D01*
X0156239Y0038999D01*
X0156174Y0039290D01*
X0156102Y0039579D01*
X0156023Y0039867D01*
X0155936Y0040153D01*
X0155843Y0040436D01*
X0155743Y0040717D01*
X0155636Y0040996D01*
X0155522Y0041271D01*
X0155402Y0041544D01*
X0155275Y0041814D01*
X0155141Y0042081D01*
X0155001Y0042344D01*
X0154854Y0042604D01*
X0154701Y0042860D01*
X0154542Y0043113D01*
X0154377Y0043361D01*
X0154206Y0043606D01*
X0154029Y0043846D01*
X0153846Y0044081D01*
X0153657Y0044312D01*
X0153463Y0044539D01*
X0153263Y0044761D01*
X0153058Y0044977D01*
X0152848Y0045189D01*
X0152632Y0045395D01*
X0152412Y0045596D01*
X0152187Y0045792D01*
X0151957Y0045982D01*
X0151722Y0046166D01*
X0151483Y0046345D01*
X0151240Y0046517D01*
X0150992Y0046684D01*
X0150741Y0046845D01*
X0150485Y0046999D01*
X0150226Y0047147D01*
X0149964Y0047289D01*
X0149698Y0047424D01*
X0149429Y0047553D01*
X0149157Y0047675D01*
X0148881Y0047790D01*
X0148604Y0047899D01*
X0148323Y0048001D01*
X0148040Y0048096D01*
X0176996Y0269181D02*
X0181600Y0269181D01*
X0181600Y0272250D01*
X0180833Y0273785D02*
X0181600Y0274552D01*
X0181600Y0276087D01*
X0180833Y0276854D01*
X0180065Y0276854D01*
X0179298Y0276087D01*
X0179298Y0274552D01*
X0178531Y0273785D01*
X0177763Y0273785D01*
X0176996Y0274552D01*
X0176996Y0276087D01*
X0177763Y0276854D01*
X0176229Y0275319D02*
X0182367Y0275319D01*
X0179298Y0278389D02*
X0179298Y0281458D01*
X0176996Y0280691D02*
X0179298Y0278389D01*
X0181600Y0280691D02*
X0176996Y0280691D01*
X0176996Y0272250D02*
X0176996Y0269181D01*
X0179298Y0269181D02*
X0179298Y0270715D01*
X0308953Y0307708D02*
X0308953Y0310010D01*
X0309720Y0310778D01*
X0312789Y0310778D01*
X0313557Y0310010D01*
X0313557Y0307708D01*
X0308953Y0307708D01*
X0308953Y0312312D02*
X0308953Y0314614D01*
X0309720Y0315381D01*
X0311255Y0315381D01*
X0312022Y0314614D01*
X0312022Y0312312D01*
X0313557Y0312312D02*
X0308953Y0312312D01*
X0312022Y0313847D02*
X0313557Y0315381D01*
X0312022Y0316916D02*
X0313557Y0318451D01*
X0312022Y0319985D01*
X0308953Y0319985D01*
X0309720Y0321520D02*
X0308953Y0322287D01*
X0308953Y0323822D01*
X0309720Y0324589D01*
X0310487Y0324589D01*
X0313557Y0321520D01*
X0313557Y0324589D01*
X0312022Y0316916D02*
X0308953Y0316916D01*
X0333953Y0293055D02*
X0338557Y0293055D01*
X0338557Y0294589D02*
X0338557Y0291520D01*
X0337022Y0289985D02*
X0333953Y0289985D01*
X0335487Y0291520D02*
X0333953Y0293055D01*
X0337022Y0289985D02*
X0338557Y0288451D01*
X0337022Y0286916D01*
X0333953Y0286916D01*
X0334720Y0285381D02*
X0336255Y0285381D01*
X0337022Y0284614D01*
X0337022Y0282312D01*
X0338557Y0282312D02*
X0333953Y0282312D01*
X0333953Y0284614D01*
X0334720Y0285381D01*
X0337022Y0283847D02*
X0338557Y0285381D01*
X0337789Y0280778D02*
X0334720Y0280778D01*
X0333953Y0280010D01*
X0333953Y0277708D01*
X0338557Y0277708D01*
X0338557Y0280010D01*
X0337789Y0280778D01*
X0354016Y0324208D02*
X0353249Y0324976D01*
X0354016Y0324208D02*
X0355551Y0324208D01*
X0356318Y0324976D01*
X0356318Y0326510D01*
X0355551Y0327278D01*
X0354783Y0327278D01*
X0353249Y0326510D01*
X0353249Y0328812D01*
X0356318Y0328812D01*
X0357853Y0328812D02*
X0357853Y0325743D01*
X0359387Y0324208D01*
X0360922Y0325743D01*
X0360922Y0328812D01*
D25*
X0318245Y0036298D03*
X0091800Y0036231D03*
D26*
X0186800Y0258085D03*
X0191800Y0258085D03*
X0196800Y0258085D03*
X0201800Y0258085D03*
X0206800Y0258085D03*
X0211800Y0258085D03*
X0216800Y0258085D03*
D27*
X0216800Y0257199D03*
X0211800Y0257199D03*
X0206800Y0257199D03*
X0201800Y0257199D03*
X0196800Y0257199D03*
X0191800Y0257199D03*
X0186800Y0257199D03*
M02*
