G75*
%MOIN*%
%OFA0B0*%
%FSLAX25Y25*%
%IPPOS*%
%LPD*%
%AMOC8*
5,1,8,0,0,1.08239X$1,22.5*
%
%ADD10R,0.85500X0.16500*%
%ADD11R,0.11500X0.16500*%
%ADD12R,0.65500X0.24500*%
%ADD13R,0.57000X0.27000*%
%ADD14R,0.19000X0.20500*%
%ADD15R,0.02500X0.18000*%
%ADD16R,0.05500X0.09500*%
%ADD17R,0.49500X0.42500*%
%ADD18R,0.14000X0.20500*%
%ADD19R,0.13000X0.08500*%
%ADD20R,0.22500X0.14500*%
%ADD21R,0.24500X0.12500*%
%ADD22R,0.23622X0.23622*%
%ADD23R,0.23622X0.27559*%
%ADD24R,0.23622X0.11811*%
%ADD25R,1.10236X0.11811*%
%ADD26R,0.35433X0.11811*%
%ADD27R,0.19685X0.11811*%
%ADD28R,0.62500X0.15500*%
%ADD29R,0.10500X0.32500*%
%ADD30R,0.43500X0.08500*%
%ADD31R,0.38500X0.09500*%
%ADD32R,0.09500X0.05500*%
%ADD33R,0.02500X0.02000*%
%ADD34R,0.07874X1.10236*%
%ADD35R,0.27000X0.35000*%
%ADD36R,0.10000X0.07000*%
%ADD37C,0.10800*%
%ADD38OC8,0.06000*%
%ADD39C,0.07050*%
%ADD40R,0.02362X0.07087*%
%ADD41R,0.12598X0.09882*%
%ADD42R,0.04134X0.04252*%
%ADD43R,0.04252X0.04134*%
%ADD44R,0.07087X0.02362*%
%ADD45R,0.09882X0.12598*%
%ADD46C,0.06000*%
%ADD47C,0.06600*%
%ADD48C,0.06600*%
%ADD49R,0.05512X0.11811*%
%ADD50C,0.08850*%
%ADD51OC8,0.05200*%
%ADD52C,0.10000*%
%ADD53OC8,0.10000*%
%ADD54OC8,0.06300*%
%ADD55C,0.06300*%
%ADD56R,0.03150X0.11811*%
%ADD57R,0.35433X0.35433*%
%ADD58C,0.16598*%
%ADD59C,0.25400*%
%ADD60C,0.02400*%
%ADD61C,0.01200*%
%ADD62C,0.03962*%
%ADD63C,0.04000*%
%ADD64C,0.05000*%
%ADD65C,0.15024*%
%ADD66C,0.08858*%
%ADD67C,0.01600*%
%ADD68C,0.03200*%
%ADD69C,0.01000*%
%ADD70C,0.05906*%
%ADD71C,0.11811*%
%ADD72C,0.08600*%
%ADD73C,0.07600*%
%ADD74C,0.05600*%
%ADD75C,0.12661*%
%ADD76C,0.10000*%
%ADD77C,0.15000*%
%ADD78C,0.09449*%
D10*
X0195550Y0055731D03*
D11*
X0244050Y0055731D03*
D12*
X0279050Y0069231D03*
D13*
X0128300Y0068481D03*
D14*
X0090800Y0071731D03*
D15*
X0156050Y0072981D03*
D16*
X0252550Y0052231D03*
D17*
X0146050Y0083231D03*
D18*
X0177800Y0094231D03*
D19*
X0191300Y0099731D03*
D20*
X0274050Y0088731D03*
D21*
X0320550Y0075231D03*
D22*
X0205587Y0155087D03*
D23*
X0248894Y0137370D03*
D24*
X0205587Y0129496D03*
D25*
X0162280Y0129496D03*
D26*
X0160312Y0149181D03*
D27*
X0117005Y0149181D03*
D28*
X0248550Y0164231D03*
D29*
X0274550Y0187731D03*
D30*
X0256050Y0199231D03*
D31*
X0251550Y0196231D03*
D32*
X0228550Y0195231D03*
D33*
X0232050Y0197981D03*
D34*
X0343383Y0119654D03*
D35*
X0206300Y0285981D03*
D36*
X0201800Y0267981D03*
D37*
X0296662Y0184089D03*
X0296662Y0164089D03*
X0323229Y0174089D03*
X0296662Y0114089D03*
X0296662Y0094089D03*
X0323229Y0104089D03*
X0108630Y0114010D03*
X0108630Y0094010D03*
X0082063Y0104010D03*
X0108630Y0164010D03*
X0108630Y0184010D03*
X0082063Y0174010D03*
D38*
X0024800Y0269481D03*
X0024800Y0279481D03*
X0024800Y0289481D03*
X0024800Y0299481D03*
X0024800Y0309481D03*
X0024800Y0319481D03*
X0024800Y0329481D03*
X0024800Y0339481D03*
X0024800Y0349481D03*
X0024800Y0359481D03*
X0024800Y0369481D03*
X0024800Y0379481D03*
X0024800Y0389481D03*
X0014800Y0389481D03*
X0014800Y0379481D03*
X0014800Y0369481D03*
X0014800Y0359481D03*
X0014800Y0349481D03*
X0014800Y0339481D03*
X0014800Y0329481D03*
X0014800Y0319481D03*
X0014800Y0309481D03*
X0014800Y0299481D03*
X0014800Y0289481D03*
X0014800Y0279481D03*
X0014800Y0269481D03*
X0377753Y0267882D03*
X0377753Y0277882D03*
X0387753Y0277882D03*
X0387753Y0267882D03*
X0387753Y0257882D03*
X0387753Y0247882D03*
X0387753Y0237882D03*
X0387753Y0227882D03*
X0387753Y0217882D03*
X0387753Y0207882D03*
X0387753Y0197882D03*
X0377753Y0197882D03*
X0377753Y0207882D03*
X0377753Y0217882D03*
X0377753Y0227882D03*
X0377753Y0237882D03*
X0377753Y0247882D03*
X0377753Y0257882D03*
X0377753Y0287882D03*
X0377753Y0297882D03*
X0387753Y0297882D03*
X0387753Y0287882D03*
X0387753Y0307882D03*
X0387753Y0317882D03*
X0377753Y0317882D03*
X0377753Y0307882D03*
X0377753Y0327882D03*
X0377753Y0337882D03*
X0387753Y0337882D03*
X0387753Y0327882D03*
X0387753Y0347882D03*
X0387753Y0357882D03*
X0377753Y0357882D03*
X0377753Y0347882D03*
X0377753Y0367882D03*
X0377753Y0377882D03*
X0387753Y0377882D03*
X0387753Y0367882D03*
X0387753Y0387882D03*
X0377753Y0387882D03*
D39*
X0301096Y0300099D02*
X0295321Y0296055D01*
X0306612Y0279930D02*
X0312387Y0283974D01*
X0328655Y0260729D02*
X0322880Y0256685D01*
X0334171Y0240560D02*
X0339946Y0244604D01*
X0237566Y0021325D02*
X0237566Y0014275D01*
X0217881Y0014275D02*
X0217881Y0021325D01*
X0187566Y0021325D02*
X0187566Y0014275D01*
X0167881Y0014275D02*
X0167881Y0021325D01*
D40*
X0343757Y0274772D03*
X0348757Y0274772D03*
X0353757Y0274772D03*
X0358757Y0274772D03*
X0358757Y0295244D03*
X0353757Y0295244D03*
X0348757Y0295244D03*
X0343757Y0295244D03*
X0333757Y0304772D03*
X0328757Y0304772D03*
X0323757Y0304772D03*
X0318757Y0304772D03*
X0318757Y0325244D03*
X0323757Y0325244D03*
X0328757Y0325244D03*
X0333757Y0325244D03*
D41*
X0326257Y0315008D03*
X0351257Y0285008D03*
D42*
G36*
X0269721Y0326747D02*
X0267349Y0330132D01*
X0270831Y0332571D01*
X0273203Y0329186D01*
X0269721Y0326747D01*
G37*
G36*
X0264721Y0323247D02*
X0262349Y0326632D01*
X0265831Y0329071D01*
X0268203Y0325686D01*
X0264721Y0323247D01*
G37*
G36*
X0260769Y0328891D02*
X0258397Y0332276D01*
X0261879Y0334715D01*
X0264251Y0331330D01*
X0260769Y0328891D01*
G37*
G36*
X0265769Y0332391D02*
X0263397Y0335776D01*
X0266879Y0338215D01*
X0269251Y0334830D01*
X0265769Y0332391D01*
G37*
G36*
X0260221Y0339747D02*
X0257849Y0343132D01*
X0261331Y0345571D01*
X0263703Y0342186D01*
X0260221Y0339747D01*
G37*
G36*
X0255221Y0336247D02*
X0252849Y0339632D01*
X0256331Y0342071D01*
X0258703Y0338686D01*
X0255221Y0336247D01*
G37*
G36*
X0251269Y0341891D02*
X0248897Y0345276D01*
X0252379Y0347715D01*
X0254751Y0344330D01*
X0251269Y0341891D01*
G37*
G36*
X0256269Y0345391D02*
X0253897Y0348776D01*
X0257379Y0351215D01*
X0259751Y0347830D01*
X0256269Y0345391D01*
G37*
X0217371Y0350229D03*
X0210481Y0350229D03*
X0213745Y0341481D03*
X0206855Y0341481D03*
X0197245Y0341481D03*
X0190355Y0341481D03*
X0190481Y0349981D03*
X0197371Y0349981D03*
G36*
X0153220Y0345743D02*
X0150848Y0342358D01*
X0147366Y0344797D01*
X0149738Y0348182D01*
X0153220Y0345743D01*
G37*
G36*
X0149268Y0340099D02*
X0146896Y0336714D01*
X0143414Y0339153D01*
X0145786Y0342538D01*
X0149268Y0340099D01*
G37*
G36*
X0144720Y0333743D02*
X0142348Y0330358D01*
X0138866Y0332797D01*
X0141238Y0336182D01*
X0144720Y0333743D01*
G37*
G36*
X0140768Y0328099D02*
X0138396Y0324714D01*
X0134914Y0327153D01*
X0137286Y0330538D01*
X0140768Y0328099D01*
G37*
G36*
X0103783Y0274806D02*
X0101411Y0271421D01*
X0097929Y0273860D01*
X0100301Y0277245D01*
X0103783Y0274806D01*
G37*
G36*
X0099831Y0269162D02*
X0097459Y0265777D01*
X0093977Y0268216D01*
X0096349Y0271601D01*
X0099831Y0269162D01*
G37*
G36*
X0093814Y0259869D02*
X0091442Y0256484D01*
X0087960Y0258923D01*
X0090332Y0262308D01*
X0093814Y0259869D01*
G37*
G36*
X0089862Y0254225D02*
X0087490Y0250840D01*
X0084008Y0253279D01*
X0086380Y0256664D01*
X0089862Y0254225D01*
G37*
X0170646Y0218079D03*
X0177536Y0218079D03*
X0182355Y0208981D03*
X0189245Y0208981D03*
X0181745Y0200981D03*
X0181855Y0193981D03*
X0188745Y0193981D03*
X0174855Y0200981D03*
X0208855Y0203481D03*
X0215745Y0203481D03*
X0380355Y0162981D03*
X0384355Y0157481D03*
X0387245Y0162981D03*
X0391245Y0157481D03*
X0071245Y0385981D03*
X0064355Y0385981D03*
D43*
X0066457Y0369552D03*
X0066457Y0362662D03*
X0048741Y0360693D03*
X0048741Y0367583D03*
X0097831Y0370989D03*
X0097831Y0364099D03*
X0109300Y0372036D03*
X0109300Y0378926D03*
X0030643Y0259426D03*
X0030643Y0252536D03*
X0022643Y0252536D03*
X0022643Y0259426D03*
X0013552Y0259426D03*
X0013552Y0252536D03*
X0313300Y0319036D03*
X0313300Y0325926D03*
X0343800Y0309426D03*
X0343800Y0302536D03*
D44*
X0344520Y0334008D03*
X0344520Y0339008D03*
X0344520Y0344008D03*
X0344520Y0349008D03*
X0364993Y0349008D03*
X0364993Y0344008D03*
X0364993Y0339008D03*
X0364993Y0334008D03*
D45*
X0354757Y0341508D03*
D46*
X0302300Y0328981D02*
X0302300Y0322981D01*
X0292300Y0322981D02*
X0292300Y0328981D01*
X0282300Y0328981D02*
X0282300Y0322981D01*
X0237300Y0326855D02*
X0231300Y0326855D01*
X0231300Y0316855D02*
X0237300Y0316855D01*
X0237300Y0336855D02*
X0231300Y0336855D01*
X0342300Y0225981D02*
X0342300Y0219981D01*
X0352300Y0219981D02*
X0352300Y0225981D01*
X0362300Y0225981D02*
X0362300Y0219981D01*
X0264170Y0184741D02*
X0264170Y0178741D01*
X0254170Y0178741D02*
X0254170Y0184741D01*
X0244170Y0184741D02*
X0244170Y0178741D01*
X0234170Y0178741D02*
X0234170Y0184741D01*
X0224170Y0184741D02*
X0224170Y0178741D01*
X0214170Y0178741D02*
X0214170Y0184741D01*
X0204170Y0184741D02*
X0204170Y0178741D01*
X0194170Y0178741D02*
X0194170Y0184741D01*
X0184170Y0184741D02*
X0184170Y0178741D01*
X0174170Y0178741D02*
X0174170Y0184741D01*
X0164170Y0184741D02*
X0164170Y0178741D01*
X0154170Y0178741D02*
X0154170Y0184741D01*
X0154170Y0114741D02*
X0154170Y0108741D01*
X0164170Y0108741D02*
X0164170Y0114741D01*
X0174170Y0114741D02*
X0174170Y0108741D01*
X0184170Y0108741D02*
X0184170Y0114741D01*
X0194170Y0114741D02*
X0194170Y0108741D01*
X0204170Y0108741D02*
X0204170Y0114741D01*
X0214170Y0114741D02*
X0214170Y0108741D01*
X0224170Y0108741D02*
X0224170Y0114741D01*
X0234170Y0114741D02*
X0234170Y0108741D01*
X0244170Y0108741D02*
X0244170Y0114741D01*
X0254170Y0114741D02*
X0254170Y0108741D01*
X0264170Y0108741D02*
X0264170Y0114741D01*
D47*
X0297800Y0139481D02*
X0302800Y0139481D01*
X0323300Y0173481D02*
X0323300Y0103981D01*
X0212800Y0164481D02*
X0206800Y0158481D01*
X0206800Y0149981D01*
X0167300Y0148481D02*
X0143800Y0148481D01*
X0122800Y0148481D02*
X0122300Y0148481D01*
X0107300Y0148481D01*
X0081800Y0173981D01*
X0081800Y0174481D01*
X0039863Y0196044D02*
X0071300Y0235355D01*
X0105300Y0128481D02*
X0165800Y0127481D01*
X0105300Y0128481D02*
X0081300Y0104481D01*
X0081300Y0103981D01*
X0231800Y0223981D02*
X0248863Y0252418D01*
X0218800Y0251981D02*
X0250300Y0284481D01*
X0210650Y0323452D02*
X0210650Y0330052D01*
X0201650Y0330052D02*
X0201650Y0323452D01*
X0192650Y0323452D02*
X0192650Y0330052D01*
X0124828Y0363831D02*
X0118228Y0363831D01*
X0118228Y0372831D02*
X0124828Y0372831D01*
X0124828Y0381831D02*
X0118228Y0381831D01*
X0288265Y0353906D02*
X0296139Y0353906D01*
X0305981Y0344063D01*
X0305981Y0346032D01*
X0315824Y0355874D01*
X0315824Y0359811D01*
X0298107Y0359811D01*
X0305981Y0351937D01*
X0309918Y0355874D01*
X0313855Y0349969D02*
X0302044Y0338158D01*
X0302044Y0328315D01*
X0313855Y0349969D02*
X0319761Y0349969D01*
X0319761Y0361780D01*
X0313855Y0365717D02*
X0335509Y0365717D01*
X0337477Y0367685D01*
X0343383Y0367685D01*
X0339446Y0367685D02*
X0335509Y0363748D01*
X0337477Y0367685D02*
X0339446Y0369654D01*
X0339446Y0367685D01*
X0343383Y0371622D02*
X0343383Y0361780D01*
X0345351Y0361780D01*
X0349288Y0357843D01*
X0353225Y0361780D02*
X0343383Y0371622D01*
X0351257Y0369654D02*
X0357162Y0375559D01*
X0368973Y0375559D01*
X0365036Y0375559D02*
X0353225Y0363748D01*
X0353225Y0361780D02*
X0353225Y0346032D01*
X0298107Y0359811D02*
X0294170Y0359811D01*
X0290233Y0361780D02*
X0290233Y0353906D01*
D48*
X0181064Y0252614D03*
X0161064Y0287255D03*
D49*
X0144300Y0045930D03*
X0144300Y0027032D03*
X0261300Y0026032D03*
X0261300Y0044930D03*
D50*
X0285375Y0221981D02*
X0294225Y0221981D01*
X0234225Y0221981D02*
X0225375Y0221981D01*
D51*
X0100800Y0383481D03*
X0095800Y0390981D03*
X0090800Y0383481D03*
X0020300Y0242981D03*
X0015300Y0235481D03*
X0025300Y0235481D03*
D52*
X0091800Y0048481D03*
X0318245Y0048548D03*
D53*
X0318245Y0028548D03*
X0091800Y0028481D03*
D54*
X0016611Y0157961D03*
X0290233Y0353000D03*
X0319761Y0349063D03*
X0323217Y0391441D03*
X0292489Y0245500D03*
D55*
X0292489Y0235500D03*
X0319761Y0339063D03*
X0290233Y0343000D03*
X0333217Y0391441D03*
X0016611Y0167961D03*
D56*
X0186800Y0247800D03*
X0191800Y0247800D03*
X0196800Y0247800D03*
X0201800Y0247800D03*
X0206800Y0247800D03*
X0211800Y0247800D03*
X0216800Y0247800D03*
D57*
X0201800Y0286481D03*
D58*
X0201650Y0367685D03*
X0020548Y0115717D03*
X0020548Y0021229D03*
X0382753Y0021229D03*
X0382753Y0115717D03*
D59*
X0016611Y0123591D02*
X0016611Y0017292D01*
X0071729Y0017292D01*
X0083540Y0029103D01*
X0130784Y0029103D01*
X0134721Y0025166D01*
X0134721Y0017292D01*
X0083540Y0017292D01*
X0063855Y0036977D01*
X0063855Y0044851D01*
X0052044Y0056662D01*
X0052044Y0170835D01*
X0040233Y0155087D02*
X0040233Y0036977D01*
X0036296Y0033040D01*
X0044170Y0033040D01*
X0048107Y0029103D01*
X0016611Y0123591D02*
X0036296Y0143276D01*
X0036296Y0151150D01*
X0040233Y0155087D01*
X0268580Y0017292D02*
X0386690Y0017292D01*
X0382753Y0021229D01*
X0382753Y0123591D01*
X0370942Y0135402D01*
X0370942Y0052725D01*
X0367005Y0056662D01*
X0367005Y0060599D01*
X0331572Y0025166D01*
X0272517Y0025166D01*
X0276454Y0021229D01*
X0347320Y0021229D01*
X0367005Y0040914D01*
X0370942Y0040914D01*
X0370942Y0135402D02*
X0370942Y0143276D01*
D60*
X0390300Y0171481D02*
X0390300Y0184981D01*
X0378800Y0196481D02*
X0377800Y0196481D01*
X0377800Y0197981D02*
X0367300Y0187481D01*
X0366300Y0187481D01*
X0325300Y0138981D02*
X0250300Y0138981D01*
X0258300Y0190481D02*
X0255800Y0192981D01*
X0248300Y0192981D01*
X0189800Y0208981D02*
X0189800Y0212981D01*
X0191800Y0241981D01*
X0178028Y0218079D02*
X0170154Y0198394D01*
X0170154Y0194457D01*
X0174091Y0198394D01*
X0174091Y0202331D01*
X0178028Y0218079D01*
X0170154Y0218079D02*
X0162280Y0198394D01*
X0158343Y0194457D01*
X0154406Y0186583D01*
X0163800Y0186481D02*
X0163800Y0191981D01*
X0165800Y0193981D01*
X0180800Y0193981D01*
X0174091Y0198394D02*
X0170154Y0198394D01*
X0166217Y0190520D01*
X0170154Y0194457D01*
X0165800Y0193981D02*
X0172800Y0200981D01*
X0175300Y0200981D01*
X0182300Y0201981D02*
X0182300Y0208481D01*
X0146532Y0202331D02*
X0115036Y0202331D01*
X0071729Y0182646D01*
X0071729Y0159024D01*
X0071729Y0155087D01*
X0071729Y0151150D02*
X0107162Y0123591D01*
X0107162Y0131465D01*
X0107162Y0135402D01*
X0071729Y0159024D01*
X0047300Y0240481D02*
X0047300Y0256981D01*
X0054737Y0264418D01*
X0081800Y0272292D01*
X0056300Y0339481D02*
X0047800Y0339481D01*
X0037800Y0349481D01*
X0302300Y0324981D02*
X0320017Y0375886D01*
X0357300Y0338981D02*
X0361800Y0338981D01*
X0367800Y0343981D02*
X0369800Y0343981D01*
X0370800Y0342981D01*
X0370800Y0331481D01*
X0362300Y0323981D01*
X0347800Y0323981D01*
X0346800Y0323981D02*
X0346300Y0323981D01*
X0333800Y0321981D02*
X0333800Y0314481D01*
X0338800Y0309481D01*
X0338800Y0290481D01*
X0338800Y0287981D01*
X0345300Y0281481D01*
X0345300Y0283981D02*
X0338800Y0290481D01*
X0341300Y0288481D02*
X0346300Y0288481D01*
X0344300Y0286481D01*
X0345300Y0283981D02*
X0345800Y0283981D01*
X0343300Y0274981D02*
X0333300Y0284981D01*
X0333300Y0286481D01*
X0329300Y0288981D02*
X0317300Y0288981D01*
X0312300Y0283981D01*
X0320300Y0294981D02*
X0301800Y0294981D01*
X0299300Y0297481D01*
X0314300Y0302981D02*
X0318300Y0306981D01*
X0317300Y0307981D01*
X0314300Y0307981D01*
X0314300Y0310981D02*
X0317300Y0307981D01*
X0314300Y0310981D02*
X0314300Y0312981D01*
X0323800Y0300981D02*
X0323800Y0298481D01*
X0320300Y0294981D01*
X0326800Y0294481D02*
X0328800Y0296481D01*
X0328800Y0301481D01*
X0333800Y0301481D02*
X0333800Y0293481D01*
X0329300Y0288981D01*
X0348800Y0271481D02*
X0348800Y0269981D01*
X0339300Y0260481D01*
X0327800Y0260481D01*
X0325800Y0258481D01*
X0341800Y0245481D02*
X0358800Y0262481D01*
X0358800Y0271481D01*
X0353800Y0271481D02*
X0353800Y0266981D01*
X0351300Y0264481D01*
X0357800Y0281481D02*
X0358800Y0282481D01*
X0358800Y0290481D01*
X0357800Y0289481D01*
X0357800Y0282481D01*
X0358300Y0284481D02*
X0358800Y0284981D01*
X0360300Y0284981D01*
X0376300Y0268981D01*
X0377300Y0268981D01*
X0358800Y0290481D02*
X0358800Y0291981D01*
X0333300Y0313481D02*
X0331300Y0311481D01*
X0333300Y0313481D02*
X0333300Y0321481D01*
D61*
X0338300Y0321481D02*
X0340300Y0319481D01*
X0340800Y0318981D01*
X0343300Y0316481D01*
X0376800Y0316481D01*
X0369800Y0319981D02*
X0377300Y0327481D01*
X0369800Y0319981D02*
X0343800Y0319981D01*
X0340800Y0322981D01*
X0340800Y0327981D01*
X0336300Y0332481D01*
X0327800Y0332481D01*
X0323300Y0327981D01*
X0318800Y0326981D02*
X0314800Y0326981D01*
X0314800Y0317981D02*
X0322300Y0317981D01*
X0328300Y0327981D02*
X0330800Y0330481D01*
X0335300Y0330481D01*
X0338300Y0327481D01*
X0338300Y0321481D01*
X0336800Y0310981D02*
X0342300Y0310981D01*
X0343800Y0300981D02*
X0343800Y0297981D01*
X0348800Y0298481D02*
X0348800Y0301981D01*
X0357800Y0310981D01*
X0362300Y0310981D01*
X0362300Y0305981D02*
X0358800Y0305981D01*
X0353800Y0300981D01*
X0353800Y0298481D01*
X0367300Y0298481D02*
X0368300Y0298481D01*
X0377800Y0307981D01*
X0377800Y0287481D02*
X0367300Y0287481D01*
X0341800Y0334481D02*
X0338800Y0334481D01*
X0337300Y0335981D01*
X0331706Y0337949D01*
X0330674Y0340949D01*
X0328706Y0350481D01*
X0326643Y0356481D01*
X0303769Y0334981D02*
X0276300Y0334981D01*
X0271800Y0330481D01*
X0271300Y0330481D01*
X0265300Y0334481D02*
X0263800Y0333481D01*
X0262800Y0332981D01*
X0265800Y0324981D02*
X0273800Y0316981D01*
X0291300Y0316981D01*
X0260800Y0341981D02*
X0259300Y0341981D01*
X0256300Y0338981D01*
X0260800Y0341981D02*
X0260800Y0342481D01*
X0258300Y0348981D02*
X0263209Y0354886D01*
X0261800Y0361981D02*
X0250300Y0350481D01*
X0250300Y0345981D01*
X0150300Y0346481D02*
X0138800Y0349481D01*
X0132800Y0356481D01*
X0132800Y0376981D01*
X0128800Y0381481D01*
X0127800Y0381481D01*
X0120300Y0382481D02*
X0119800Y0382981D01*
X0109800Y0382981D01*
X0109800Y0380481D01*
X0109800Y0382981D02*
X0101300Y0382981D01*
X0094737Y0390855D02*
X0071583Y0386449D01*
X0063300Y0384481D02*
X0035300Y0384481D01*
X0034800Y0384481D01*
X0019800Y0384481D01*
X0015800Y0388481D01*
X0026800Y0377512D02*
X0035430Y0371607D01*
X0065957Y0370607D01*
X0066457Y0362107D02*
X0072363Y0361044D01*
X0079269Y0360044D01*
X0097831Y0360044D01*
X0097831Y0363544D01*
X0097831Y0360044D02*
X0116300Y0360044D01*
X0109269Y0371512D02*
X0099331Y0371512D01*
X0110300Y0373481D02*
X0118800Y0373481D01*
X0127300Y0373481D02*
X0130300Y0370481D01*
X0130300Y0357481D01*
X0130300Y0352981D01*
X0129800Y0353981D01*
X0128800Y0355481D01*
X0129800Y0356481D01*
X0129300Y0354981D01*
X0042300Y0354981D01*
X0036800Y0360981D01*
X0040300Y0355981D02*
X0031800Y0364481D01*
X0019800Y0364481D01*
X0016800Y0367481D01*
X0040300Y0355981D02*
X0128300Y0355981D01*
X0130300Y0357481D01*
X0130300Y0352981D02*
X0130300Y0344981D01*
X0136300Y0327481D01*
X0142800Y0334481D02*
X0145800Y0338481D01*
X0108800Y0292481D02*
X0101363Y0275044D01*
X0096863Y0269044D02*
X0090894Y0259107D01*
X0085926Y0253138D02*
X0075800Y0236481D01*
X0030143Y0252481D02*
X0024143Y0252481D01*
X0021769Y0260701D02*
X0016300Y0270981D01*
X0014300Y0268481D02*
X0012800Y0266981D01*
X0012800Y0260481D01*
X0014552Y0250981D02*
X0020831Y0244044D01*
X0030143Y0260981D02*
X0030143Y0262481D01*
X0025800Y0267981D01*
X0048107Y0355874D02*
X0048107Y0359811D01*
X0048107Y0369654D02*
X0048107Y0371622D01*
X0042800Y0384981D02*
X0042800Y0387981D01*
X0199300Y0193981D02*
X0199300Y0170481D01*
X0209300Y0170481D02*
X0209300Y0194481D01*
X0219300Y0192981D02*
X0219300Y0170481D01*
X0229300Y0170981D02*
X0229300Y0196981D01*
X0239300Y0199481D02*
X0239300Y0170481D01*
X0249300Y0170981D02*
X0249300Y0191981D01*
X0258997Y0190493D02*
X0259300Y0171981D01*
X0342300Y0217981D02*
X0342300Y0222981D01*
X0342300Y0217981D02*
X0352300Y0207981D01*
X0376800Y0207981D01*
X0382800Y0212981D02*
X0382800Y0190481D01*
X0389800Y0183481D01*
X0389800Y0185981D01*
X0391300Y0187481D01*
X0390800Y0171481D02*
X0390800Y0169981D01*
X0391300Y0169481D01*
X0391800Y0168981D02*
X0391800Y0165481D01*
X0389300Y0162981D01*
X0386300Y0161481D01*
X0384800Y0157981D01*
X0391800Y0156481D02*
X0390300Y0149981D01*
X0378800Y0164481D02*
X0378800Y0176481D01*
X0368300Y0186981D01*
X0382800Y0212981D02*
X0387800Y0217981D01*
X0381800Y0232981D02*
X0382800Y0233981D01*
X0382800Y0372981D01*
X0386300Y0376481D01*
X0381800Y0232981D02*
X0357800Y0232981D01*
X0352800Y0227981D01*
D62*
X0351300Y0264481D03*
X0353800Y0268481D03*
X0338800Y0278981D03*
X0335800Y0282481D03*
X0333300Y0286481D03*
X0326800Y0294481D03*
X0328800Y0298481D03*
X0314300Y0302981D03*
X0314300Y0307981D03*
X0314300Y0312981D03*
X0344300Y0329981D03*
X0351800Y0329481D03*
X0356300Y0329481D03*
X0362300Y0310981D03*
X0362300Y0305981D03*
X0338800Y0352981D03*
X0340800Y0367481D03*
X0340800Y0371981D03*
X0326643Y0372481D03*
X0320017Y0375886D03*
X0326643Y0356481D03*
X0365036Y0377528D03*
X0368300Y0365481D03*
X0262800Y0361981D03*
X0262674Y0353906D03*
X0203800Y0300481D03*
X0193800Y0296481D03*
X0188800Y0310981D03*
X0162280Y0316504D03*
X0201800Y0266481D03*
X0201800Y0258481D03*
X0217398Y0237764D03*
X0219800Y0232481D03*
X0201650Y0215016D03*
X0203800Y0196481D03*
X0183800Y0224481D03*
X0183800Y0229481D03*
X0142595Y0198394D03*
X0164300Y0171481D03*
X0143800Y0148481D03*
X0122300Y0148481D03*
X0111099Y0202331D03*
X0103225Y0202331D03*
X0080300Y0269481D03*
X0036800Y0348981D03*
X0035300Y0361981D03*
X0042800Y0387981D03*
X0086300Y0355481D03*
X0235800Y0204981D03*
X0258800Y0238981D03*
X0212800Y0164481D03*
X0195300Y0088981D03*
X0195800Y0074481D03*
X0200300Y0060481D03*
X0200300Y0054481D03*
X0206800Y0050481D03*
X0214300Y0050481D03*
X0225800Y0067481D03*
X0230800Y0067481D03*
X0242300Y0058981D03*
X0250300Y0058981D03*
X0250300Y0050981D03*
X0242300Y0050981D03*
X0246800Y0039981D03*
X0252300Y0039981D03*
X0252300Y0031981D03*
X0246800Y0031981D03*
X0230800Y0033481D03*
X0230800Y0028481D03*
X0250300Y0012481D03*
X0281300Y0028981D03*
X0280800Y0046481D03*
X0205800Y0013481D03*
X0199300Y0013481D03*
X0202800Y0021481D03*
X0202800Y0025981D03*
X0180800Y0028481D03*
X0180800Y0033481D03*
X0162300Y0029981D03*
X0156300Y0029981D03*
X0155300Y0012481D03*
X0126800Y0028481D03*
X0126300Y0048981D03*
X0156800Y0051481D03*
X0164800Y0051481D03*
X0175800Y0066981D03*
X0181300Y0066981D03*
X0300300Y0139481D03*
X0390300Y0149981D03*
D63*
X0292800Y0223981D02*
X0290300Y0221481D01*
X0292800Y0223981D02*
X0292800Y0234981D01*
X0292300Y0245481D02*
X0291800Y0245481D01*
X0258800Y0238981D01*
X0248863Y0252418D02*
X0252800Y0257481D01*
X0218800Y0251981D02*
X0217800Y0238481D01*
X0228800Y0212481D02*
X0219800Y0203481D01*
X0218300Y0203481D01*
X0228800Y0212481D02*
X0248800Y0212481D01*
X0258300Y0221981D01*
X0282300Y0221981D01*
X0278300Y0204981D02*
X0277800Y0204481D01*
X0277800Y0174481D01*
X0270300Y0166981D01*
X0268800Y0166981D01*
X0267800Y0166981D01*
X0258300Y0166981D01*
X0278300Y0204981D02*
X0235800Y0204981D01*
X0212300Y0328981D02*
X0214800Y0331481D01*
X0214800Y0339481D01*
X0204300Y0341481D02*
X0201800Y0341481D01*
X0199300Y0341481D01*
X0201800Y0341481D02*
X0201800Y0330981D01*
X0189800Y0328981D02*
X0188300Y0330481D01*
X0188300Y0339981D01*
X0247300Y0371981D02*
X0262800Y0361981D01*
X0263300Y0361981D02*
X0312143Y0361981D01*
X0312143Y0369481D01*
X0312143Y0361981D02*
X0330300Y0361981D01*
X0364300Y0359481D02*
X0368300Y0363481D01*
X0368300Y0365481D01*
D64*
X0367300Y0362481D02*
X0364300Y0359481D01*
X0363800Y0358981D01*
X0363800Y0350981D01*
X0355300Y0345981D02*
X0351300Y0353981D01*
X0333800Y0361481D01*
X0329800Y0362481D01*
X0329300Y0362481D02*
X0326643Y0362481D01*
X0262300Y0361981D01*
X0247300Y0371981D02*
X0233300Y0379481D01*
X0241020Y0336189D02*
X0260706Y0308630D01*
X0244957Y0300756D01*
X0217398Y0277134D01*
X0221335Y0285008D01*
X0244957Y0304693D01*
X0225272Y0304693D01*
X0225272Y0292882D01*
X0233146Y0300756D01*
X0229209Y0300756D01*
X0221335Y0308630D02*
X0241020Y0308630D01*
X0244957Y0312567D01*
X0244957Y0328315D01*
X0256769Y0308630D01*
X0248894Y0320441D01*
X0252831Y0308630D01*
X0248894Y0316504D01*
X0248894Y0304693D01*
X0244957Y0308630D01*
X0221335Y0285008D01*
X0221335Y0308630D01*
X0221363Y0322918D02*
X0209863Y0323292D01*
X0221363Y0322918D02*
X0234300Y0326855D01*
X0162280Y0316504D02*
X0138658Y0292882D01*
X0142595Y0300756D01*
X0138658Y0296819D01*
X0122910Y0265323D01*
X0122910Y0261386D01*
X0122910Y0241701D01*
X0126847Y0241701D01*
X0126847Y0269260D01*
X0138658Y0292882D01*
X0142595Y0300756D02*
X0158343Y0316504D01*
X0162280Y0316504D01*
X0107800Y0340481D02*
X0077863Y0253012D01*
X0057863Y0238044D02*
X0048800Y0240481D01*
X0041300Y0245981D02*
X0041300Y0258981D01*
X0061300Y0278981D01*
X0073300Y0278981D01*
X0073300Y0309481D01*
X0054300Y0316981D01*
X0041300Y0245981D02*
X0035800Y0240481D01*
X0035800Y0229481D01*
X0029300Y0228481D01*
X0019800Y0225981D01*
X0014300Y0217981D01*
X0014300Y0202481D01*
X0039363Y0196044D02*
X0039863Y0196044D01*
X0071729Y0182646D02*
X0071729Y0155087D01*
X0107162Y0131465D01*
X0103225Y0131465D02*
X0071729Y0151150D01*
X0071729Y0155087D01*
X0071729Y0182646D02*
X0103225Y0198394D01*
X0142595Y0198394D01*
X0146532Y0202331D02*
X0111099Y0202331D01*
X0103225Y0198394D01*
X0164300Y0179481D02*
X0164300Y0167981D01*
X0165800Y0166481D01*
X0166800Y0165481D01*
X0191300Y0165481D01*
X0205800Y0150981D01*
X0248300Y0192981D02*
X0235800Y0205481D01*
X0225300Y0194981D01*
X0200800Y0194981D01*
X0143800Y0048981D02*
X0126300Y0048981D01*
X0092300Y0048981D01*
X0143800Y0040981D02*
X0145800Y0038981D01*
X0157300Y0038981D01*
X0145300Y0030481D02*
X0180300Y0030481D01*
X0187800Y0017481D02*
X0191800Y0013481D01*
X0199300Y0013481D01*
X0205800Y0013481D02*
X0213800Y0013481D01*
X0217800Y0017481D01*
X0202871Y0021465D02*
X0202871Y0028433D01*
X0216300Y0039481D02*
X0260300Y0039481D01*
X0261800Y0040981D01*
X0259800Y0032481D02*
X0261800Y0030481D01*
X0261300Y0028981D02*
X0318245Y0028548D01*
X0259800Y0032481D02*
X0230800Y0032481D01*
X0237300Y0017981D02*
X0242800Y0012481D01*
X0250300Y0012481D01*
X0167800Y0017481D02*
X0162800Y0012481D01*
X0155300Y0012481D01*
X0352300Y0328981D02*
X0357300Y0328981D01*
X0357300Y0329481D02*
X0357300Y0335981D01*
X0352300Y0336481D02*
X0352300Y0329981D01*
X0339800Y0359481D02*
X0340800Y0371981D01*
D65*
X0256800Y0379481D03*
X0244800Y0360481D03*
X0233300Y0379481D03*
X0165300Y0367981D03*
X0153800Y0386981D03*
X0141800Y0367981D03*
X0059300Y0252981D03*
X0070800Y0233981D03*
X0047300Y0233981D03*
X0028300Y0215481D03*
X0039800Y0196481D03*
X0016300Y0196481D03*
X0131800Y0236981D03*
X0143300Y0217981D03*
X0155300Y0237481D03*
D66*
X0363300Y0355981D03*
X0363300Y0385481D03*
D67*
X0346300Y0385981D01*
X0333800Y0373481D01*
X0326643Y0373481D01*
X0338300Y0352981D02*
X0342300Y0348981D01*
X0364068Y0385307D02*
X0370942Y0382933D01*
X0364942Y0384839D01*
X0371300Y0382981D01*
X0382800Y0382981D01*
X0387300Y0387481D01*
X0382800Y0382981D02*
X0384300Y0381481D01*
X0387800Y0377981D01*
X0384300Y0374981D02*
X0384300Y0381481D01*
X0364068Y0385307D02*
X0363099Y0385807D01*
X0292300Y0320981D02*
X0286300Y0292981D01*
X0324800Y0238481D01*
X0329800Y0232981D01*
X0345800Y0231981D01*
X0349800Y0227981D01*
X0351800Y0227981D01*
X0264300Y0109981D02*
X0264300Y0105981D01*
X0230800Y0072481D01*
X0230800Y0067981D01*
X0225800Y0067981D02*
X0225800Y0076981D01*
X0253800Y0104981D01*
X0253800Y0110481D01*
X0254300Y0110981D01*
X0229300Y0094481D02*
X0200300Y0065481D01*
X0200300Y0060481D01*
X0200300Y0054481D01*
X0200300Y0051981D01*
X0186800Y0067481D02*
X0224300Y0104981D01*
X0224300Y0110481D01*
X0224800Y0110981D01*
X0214300Y0110481D02*
X0213800Y0109981D01*
X0213800Y0105981D01*
X0175300Y0067481D01*
X0181300Y0067481D02*
X0186800Y0067481D01*
X0229300Y0094481D02*
X0229300Y0134981D01*
X0218300Y0145981D01*
X0210800Y0145981D01*
X0190800Y0193981D02*
X0188300Y0193981D01*
X0190800Y0193981D02*
X0196800Y0199981D01*
X0196800Y0203481D01*
X0207300Y0203481D01*
X0216300Y0204481D02*
X0216800Y0204481D01*
X0196800Y0203481D02*
X0196800Y0229481D01*
X0196800Y0230481D01*
X0196800Y0241481D01*
X0186800Y0252481D02*
X0180800Y0252481D01*
X0157269Y0268949D02*
X0159237Y0274512D01*
X0158737Y0273044D01*
X0157162Y0268473D02*
X0155587Y0266111D01*
X0155587Y0243670D01*
X0193800Y0296481D02*
X0199800Y0296481D01*
X0203800Y0300481D01*
X0212989Y0323670D02*
X0216926Y0337544D01*
X0216300Y0349981D01*
X0209052Y0349355D02*
X0196615Y0349981D01*
X0189926Y0347981D02*
X0197800Y0340981D01*
X0159300Y0349981D02*
X0162300Y0361981D01*
X0159300Y0349981D02*
X0142300Y0326481D01*
X0137800Y0326481D01*
X0216800Y0251481D02*
X0217800Y0250481D01*
X0217800Y0249981D01*
X0217800Y0250481D02*
X0217800Y0251981D01*
X0040233Y0190520D02*
X0032359Y0182646D01*
X0032359Y0178709D01*
X0028422Y0174772D01*
X0028422Y0170835D01*
X0024485Y0166898D01*
X0024485Y0162961D01*
X0020548Y0159024D01*
X0016611Y0159024D01*
X0016611Y0166898D02*
X0016611Y0198394D01*
X0025800Y0349481D02*
X0037800Y0349481D01*
D68*
X0077863Y0253012D02*
X0057863Y0238044D01*
X0159800Y0229481D02*
X0183800Y0229481D01*
X0183800Y0224481D01*
X0159800Y0224481D01*
X0162800Y0227481D01*
X0180800Y0227481D01*
X0181800Y0226481D01*
X0201800Y0215481D02*
X0201800Y0266481D01*
X0206800Y0245481D02*
X0206800Y0235481D01*
X0206800Y0235981D02*
X0222800Y0221981D01*
X0219800Y0232481D02*
X0218800Y0232481D01*
X0217800Y0233481D01*
X0217800Y0237481D01*
X0219800Y0235481D01*
X0219800Y0232481D01*
X0344300Y0326481D02*
X0346800Y0323981D01*
X0347800Y0323981D01*
X0344300Y0326481D02*
X0344300Y0329481D01*
X0320800Y0366981D02*
X0318300Y0366981D01*
X0314300Y0370981D01*
X0314300Y0379981D01*
X0321300Y0386981D01*
X0321300Y0376481D01*
X0315800Y0370981D01*
X0317300Y0370981D01*
X0319300Y0368981D01*
X0319300Y0381481D01*
X0316300Y0378481D01*
X0316300Y0372981D01*
X0312300Y0370481D02*
X0312300Y0380481D01*
X0322800Y0390981D01*
X0322800Y0377481D01*
X0320800Y0375481D01*
X0320800Y0366981D01*
X0319300Y0381481D02*
X0319300Y0382981D01*
X0333300Y0391481D02*
X0362300Y0386981D01*
X0360300Y0386481D02*
X0346300Y0386481D01*
X0333300Y0391481D01*
X0288265Y0363748D02*
X0272517Y0363748D01*
X0268580Y0391307D01*
X0241020Y0391307D01*
X0233146Y0379496D01*
D69*
X0142300Y0374981D02*
X0128800Y0389481D01*
X0101300Y0389481D01*
X0092800Y0382981D01*
X0342800Y0328981D02*
X0343300Y0328981D01*
X0202800Y0029481D02*
X0202800Y0020981D01*
D70*
X0199426Y0039981D03*
X0214316Y0040099D03*
X0165300Y0039981D03*
X0157300Y0039981D03*
X0366060Y0187685D03*
X0391611Y0187607D03*
X0391650Y0169811D03*
X0367300Y0257481D03*
X0367300Y0267481D03*
X0367300Y0287481D03*
X0367300Y0297481D03*
X0220800Y0308481D03*
D71*
X0108300Y0293481D03*
X0108300Y0340481D03*
X0060300Y0340481D03*
X0052300Y0316981D03*
X0060300Y0293481D03*
X0167005Y0148788D03*
X0167005Y0128315D03*
X0206375Y0128315D03*
X0206375Y0148788D03*
X0248894Y0139339D03*
D72*
X0254300Y0166481D02*
X0256800Y0168981D01*
X0254300Y0166481D02*
X0165800Y0166481D01*
X0164300Y0166981D02*
X0164300Y0189481D01*
X0157800Y0209481D02*
X0157800Y0238481D01*
X0130800Y0236481D02*
X0113800Y0236481D01*
X0062300Y0184981D01*
X0062300Y0074481D01*
X0089300Y0028481D01*
X0126800Y0028481D01*
X0141300Y0028481D01*
X0157800Y0040981D02*
X0215300Y0040981D01*
X0230800Y0030981D02*
X0181300Y0030981D01*
X0263300Y0046481D02*
X0280800Y0046481D01*
X0322800Y0046481D01*
X0350800Y0074481D01*
X0350800Y0164981D01*
X0293800Y0221981D01*
X0204300Y0159981D02*
X0204300Y0154981D01*
X0204300Y0159981D02*
X0201300Y0162981D01*
X0206300Y0128481D02*
X0133800Y0128481D01*
X0133800Y0185481D01*
X0157800Y0209481D01*
X0193300Y0127981D02*
X0205300Y0127981D01*
D73*
X0155300Y0237481D02*
X0155300Y0242981D01*
X0155300Y0243481D01*
D74*
X0155300Y0242981D02*
X0157269Y0272386D01*
X0158343Y0273197D02*
X0158343Y0245638D01*
X0174091Y0269260D02*
X0170154Y0273197D01*
X0170154Y0277134D01*
X0174091Y0277134D01*
X0180965Y0316008D01*
X0180902Y0315567D02*
X0177902Y0277134D01*
X0178028Y0277134D02*
X0174091Y0277134D01*
X0174091Y0273197D02*
X0174091Y0269260D01*
X0178028Y0277134D01*
X0189300Y0311481D02*
X0208800Y0316481D01*
X0210800Y0326481D01*
X0225272Y0336189D02*
X0241020Y0336189D01*
X0229209Y0355874D01*
X0229209Y0340126D01*
X0237083Y0340126D01*
X0233146Y0344063D01*
X0225272Y0351937D02*
X0225272Y0336189D01*
X0192800Y0326981D02*
X0181300Y0315481D01*
X0180902Y0315567D02*
X0192776Y0323441D01*
X0363068Y0166898D02*
X0370942Y0155087D01*
X0367005Y0155087D01*
X0363068Y0147213D02*
X0363068Y0166898D01*
X0280391Y0131465D02*
X0280391Y0096032D01*
X0276454Y0096032D01*
X0276454Y0131465D01*
X0280391Y0131465D01*
X0142595Y0115717D02*
X0142595Y0103906D01*
X0138658Y0103906D01*
X0130784Y0107843D01*
X0130784Y0111780D01*
X0134721Y0111780D01*
X0134721Y0107843D02*
X0142595Y0115717D01*
X0138658Y0103906D01*
X0126847Y0103906D01*
X0126847Y0115717D01*
X0142595Y0115717D01*
D75*
X0250800Y0254481D03*
X0249800Y0283981D03*
D76*
X0296139Y0229890D02*
X0351257Y0166898D01*
D77*
X0166217Y0316504D02*
X0178028Y0355874D01*
X0185902Y0363748D01*
X0217398Y0363748D01*
X0225272Y0359811D01*
X0205587Y0383433D01*
X0201650Y0367685D01*
X0201650Y0391307D02*
X0142595Y0304693D01*
X0134721Y0296819D02*
X0052044Y0182646D01*
X0079603Y0210205D02*
X0118973Y0261386D01*
X0115036Y0241701D01*
X0122910Y0237764D02*
X0130784Y0237764D01*
X0122910Y0261386D01*
X0122910Y0237764D02*
X0122910Y0218079D01*
X0095351Y0218079D01*
X0083540Y0210205D02*
X0122910Y0233827D01*
X0158343Y0316504D02*
X0166217Y0316504D01*
D78*
X0170154Y0273197D03*
X0158343Y0273197D03*
X0146532Y0273197D03*
X0280391Y0373591D03*
X0292202Y0373591D03*
X0304013Y0373591D03*
X0304013Y0385402D03*
X0292202Y0385402D03*
X0280391Y0385402D03*
M02*
