%
M48
M72
T01C0.02362
T02C0.03200
T03C0.03937
T04C0.04000
T05C0.04400
T06C0.04700
T07C0.05900
T08C0.05906
T09C0.06299
T10C0.07200
T11C0.07874
T12C0.08661
T13C0.11024
T14C0.12598
%
T01
X126800Y28481
X126300Y48981
X156800Y51481
X164800Y51481
X175800Y66981
X181300Y66981
X195800Y74481
X195300Y88981
X225800Y67481
X230800Y67481
X242300Y58981
X250300Y58981
X250300Y50981
X242300Y50981
X246800Y39981
X252300Y39981
X252300Y31981
X246800Y31981
X230800Y33481
X230800Y28481
X250300Y12481
X281300Y28981
X280800Y46481
X214300Y50481
X206800Y50481
X200300Y54481
X200300Y60481
X180800Y33481
X180800Y28481
X162300Y29981
X156300Y29981
X155300Y12481
X199300Y13481
X205800Y13481
X202800Y21481
X202800Y25981
X300300Y139481
X235800Y204981
X219800Y232481
X217398Y237764
X201800Y258481
X201800Y266481
X193800Y296481
X203800Y300481
X188800Y310981
X162280Y316504
X86300Y355481
X42800Y387981
X35300Y361981
X36800Y348981
X80300Y269481
X103225Y202331
X111099Y202331
X142595Y198394
X164300Y171481
X143800Y148481
X122300Y148481
X183800Y224481
X183800Y229481
X201650Y215016
X203800Y196481
X212800Y164481
X258800Y238981
X314300Y302981
X314300Y307981
X314300Y312981
X328800Y298481
X326800Y294481
X333300Y286481
X335800Y282481
X338800Y278981
X353800Y268481
X351300Y264481
X362300Y305981
X362300Y310981
X356300Y329481
X351800Y329481
X344300Y329981
X338800Y352981
X340800Y367481
X340800Y371981
X326643Y372481
X320017Y375886
X326643Y356481
X365036Y377528
X368300Y365481
X262800Y361981
X262674Y353906
X390300Y149981
T02
X292489Y235500
X292489Y245500
X319761Y339063
X319761Y349063
X290233Y353000
X290233Y343000
X323217Y391441
X333217Y391441
X100800Y383481
X95800Y390981
X90800Y383481
X20300Y242981
X15300Y235481
X25300Y235481
X16611Y167961
X16611Y157961
T03
X103225Y261386
X220800Y308481
X304013Y257449
X367300Y257481
X367300Y267481
X367300Y287481
X367300Y297481
X366060Y187685
X391611Y187607
X391650Y169811
X214316Y40099
X199426Y39981
X165300Y39981
X157300Y39981
T04
X91800Y48481
X91800Y28481
X154170Y111741
X164170Y111741
X174170Y111741
X184170Y111741
X194170Y111741
X204170Y111741
X214170Y111741
X224170Y111741
X234170Y111741
X244170Y111741
X254170Y111741
X264170Y111741
X318245Y48548
X318245Y28548
X264170Y181741
X254170Y181741
X244170Y181741
X234170Y181741
X224170Y181741
X214170Y181741
X204170Y181741
X194170Y181741
X184170Y181741
X174170Y181741
X164170Y181741
X154170Y181741
X24800Y269481
X24800Y279481
X24800Y289481
X24800Y299481
X24800Y309481
X24800Y319481
X24800Y329481
X24800Y339481
X24800Y349481
X24800Y359481
X24800Y369481
X24800Y379481
X24800Y389481
X14800Y389481
X14800Y379481
X14800Y369481
X14800Y359481
X14800Y349481
X14800Y339481
X14800Y329481
X14800Y319481
X14800Y309481
X14800Y299481
X14800Y289481
X14800Y279481
X14800Y269481
X234300Y316855
X234300Y326855
X234300Y336855
X282300Y325981
X292300Y325981
X302300Y325981
X377753Y327882
X377753Y337882
X387753Y337882
X387753Y327882
X387753Y317882
X387753Y307882
X387753Y297882
X387753Y287882
X387753Y277882
X387753Y267882
X387753Y257882
X387753Y247882
X387753Y237882
X387753Y227882
X387753Y217882
X387753Y207882
X387753Y197882
X377753Y197882
X377753Y207882
X377753Y217882
X377753Y227882
X377753Y237882
X377753Y247882
X377753Y257882
X377753Y267882
X377753Y277882
X377753Y287882
X377753Y297882
X377753Y307882
X377753Y317882
X377753Y347882
X377753Y357882
X387753Y357882
X387753Y347882
X387753Y367882
X387753Y377882
X377753Y377882
X377753Y367882
X377753Y387882
X387753Y387882
X362300Y222981
X352300Y222981
X342300Y222981
T05
X210650Y326752
X201650Y326752
X192650Y326752
X161064Y287255
X181064Y252614
X121528Y363831
X121528Y372831
X121528Y381831
T06
X298208Y298077
X309499Y281952
X325767Y258707
X337058Y242582
X237566Y17800
X217881Y17800
X187566Y17800
X167881Y17800
T07
X229800Y221981
X289800Y221981
T08
X363300Y355981
X363300Y385481
T09
X304013Y385402
X304013Y373591
X292202Y373591
X292202Y385402
X280391Y385402
X280391Y373591
X170154Y273197
X158343Y273197
X146532Y273197
T10
X108630Y184010
X108630Y164010
X82063Y174010
X108630Y114010
X108630Y94010
X82063Y104010
X296662Y94089
X296662Y114089
X323229Y104089
X296662Y164089
X296662Y184089
X323229Y174089
T11
X248894Y139339
X206375Y148788
X206375Y128315
X167005Y128315
X167005Y148788
X108300Y293481
X108300Y340481
X60300Y340481
X52300Y316981
X60300Y293481
T12
X249800Y283981
X250800Y254481
T13
X155300Y237481
X143300Y217981
X131800Y236981
X70800Y233981
X59300Y252981
X47300Y233981
X28300Y215481
X39800Y196481
X16300Y196481
X141800Y367981
X153800Y386981
X165300Y367981
X233300Y379481
X244800Y360481
X256800Y379481
T14
X20548Y21229
X20548Y115717
X201650Y367685
X382753Y115717
X382753Y21229
M30
