%
M48
M72
T01C0.02362
T02C0.03150
T03C0.03200
T04C0.03937
T05C0.04000
T06C0.04400
T07C0.04700
T08C0.04724
T09C0.05200
T10C0.05900
T11C0.07200
T12C0.07874
T13C0.11000
T14C0.11024
T15C0.12598
%
T01
X126800Y37770
X126300Y58270
X156300Y39270
X162300Y39270
X180800Y37770
X180800Y42770
X199300Y22770
X205800Y22770
X202800Y30770
X202800Y35270
X230800Y37770
X230800Y42770
X246800Y41270
X252300Y41270
X252300Y49270
X246800Y49270
X250300Y21770
X281300Y38270
X280800Y55770
X230800Y76770
X225800Y76770
X200300Y63770
X195800Y83770
X195300Y98270
X181300Y76270
X175800Y76270
X155300Y21770
X143800Y157770
X122300Y157770
X164300Y180770
X212800Y173770
X235800Y214270
X181800Y269770
X262800Y371270
X314300Y322270
X314300Y317270
X314300Y312270
X326800Y303770
X328800Y307770
X333300Y295770
X335800Y291770
X338800Y288270
X353800Y277770
X351300Y273770
X362300Y315270
X362300Y320270
X356300Y338770
X351800Y338770
X344300Y339270
X338800Y362270
X340800Y376770
X340800Y381270
X362300Y363270
X368300Y374770
X316800Y381770
X316800Y365770
X390300Y159270
X300300Y148770
X42800Y397270
T02
X153643Y396152
X165454Y377254
X233146Y388786
X244957Y369888
X131572Y246266
X143383Y227368
X186650Y243707
X196650Y243707
X206650Y243707
X216650Y243707
X211650Y228353
X201650Y228353
X191650Y228353
X70954Y243254
X59143Y262152
X28143Y224652
X39954Y205754
T03
X16611Y177250
X16611Y167250
X16800Y240270
X21800Y247770
X26800Y240270
X90800Y392770
X95800Y400270
X100800Y392770
X292489Y254790
X292489Y244790
T04
X251300Y262270
X251300Y299770
X302300Y379270
X256769Y388786
X201650Y404534
X141831Y377254
X155194Y246266
X47331Y243254
X16331Y205754
X8737Y140754
X157300Y49270
X165300Y49270
X207300Y49270
X215300Y49270
X366060Y196975
X391611Y196896
X391650Y179101
X394564Y140754
X367300Y266770
X367300Y276770
X367300Y296770
X367300Y306770
X361300Y363770
X361300Y401270
T05
X377753Y397171
X377753Y387171
X377753Y377171
X377753Y367171
X377753Y357171
X377753Y347171
X377753Y337171
X377753Y327171
X377753Y317171
X377753Y307171
X377753Y297171
X377753Y287171
X377753Y277171
X377753Y267171
X377753Y257171
X377753Y247171
X377753Y237171
X377753Y227171
X377753Y217171
X377753Y207171
X387753Y207171
X387753Y217171
X387753Y227171
X387753Y237171
X387753Y247171
X387753Y257171
X387753Y267171
X387753Y277171
X387753Y287171
X387753Y297171
X387753Y307171
X387753Y317171
X387753Y327171
X387753Y337171
X387753Y347171
X387753Y357171
X387753Y367171
X387753Y377171
X387753Y387171
X387753Y397171
X302300Y335270
X292300Y335270
X282300Y335270
X227300Y329770
X227300Y319770
X227300Y309770
X342300Y232270
X352300Y232270
X362300Y232270
X264170Y191030
X254170Y191030
X244170Y191030
X234170Y191030
X224170Y191030
X214170Y191030
X204170Y191030
X194170Y191030
X184170Y191030
X174170Y191030
X164170Y191030
X154170Y191030
X154170Y121030
X164170Y121030
X174170Y121030
X184170Y121030
X194170Y121030
X204170Y121030
X214170Y121030
X224170Y121030
X234170Y121030
X244170Y121030
X254170Y121030
X264170Y121030
X322300Y58270
X322300Y38270
X91800Y37770
X91800Y57770
X24800Y278770
X24800Y288770
X24800Y298770
X24800Y308770
X24800Y318770
X24800Y328770
X24800Y338770
X24800Y348770
X24800Y358770
X24800Y368770
X24800Y378770
X24800Y388770
X24800Y398770
X14800Y398770
X14800Y388770
X14800Y378770
X14800Y368770
X14800Y358770
X14800Y348770
X14800Y338770
X14800Y328770
X14800Y318770
X14800Y308770
X14800Y298770
X14800Y288770
X14800Y278770
T06
X121528Y373120
X121528Y382120
X121528Y391120
X192650Y336041
X201650Y336041
X210650Y336041
X200300Y312770
X160300Y312770
T07
X298208Y307366
X309499Y291241
X325767Y267996
X337058Y251871
X237566Y27089
X217881Y27089
X187566Y27089
X167881Y27089
T08
X170942Y275793
X170942Y286030
X155194Y286030
X155194Y275793
X139446Y275793
X139446Y286030
T09
X108300Y302270
X108300Y349270
X60300Y349270
X52300Y325770
X60300Y302270
X291800Y355770
X311800Y355770
X331800Y355770
X331800Y395770
X311800Y395770
X291800Y395770
T10
X289800Y231270
X229800Y231270
T11
X296662Y193378
X296662Y173378
X323229Y183378
X296662Y123378
X296662Y103378
X323229Y113378
X108630Y123299
X108630Y103299
X82063Y113299
X108630Y173299
X108630Y193299
X82063Y183299
T12
X167005Y158077
X167005Y137604
X206375Y137604
X206375Y158077
X248894Y148628
T13
X331800Y375770
T14
X256800Y388770
X244800Y369770
X233300Y388770
X165300Y377270
X153800Y396270
X141800Y377270
X59300Y262270
X70800Y243270
X47300Y243270
X28300Y224770
X39800Y205770
X16300Y205770
X131800Y246270
X143300Y227270
X155300Y246770
T15
X20548Y30518
X20548Y125006
X201650Y376975
X382753Y125006
X382753Y30518
M30
